M48
;DRILL file {KiCad 5.0.0-fee4fd1~66~ubuntu16.04.1} date Tue Sep 11 21:28:58 2018
;FORMAT={-:-/ absolute / metric / decimal}
FMAT,2
METRIC,TZ
T1C0.400
T2C3.200
%
G90
G05
M71
T1
X112.5Y-105.3
X112.5Y-106.3
X112.5Y-107.3
X112.5Y-108.3
X112.5Y-109.3
X113.5Y-105.3
X113.5Y-106.3
X113.5Y-107.3
X113.5Y-108.3
X113.5Y-109.3
X114.5Y-105.3
X114.5Y-106.3
X114.5Y-107.3
X114.5Y-108.3
X114.5Y-109.3
X115.5Y-105.3
X115.5Y-106.3
X115.5Y-107.3
X115.5Y-108.3
X115.5Y-109.3
X115.5Y-117.5
X116.5Y-105.3
X116.5Y-106.3
X116.5Y-107.3
X116.5Y-108.3
X116.5Y-109.3
X119.Y-126.
X120.3Y-128.5
X120.3Y-129.5
X120.3Y-130.5
X120.3Y-131.5
X120.3Y-132.5
X121.3Y-128.5
X121.3Y-129.5
X121.3Y-130.5
X121.3Y-131.5
X121.3Y-132.5
X122.3Y-128.5
X122.3Y-129.5
X122.3Y-130.5
X122.3Y-131.5
X122.3Y-132.5
X123.3Y-128.5
X123.3Y-129.5
X123.3Y-130.5
X123.3Y-131.5
X123.3Y-132.5
X124.3Y-128.5
X124.3Y-129.5
X124.3Y-130.5
X124.3Y-131.5
X124.3Y-132.5
X133.Y-129.5
X135.7Y-97.5
X135.7Y-98.5
X135.7Y-99.5
X135.7Y-100.5
X135.7Y-101.5
X136.7Y-97.5
X136.7Y-98.5
X136.7Y-99.5
X136.7Y-100.5
X136.7Y-101.5
X137.7Y-97.5
X137.7Y-98.5
X137.7Y-99.5
X137.7Y-100.5
X137.7Y-101.5
X138.7Y-97.5
X138.7Y-98.5
X138.7Y-99.5
X138.7Y-100.5
X138.7Y-101.5
X139.7Y-97.5
X139.7Y-98.5
X139.7Y-99.5
X139.7Y-100.5
X139.7Y-101.5
X140.Y-128.
X141.Y-104.5
X142.5Y-112.5
X143.5Y-120.7
X143.5Y-121.7
X143.5Y-122.7
X143.5Y-123.7
X143.5Y-124.7
X144.5Y-120.7
X144.5Y-121.7
X144.5Y-122.7
X144.5Y-123.7
X144.5Y-124.7
X145.5Y-120.7
X145.5Y-121.7
X145.5Y-122.7
X145.5Y-123.7
X145.5Y-124.7
X146.5Y-120.7
X146.5Y-121.7
X146.5Y-122.7
X146.5Y-123.7
X146.5Y-124.7
X147.5Y-120.7
X147.5Y-121.7
X147.5Y-122.7
X147.5Y-123.7
X147.5Y-124.7
T2
X120.Y-105.
X140.Y-125.
T0
M30
