G04 #@! TF.GenerationSoftware,KiCad,Pcbnew,5.0.0-fee4fd1~66~ubuntu16.04.1*
G04 #@! TF.CreationDate,2018-09-11T21:28:54+02:00*
G04 #@! TF.ProjectId,inverted_quad_pdb,696E7665727465645F717561645F7064,rev?*
G04 #@! TF.SameCoordinates,Original*
G04 #@! TF.FileFunction,Soldermask,Top*
G04 #@! TF.FilePolarity,Negative*
%FSLAX46Y46*%
G04 Gerber Fmt 4.6, Leading zero omitted, Abs format (unit mm)*
G04 Created by KiCad (PCBNEW 5.0.0-fee4fd1~66~ubuntu16.04.1) date Tue Sep 11 21:28:54 2018*
%MOMM*%
%LPD*%
G01*
G04 APERTURE LIST*
%ADD10C,0.300000*%
%ADD11C,0.100000*%
%ADD12C,1.900000*%
%ADD13C,3.900000*%
%ADD14C,3.400000*%
G04 APERTURE END LIST*
D10*
G36*
X143300000Y-109600000D02*
X143300000Y-105000000D01*
X147800000Y-105000000D01*
X147800000Y-109600000D01*
X143300000Y-109600000D01*
G37*
X143300000Y-109600000D02*
X143300000Y-105000000D01*
X147800000Y-105000000D01*
X147800000Y-109600000D01*
X143300000Y-109600000D01*
G36*
X112200000Y-105100000D02*
X116800000Y-105100000D01*
X116800000Y-109600000D01*
X112200000Y-109600000D01*
X112200000Y-105100000D01*
G37*
X112200000Y-105100000D02*
X116800000Y-105100000D01*
X116800000Y-109600000D01*
X112200000Y-109600000D01*
X112200000Y-105100000D01*
G36*
X139900000Y-97200000D02*
X139900000Y-101800000D01*
X135400000Y-101800000D01*
X135400000Y-97200000D01*
X139900000Y-97200000D01*
G37*
X139900000Y-97200000D02*
X139900000Y-101800000D01*
X135400000Y-101800000D01*
X135400000Y-97200000D01*
X139900000Y-97200000D01*
G36*
X147800000Y-124900000D02*
X143200000Y-124900000D01*
X143200000Y-120400000D01*
X147800000Y-120400000D01*
X147800000Y-124900000D01*
G37*
X147800000Y-124900000D02*
X143200000Y-124900000D01*
X143200000Y-120400000D01*
X147800000Y-120400000D01*
X147800000Y-124900000D01*
G36*
X120100000Y-132800000D02*
X120100000Y-128200000D01*
X124600000Y-128200000D01*
X124600000Y-132800000D01*
X120100000Y-132800000D01*
G37*
X120100000Y-132800000D02*
X120100000Y-128200000D01*
X124600000Y-128200000D01*
X124600000Y-132800000D01*
X120100000Y-132800000D01*
D11*
G04 #@! TO.C,ESC4*
G36*
X147171558Y-115152287D02*
X147217668Y-115159127D01*
X147262885Y-115170453D01*
X147306775Y-115186157D01*
X147348913Y-115206087D01*
X147388896Y-115230052D01*
X147426337Y-115257820D01*
X147460876Y-115289124D01*
X147492180Y-115323663D01*
X147519948Y-115361104D01*
X147543913Y-115401087D01*
X147563843Y-115443225D01*
X147579547Y-115487115D01*
X147590873Y-115532332D01*
X147597713Y-115578442D01*
X147600000Y-115625000D01*
X147600000Y-116575000D01*
X147597713Y-116621558D01*
X147590873Y-116667668D01*
X147579547Y-116712885D01*
X147563843Y-116756775D01*
X147543913Y-116798913D01*
X147519948Y-116838896D01*
X147492180Y-116876337D01*
X147460876Y-116910876D01*
X147426337Y-116942180D01*
X147388896Y-116969948D01*
X147348913Y-116993913D01*
X147306775Y-117013843D01*
X147262885Y-117029547D01*
X147217668Y-117040873D01*
X147171558Y-117047713D01*
X147125000Y-117050000D01*
X145275000Y-117050000D01*
X145228442Y-117047713D01*
X145182332Y-117040873D01*
X145137115Y-117029547D01*
X145093225Y-117013843D01*
X145051087Y-116993913D01*
X145011104Y-116969948D01*
X144973663Y-116942180D01*
X144939124Y-116910876D01*
X144907820Y-116876337D01*
X144880052Y-116838896D01*
X144856087Y-116798913D01*
X144836157Y-116756775D01*
X144820453Y-116712885D01*
X144809127Y-116667668D01*
X144802287Y-116621558D01*
X144800000Y-116575000D01*
X144800000Y-115625000D01*
X144802287Y-115578442D01*
X144809127Y-115532332D01*
X144820453Y-115487115D01*
X144836157Y-115443225D01*
X144856087Y-115401087D01*
X144880052Y-115361104D01*
X144907820Y-115323663D01*
X144939124Y-115289124D01*
X144973663Y-115257820D01*
X145011104Y-115230052D01*
X145051087Y-115206087D01*
X145093225Y-115186157D01*
X145137115Y-115170453D01*
X145182332Y-115159127D01*
X145228442Y-115152287D01*
X145275000Y-115150000D01*
X147125000Y-115150000D01*
X147171558Y-115152287D01*
X147171558Y-115152287D01*
G37*
D12*
X146200000Y-116100000D03*
D11*
G36*
X147171558Y-117552287D02*
X147217668Y-117559127D01*
X147262885Y-117570453D01*
X147306775Y-117586157D01*
X147348913Y-117606087D01*
X147388896Y-117630052D01*
X147426337Y-117657820D01*
X147460876Y-117689124D01*
X147492180Y-117723663D01*
X147519948Y-117761104D01*
X147543913Y-117801087D01*
X147563843Y-117843225D01*
X147579547Y-117887115D01*
X147590873Y-117932332D01*
X147597713Y-117978442D01*
X147600000Y-118025000D01*
X147600000Y-118975000D01*
X147597713Y-119021558D01*
X147590873Y-119067668D01*
X147579547Y-119112885D01*
X147563843Y-119156775D01*
X147543913Y-119198913D01*
X147519948Y-119238896D01*
X147492180Y-119276337D01*
X147460876Y-119310876D01*
X147426337Y-119342180D01*
X147388896Y-119369948D01*
X147348913Y-119393913D01*
X147306775Y-119413843D01*
X147262885Y-119429547D01*
X147217668Y-119440873D01*
X147171558Y-119447713D01*
X147125000Y-119450000D01*
X145275000Y-119450000D01*
X145228442Y-119447713D01*
X145182332Y-119440873D01*
X145137115Y-119429547D01*
X145093225Y-119413843D01*
X145051087Y-119393913D01*
X145011104Y-119369948D01*
X144973663Y-119342180D01*
X144939124Y-119310876D01*
X144907820Y-119276337D01*
X144880052Y-119238896D01*
X144856087Y-119198913D01*
X144836157Y-119156775D01*
X144820453Y-119112885D01*
X144809127Y-119067668D01*
X144802287Y-119021558D01*
X144800000Y-118975000D01*
X144800000Y-118025000D01*
X144802287Y-117978442D01*
X144809127Y-117932332D01*
X144820453Y-117887115D01*
X144836157Y-117843225D01*
X144856087Y-117801087D01*
X144880052Y-117761104D01*
X144907820Y-117723663D01*
X144939124Y-117689124D01*
X144973663Y-117657820D01*
X145011104Y-117630052D01*
X145051087Y-117606087D01*
X145093225Y-117586157D01*
X145137115Y-117570453D01*
X145182332Y-117559127D01*
X145228442Y-117552287D01*
X145275000Y-117550000D01*
X147125000Y-117550000D01*
X147171558Y-117552287D01*
X147171558Y-117552287D01*
G37*
D12*
X146200000Y-118500000D03*
D11*
G36*
X174570567Y-112554695D02*
X174665213Y-112568734D01*
X174758028Y-112591983D01*
X174848116Y-112624217D01*
X174934612Y-112665127D01*
X175016681Y-112714317D01*
X175093533Y-112771315D01*
X175164429Y-112835571D01*
X175228685Y-112906467D01*
X175285683Y-112983319D01*
X175334873Y-113065388D01*
X175375783Y-113151884D01*
X175408017Y-113241972D01*
X175431266Y-113334787D01*
X175445305Y-113429433D01*
X175450000Y-113525000D01*
X175450000Y-116475000D01*
X175445305Y-116570567D01*
X175431266Y-116665213D01*
X175408017Y-116758028D01*
X175375783Y-116848116D01*
X175334873Y-116934612D01*
X175285683Y-117016681D01*
X175228685Y-117093533D01*
X175164429Y-117164429D01*
X175093533Y-117228685D01*
X175016681Y-117285683D01*
X174934612Y-117334873D01*
X174848116Y-117375783D01*
X174758028Y-117408017D01*
X174665213Y-117431266D01*
X174570567Y-117445305D01*
X174475000Y-117450000D01*
X172525000Y-117450000D01*
X172429433Y-117445305D01*
X172334787Y-117431266D01*
X172241972Y-117408017D01*
X172151884Y-117375783D01*
X172065388Y-117334873D01*
X171983319Y-117285683D01*
X171906467Y-117228685D01*
X171835571Y-117164429D01*
X171771315Y-117093533D01*
X171714317Y-117016681D01*
X171665127Y-116934612D01*
X171624217Y-116848116D01*
X171591983Y-116758028D01*
X171568734Y-116665213D01*
X171554695Y-116570567D01*
X171550000Y-116475000D01*
X171550000Y-113525000D01*
X171554695Y-113429433D01*
X171568734Y-113334787D01*
X171591983Y-113241972D01*
X171624217Y-113151884D01*
X171665127Y-113065388D01*
X171714317Y-112983319D01*
X171771315Y-112906467D01*
X171835571Y-112835571D01*
X171906467Y-112771315D01*
X171983319Y-112714317D01*
X172065388Y-112665127D01*
X172151884Y-112624217D01*
X172241972Y-112591983D01*
X172334787Y-112568734D01*
X172429433Y-112554695D01*
X172525000Y-112550000D01*
X174475000Y-112550000D01*
X174570567Y-112554695D01*
X174570567Y-112554695D01*
G37*
D13*
X173500000Y-115000000D03*
D11*
G36*
X174570567Y-106554695D02*
X174665213Y-106568734D01*
X174758028Y-106591983D01*
X174848116Y-106624217D01*
X174934612Y-106665127D01*
X175016681Y-106714317D01*
X175093533Y-106771315D01*
X175164429Y-106835571D01*
X175228685Y-106906467D01*
X175285683Y-106983319D01*
X175334873Y-107065388D01*
X175375783Y-107151884D01*
X175408017Y-107241972D01*
X175431266Y-107334787D01*
X175445305Y-107429433D01*
X175450000Y-107525000D01*
X175450000Y-110475000D01*
X175445305Y-110570567D01*
X175431266Y-110665213D01*
X175408017Y-110758028D01*
X175375783Y-110848116D01*
X175334873Y-110934612D01*
X175285683Y-111016681D01*
X175228685Y-111093533D01*
X175164429Y-111164429D01*
X175093533Y-111228685D01*
X175016681Y-111285683D01*
X174934612Y-111334873D01*
X174848116Y-111375783D01*
X174758028Y-111408017D01*
X174665213Y-111431266D01*
X174570567Y-111445305D01*
X174475000Y-111450000D01*
X172525000Y-111450000D01*
X172429433Y-111445305D01*
X172334787Y-111431266D01*
X172241972Y-111408017D01*
X172151884Y-111375783D01*
X172065388Y-111334873D01*
X171983319Y-111285683D01*
X171906467Y-111228685D01*
X171835571Y-111164429D01*
X171771315Y-111093533D01*
X171714317Y-111016681D01*
X171665127Y-110934612D01*
X171624217Y-110848116D01*
X171591983Y-110758028D01*
X171568734Y-110665213D01*
X171554695Y-110570567D01*
X171550000Y-110475000D01*
X171550000Y-107525000D01*
X171554695Y-107429433D01*
X171568734Y-107334787D01*
X171591983Y-107241972D01*
X171624217Y-107151884D01*
X171665127Y-107065388D01*
X171714317Y-106983319D01*
X171771315Y-106906467D01*
X171835571Y-106835571D01*
X171906467Y-106771315D01*
X171983319Y-106714317D01*
X172065388Y-106665127D01*
X172151884Y-106624217D01*
X172241972Y-106591983D01*
X172334787Y-106568734D01*
X172429433Y-106554695D01*
X172525000Y-106550000D01*
X174475000Y-106550000D01*
X174570567Y-106554695D01*
X174570567Y-106554695D01*
G37*
D13*
X173500000Y-109000000D03*
D11*
G36*
X174570567Y-118554695D02*
X174665213Y-118568734D01*
X174758028Y-118591983D01*
X174848116Y-118624217D01*
X174934612Y-118665127D01*
X175016681Y-118714317D01*
X175093533Y-118771315D01*
X175164429Y-118835571D01*
X175228685Y-118906467D01*
X175285683Y-118983319D01*
X175334873Y-119065388D01*
X175375783Y-119151884D01*
X175408017Y-119241972D01*
X175431266Y-119334787D01*
X175445305Y-119429433D01*
X175450000Y-119525000D01*
X175450000Y-122475000D01*
X175445305Y-122570567D01*
X175431266Y-122665213D01*
X175408017Y-122758028D01*
X175375783Y-122848116D01*
X175334873Y-122934612D01*
X175285683Y-123016681D01*
X175228685Y-123093533D01*
X175164429Y-123164429D01*
X175093533Y-123228685D01*
X175016681Y-123285683D01*
X174934612Y-123334873D01*
X174848116Y-123375783D01*
X174758028Y-123408017D01*
X174665213Y-123431266D01*
X174570567Y-123445305D01*
X174475000Y-123450000D01*
X172525000Y-123450000D01*
X172429433Y-123445305D01*
X172334787Y-123431266D01*
X172241972Y-123408017D01*
X172151884Y-123375783D01*
X172065388Y-123334873D01*
X171983319Y-123285683D01*
X171906467Y-123228685D01*
X171835571Y-123164429D01*
X171771315Y-123093533D01*
X171714317Y-123016681D01*
X171665127Y-122934612D01*
X171624217Y-122848116D01*
X171591983Y-122758028D01*
X171568734Y-122665213D01*
X171554695Y-122570567D01*
X171550000Y-122475000D01*
X171550000Y-119525000D01*
X171554695Y-119429433D01*
X171568734Y-119334787D01*
X171591983Y-119241972D01*
X171624217Y-119151884D01*
X171665127Y-119065388D01*
X171714317Y-118983319D01*
X171771315Y-118906467D01*
X171835571Y-118835571D01*
X171906467Y-118771315D01*
X171983319Y-118714317D01*
X172065388Y-118665127D01*
X172151884Y-118624217D01*
X172241972Y-118591983D01*
X172334787Y-118568734D01*
X172429433Y-118554695D01*
X172525000Y-118550000D01*
X174475000Y-118550000D01*
X174570567Y-118554695D01*
X174570567Y-118554695D01*
G37*
D13*
X173500000Y-121000000D03*
D11*
G36*
X147433315Y-120504093D02*
X147515827Y-120516333D01*
X147596742Y-120536601D01*
X147675281Y-120564702D01*
X147750687Y-120600367D01*
X147822235Y-120643251D01*
X147889234Y-120692941D01*
X147951041Y-120748959D01*
X148007059Y-120810766D01*
X148056749Y-120877765D01*
X148099633Y-120949313D01*
X148135298Y-121024719D01*
X148163399Y-121103258D01*
X148183667Y-121184173D01*
X148195907Y-121266685D01*
X148200000Y-121350000D01*
X148200000Y-124050000D01*
X148195907Y-124133315D01*
X148183667Y-124215827D01*
X148163399Y-124296742D01*
X148135298Y-124375281D01*
X148099633Y-124450687D01*
X148056749Y-124522235D01*
X148007059Y-124589234D01*
X147951041Y-124651041D01*
X147889234Y-124707059D01*
X147822235Y-124756749D01*
X147750687Y-124799633D01*
X147675281Y-124835298D01*
X147596742Y-124863399D01*
X147515827Y-124883667D01*
X147433315Y-124895907D01*
X147350000Y-124900000D01*
X145650000Y-124900000D01*
X145566685Y-124895907D01*
X145484173Y-124883667D01*
X145403258Y-124863399D01*
X145324719Y-124835298D01*
X145249313Y-124799633D01*
X145177765Y-124756749D01*
X145110766Y-124707059D01*
X145048959Y-124651041D01*
X144992941Y-124589234D01*
X144943251Y-124522235D01*
X144900367Y-124450687D01*
X144864702Y-124375281D01*
X144836601Y-124296742D01*
X144816333Y-124215827D01*
X144804093Y-124133315D01*
X144800000Y-124050000D01*
X144800000Y-121350000D01*
X144804093Y-121266685D01*
X144816333Y-121184173D01*
X144836601Y-121103258D01*
X144864702Y-121024719D01*
X144900367Y-120949313D01*
X144943251Y-120877765D01*
X144992941Y-120810766D01*
X145048959Y-120748959D01*
X145110766Y-120692941D01*
X145177765Y-120643251D01*
X145249313Y-120600367D01*
X145324719Y-120564702D01*
X145403258Y-120536601D01*
X145484173Y-120516333D01*
X145566685Y-120504093D01*
X145650000Y-120500000D01*
X147350000Y-120500000D01*
X147433315Y-120504093D01*
X147433315Y-120504093D01*
G37*
D14*
X146500000Y-122700000D03*
D11*
G36*
X147433315Y-105104093D02*
X147515827Y-105116333D01*
X147596742Y-105136601D01*
X147675281Y-105164702D01*
X147750687Y-105200367D01*
X147822235Y-105243251D01*
X147889234Y-105292941D01*
X147951041Y-105348959D01*
X148007059Y-105410766D01*
X148056749Y-105477765D01*
X148099633Y-105549313D01*
X148135298Y-105624719D01*
X148163399Y-105703258D01*
X148183667Y-105784173D01*
X148195907Y-105866685D01*
X148200000Y-105950000D01*
X148200000Y-108650000D01*
X148195907Y-108733315D01*
X148183667Y-108815827D01*
X148163399Y-108896742D01*
X148135298Y-108975281D01*
X148099633Y-109050687D01*
X148056749Y-109122235D01*
X148007059Y-109189234D01*
X147951041Y-109251041D01*
X147889234Y-109307059D01*
X147822235Y-109356749D01*
X147750687Y-109399633D01*
X147675281Y-109435298D01*
X147596742Y-109463399D01*
X147515827Y-109483667D01*
X147433315Y-109495907D01*
X147350000Y-109500000D01*
X145650000Y-109500000D01*
X145566685Y-109495907D01*
X145484173Y-109483667D01*
X145403258Y-109463399D01*
X145324719Y-109435298D01*
X145249313Y-109399633D01*
X145177765Y-109356749D01*
X145110766Y-109307059D01*
X145048959Y-109251041D01*
X144992941Y-109189234D01*
X144943251Y-109122235D01*
X144900367Y-109050687D01*
X144864702Y-108975281D01*
X144836601Y-108896742D01*
X144816333Y-108815827D01*
X144804093Y-108733315D01*
X144800000Y-108650000D01*
X144800000Y-105950000D01*
X144804093Y-105866685D01*
X144816333Y-105784173D01*
X144836601Y-105703258D01*
X144864702Y-105624719D01*
X144900367Y-105549313D01*
X144943251Y-105477765D01*
X144992941Y-105410766D01*
X145048959Y-105348959D01*
X145110766Y-105292941D01*
X145177765Y-105243251D01*
X145249313Y-105200367D01*
X145324719Y-105164702D01*
X145403258Y-105136601D01*
X145484173Y-105116333D01*
X145566685Y-105104093D01*
X145650000Y-105100000D01*
X147350000Y-105100000D01*
X147433315Y-105104093D01*
X147433315Y-105104093D01*
G37*
D14*
X146500000Y-107300000D03*
G04 #@! TD*
D11*
G04 #@! TO.C,ESC3*
G36*
X139133315Y-129804093D02*
X139215827Y-129816333D01*
X139296742Y-129836601D01*
X139375281Y-129864702D01*
X139450687Y-129900367D01*
X139522235Y-129943251D01*
X139589234Y-129992941D01*
X139651041Y-130048959D01*
X139707059Y-130110766D01*
X139756749Y-130177765D01*
X139799633Y-130249313D01*
X139835298Y-130324719D01*
X139863399Y-130403258D01*
X139883667Y-130484173D01*
X139895907Y-130566685D01*
X139900000Y-130650000D01*
X139900000Y-132350000D01*
X139895907Y-132433315D01*
X139883667Y-132515827D01*
X139863399Y-132596742D01*
X139835298Y-132675281D01*
X139799633Y-132750687D01*
X139756749Y-132822235D01*
X139707059Y-132889234D01*
X139651041Y-132951041D01*
X139589234Y-133007059D01*
X139522235Y-133056749D01*
X139450687Y-133099633D01*
X139375281Y-133135298D01*
X139296742Y-133163399D01*
X139215827Y-133183667D01*
X139133315Y-133195907D01*
X139050000Y-133200000D01*
X136350000Y-133200000D01*
X136266685Y-133195907D01*
X136184173Y-133183667D01*
X136103258Y-133163399D01*
X136024719Y-133135298D01*
X135949313Y-133099633D01*
X135877765Y-133056749D01*
X135810766Y-133007059D01*
X135748959Y-132951041D01*
X135692941Y-132889234D01*
X135643251Y-132822235D01*
X135600367Y-132750687D01*
X135564702Y-132675281D01*
X135536601Y-132596742D01*
X135516333Y-132515827D01*
X135504093Y-132433315D01*
X135500000Y-132350000D01*
X135500000Y-130650000D01*
X135504093Y-130566685D01*
X135516333Y-130484173D01*
X135536601Y-130403258D01*
X135564702Y-130324719D01*
X135600367Y-130249313D01*
X135643251Y-130177765D01*
X135692941Y-130110766D01*
X135748959Y-130048959D01*
X135810766Y-129992941D01*
X135877765Y-129943251D01*
X135949313Y-129900367D01*
X136024719Y-129864702D01*
X136103258Y-129836601D01*
X136184173Y-129816333D01*
X136266685Y-129804093D01*
X136350000Y-129800000D01*
X139050000Y-129800000D01*
X139133315Y-129804093D01*
X139133315Y-129804093D01*
G37*
D14*
X137700000Y-131500000D03*
D11*
G36*
X123733315Y-129804093D02*
X123815827Y-129816333D01*
X123896742Y-129836601D01*
X123975281Y-129864702D01*
X124050687Y-129900367D01*
X124122235Y-129943251D01*
X124189234Y-129992941D01*
X124251041Y-130048959D01*
X124307059Y-130110766D01*
X124356749Y-130177765D01*
X124399633Y-130249313D01*
X124435298Y-130324719D01*
X124463399Y-130403258D01*
X124483667Y-130484173D01*
X124495907Y-130566685D01*
X124500000Y-130650000D01*
X124500000Y-132350000D01*
X124495907Y-132433315D01*
X124483667Y-132515827D01*
X124463399Y-132596742D01*
X124435298Y-132675281D01*
X124399633Y-132750687D01*
X124356749Y-132822235D01*
X124307059Y-132889234D01*
X124251041Y-132951041D01*
X124189234Y-133007059D01*
X124122235Y-133056749D01*
X124050687Y-133099633D01*
X123975281Y-133135298D01*
X123896742Y-133163399D01*
X123815827Y-133183667D01*
X123733315Y-133195907D01*
X123650000Y-133200000D01*
X120950000Y-133200000D01*
X120866685Y-133195907D01*
X120784173Y-133183667D01*
X120703258Y-133163399D01*
X120624719Y-133135298D01*
X120549313Y-133099633D01*
X120477765Y-133056749D01*
X120410766Y-133007059D01*
X120348959Y-132951041D01*
X120292941Y-132889234D01*
X120243251Y-132822235D01*
X120200367Y-132750687D01*
X120164702Y-132675281D01*
X120136601Y-132596742D01*
X120116333Y-132515827D01*
X120104093Y-132433315D01*
X120100000Y-132350000D01*
X120100000Y-130650000D01*
X120104093Y-130566685D01*
X120116333Y-130484173D01*
X120136601Y-130403258D01*
X120164702Y-130324719D01*
X120200367Y-130249313D01*
X120243251Y-130177765D01*
X120292941Y-130110766D01*
X120348959Y-130048959D01*
X120410766Y-129992941D01*
X120477765Y-129943251D01*
X120549313Y-129900367D01*
X120624719Y-129864702D01*
X120703258Y-129836601D01*
X120784173Y-129816333D01*
X120866685Y-129804093D01*
X120950000Y-129800000D01*
X123650000Y-129800000D01*
X123733315Y-129804093D01*
X123733315Y-129804093D01*
G37*
D14*
X122300000Y-131500000D03*
D11*
G36*
X125570567Y-156554695D02*
X125665213Y-156568734D01*
X125758028Y-156591983D01*
X125848116Y-156624217D01*
X125934612Y-156665127D01*
X126016681Y-156714317D01*
X126093533Y-156771315D01*
X126164429Y-156835571D01*
X126228685Y-156906467D01*
X126285683Y-156983319D01*
X126334873Y-157065388D01*
X126375783Y-157151884D01*
X126408017Y-157241972D01*
X126431266Y-157334787D01*
X126445305Y-157429433D01*
X126450000Y-157525000D01*
X126450000Y-159475000D01*
X126445305Y-159570567D01*
X126431266Y-159665213D01*
X126408017Y-159758028D01*
X126375783Y-159848116D01*
X126334873Y-159934612D01*
X126285683Y-160016681D01*
X126228685Y-160093533D01*
X126164429Y-160164429D01*
X126093533Y-160228685D01*
X126016681Y-160285683D01*
X125934612Y-160334873D01*
X125848116Y-160375783D01*
X125758028Y-160408017D01*
X125665213Y-160431266D01*
X125570567Y-160445305D01*
X125475000Y-160450000D01*
X122525000Y-160450000D01*
X122429433Y-160445305D01*
X122334787Y-160431266D01*
X122241972Y-160408017D01*
X122151884Y-160375783D01*
X122065388Y-160334873D01*
X121983319Y-160285683D01*
X121906467Y-160228685D01*
X121835571Y-160164429D01*
X121771315Y-160093533D01*
X121714317Y-160016681D01*
X121665127Y-159934612D01*
X121624217Y-159848116D01*
X121591983Y-159758028D01*
X121568734Y-159665213D01*
X121554695Y-159570567D01*
X121550000Y-159475000D01*
X121550000Y-157525000D01*
X121554695Y-157429433D01*
X121568734Y-157334787D01*
X121591983Y-157241972D01*
X121624217Y-157151884D01*
X121665127Y-157065388D01*
X121714317Y-156983319D01*
X121771315Y-156906467D01*
X121835571Y-156835571D01*
X121906467Y-156771315D01*
X121983319Y-156714317D01*
X122065388Y-156665127D01*
X122151884Y-156624217D01*
X122241972Y-156591983D01*
X122334787Y-156568734D01*
X122429433Y-156554695D01*
X122525000Y-156550000D01*
X125475000Y-156550000D01*
X125570567Y-156554695D01*
X125570567Y-156554695D01*
G37*
D13*
X124000000Y-158500000D03*
D11*
G36*
X137570567Y-156554695D02*
X137665213Y-156568734D01*
X137758028Y-156591983D01*
X137848116Y-156624217D01*
X137934612Y-156665127D01*
X138016681Y-156714317D01*
X138093533Y-156771315D01*
X138164429Y-156835571D01*
X138228685Y-156906467D01*
X138285683Y-156983319D01*
X138334873Y-157065388D01*
X138375783Y-157151884D01*
X138408017Y-157241972D01*
X138431266Y-157334787D01*
X138445305Y-157429433D01*
X138450000Y-157525000D01*
X138450000Y-159475000D01*
X138445305Y-159570567D01*
X138431266Y-159665213D01*
X138408017Y-159758028D01*
X138375783Y-159848116D01*
X138334873Y-159934612D01*
X138285683Y-160016681D01*
X138228685Y-160093533D01*
X138164429Y-160164429D01*
X138093533Y-160228685D01*
X138016681Y-160285683D01*
X137934612Y-160334873D01*
X137848116Y-160375783D01*
X137758028Y-160408017D01*
X137665213Y-160431266D01*
X137570567Y-160445305D01*
X137475000Y-160450000D01*
X134525000Y-160450000D01*
X134429433Y-160445305D01*
X134334787Y-160431266D01*
X134241972Y-160408017D01*
X134151884Y-160375783D01*
X134065388Y-160334873D01*
X133983319Y-160285683D01*
X133906467Y-160228685D01*
X133835571Y-160164429D01*
X133771315Y-160093533D01*
X133714317Y-160016681D01*
X133665127Y-159934612D01*
X133624217Y-159848116D01*
X133591983Y-159758028D01*
X133568734Y-159665213D01*
X133554695Y-159570567D01*
X133550000Y-159475000D01*
X133550000Y-157525000D01*
X133554695Y-157429433D01*
X133568734Y-157334787D01*
X133591983Y-157241972D01*
X133624217Y-157151884D01*
X133665127Y-157065388D01*
X133714317Y-156983319D01*
X133771315Y-156906467D01*
X133835571Y-156835571D01*
X133906467Y-156771315D01*
X133983319Y-156714317D01*
X134065388Y-156665127D01*
X134151884Y-156624217D01*
X134241972Y-156591983D01*
X134334787Y-156568734D01*
X134429433Y-156554695D01*
X134525000Y-156550000D01*
X137475000Y-156550000D01*
X137570567Y-156554695D01*
X137570567Y-156554695D01*
G37*
D13*
X136000000Y-158500000D03*
D11*
G36*
X131570567Y-156554695D02*
X131665213Y-156568734D01*
X131758028Y-156591983D01*
X131848116Y-156624217D01*
X131934612Y-156665127D01*
X132016681Y-156714317D01*
X132093533Y-156771315D01*
X132164429Y-156835571D01*
X132228685Y-156906467D01*
X132285683Y-156983319D01*
X132334873Y-157065388D01*
X132375783Y-157151884D01*
X132408017Y-157241972D01*
X132431266Y-157334787D01*
X132445305Y-157429433D01*
X132450000Y-157525000D01*
X132450000Y-159475000D01*
X132445305Y-159570567D01*
X132431266Y-159665213D01*
X132408017Y-159758028D01*
X132375783Y-159848116D01*
X132334873Y-159934612D01*
X132285683Y-160016681D01*
X132228685Y-160093533D01*
X132164429Y-160164429D01*
X132093533Y-160228685D01*
X132016681Y-160285683D01*
X131934612Y-160334873D01*
X131848116Y-160375783D01*
X131758028Y-160408017D01*
X131665213Y-160431266D01*
X131570567Y-160445305D01*
X131475000Y-160450000D01*
X128525000Y-160450000D01*
X128429433Y-160445305D01*
X128334787Y-160431266D01*
X128241972Y-160408017D01*
X128151884Y-160375783D01*
X128065388Y-160334873D01*
X127983319Y-160285683D01*
X127906467Y-160228685D01*
X127835571Y-160164429D01*
X127771315Y-160093533D01*
X127714317Y-160016681D01*
X127665127Y-159934612D01*
X127624217Y-159848116D01*
X127591983Y-159758028D01*
X127568734Y-159665213D01*
X127554695Y-159570567D01*
X127550000Y-159475000D01*
X127550000Y-157525000D01*
X127554695Y-157429433D01*
X127568734Y-157334787D01*
X127591983Y-157241972D01*
X127624217Y-157151884D01*
X127665127Y-157065388D01*
X127714317Y-156983319D01*
X127771315Y-156906467D01*
X127835571Y-156835571D01*
X127906467Y-156771315D01*
X127983319Y-156714317D01*
X128065388Y-156665127D01*
X128151884Y-156624217D01*
X128241972Y-156591983D01*
X128334787Y-156568734D01*
X128429433Y-156554695D01*
X128525000Y-156550000D01*
X131475000Y-156550000D01*
X131570567Y-156554695D01*
X131570567Y-156554695D01*
G37*
D13*
X130000000Y-158500000D03*
D11*
G36*
X127021558Y-129802287D02*
X127067668Y-129809127D01*
X127112885Y-129820453D01*
X127156775Y-129836157D01*
X127198913Y-129856087D01*
X127238896Y-129880052D01*
X127276337Y-129907820D01*
X127310876Y-129939124D01*
X127342180Y-129973663D01*
X127369948Y-130011104D01*
X127393913Y-130051087D01*
X127413843Y-130093225D01*
X127429547Y-130137115D01*
X127440873Y-130182332D01*
X127447713Y-130228442D01*
X127450000Y-130275000D01*
X127450000Y-132125000D01*
X127447713Y-132171558D01*
X127440873Y-132217668D01*
X127429547Y-132262885D01*
X127413843Y-132306775D01*
X127393913Y-132348913D01*
X127369948Y-132388896D01*
X127342180Y-132426337D01*
X127310876Y-132460876D01*
X127276337Y-132492180D01*
X127238896Y-132519948D01*
X127198913Y-132543913D01*
X127156775Y-132563843D01*
X127112885Y-132579547D01*
X127067668Y-132590873D01*
X127021558Y-132597713D01*
X126975000Y-132600000D01*
X126025000Y-132600000D01*
X125978442Y-132597713D01*
X125932332Y-132590873D01*
X125887115Y-132579547D01*
X125843225Y-132563843D01*
X125801087Y-132543913D01*
X125761104Y-132519948D01*
X125723663Y-132492180D01*
X125689124Y-132460876D01*
X125657820Y-132426337D01*
X125630052Y-132388896D01*
X125606087Y-132348913D01*
X125586157Y-132306775D01*
X125570453Y-132262885D01*
X125559127Y-132217668D01*
X125552287Y-132171558D01*
X125550000Y-132125000D01*
X125550000Y-130275000D01*
X125552287Y-130228442D01*
X125559127Y-130182332D01*
X125570453Y-130137115D01*
X125586157Y-130093225D01*
X125606087Y-130051087D01*
X125630052Y-130011104D01*
X125657820Y-129973663D01*
X125689124Y-129939124D01*
X125723663Y-129907820D01*
X125761104Y-129880052D01*
X125801087Y-129856087D01*
X125843225Y-129836157D01*
X125887115Y-129820453D01*
X125932332Y-129809127D01*
X125978442Y-129802287D01*
X126025000Y-129800000D01*
X126975000Y-129800000D01*
X127021558Y-129802287D01*
X127021558Y-129802287D01*
G37*
D12*
X126500000Y-131200000D03*
D11*
G36*
X129421558Y-129802287D02*
X129467668Y-129809127D01*
X129512885Y-129820453D01*
X129556775Y-129836157D01*
X129598913Y-129856087D01*
X129638896Y-129880052D01*
X129676337Y-129907820D01*
X129710876Y-129939124D01*
X129742180Y-129973663D01*
X129769948Y-130011104D01*
X129793913Y-130051087D01*
X129813843Y-130093225D01*
X129829547Y-130137115D01*
X129840873Y-130182332D01*
X129847713Y-130228442D01*
X129850000Y-130275000D01*
X129850000Y-132125000D01*
X129847713Y-132171558D01*
X129840873Y-132217668D01*
X129829547Y-132262885D01*
X129813843Y-132306775D01*
X129793913Y-132348913D01*
X129769948Y-132388896D01*
X129742180Y-132426337D01*
X129710876Y-132460876D01*
X129676337Y-132492180D01*
X129638896Y-132519948D01*
X129598913Y-132543913D01*
X129556775Y-132563843D01*
X129512885Y-132579547D01*
X129467668Y-132590873D01*
X129421558Y-132597713D01*
X129375000Y-132600000D01*
X128425000Y-132600000D01*
X128378442Y-132597713D01*
X128332332Y-132590873D01*
X128287115Y-132579547D01*
X128243225Y-132563843D01*
X128201087Y-132543913D01*
X128161104Y-132519948D01*
X128123663Y-132492180D01*
X128089124Y-132460876D01*
X128057820Y-132426337D01*
X128030052Y-132388896D01*
X128006087Y-132348913D01*
X127986157Y-132306775D01*
X127970453Y-132262885D01*
X127959127Y-132217668D01*
X127952287Y-132171558D01*
X127950000Y-132125000D01*
X127950000Y-130275000D01*
X127952287Y-130228442D01*
X127959127Y-130182332D01*
X127970453Y-130137115D01*
X127986157Y-130093225D01*
X128006087Y-130051087D01*
X128030052Y-130011104D01*
X128057820Y-129973663D01*
X128089124Y-129939124D01*
X128123663Y-129907820D01*
X128161104Y-129880052D01*
X128201087Y-129856087D01*
X128243225Y-129836157D01*
X128287115Y-129820453D01*
X128332332Y-129809127D01*
X128378442Y-129802287D01*
X128425000Y-129800000D01*
X129375000Y-129800000D01*
X129421558Y-129802287D01*
X129421558Y-129802287D01*
G37*
D12*
X128900000Y-131200000D03*
G04 #@! TD*
D11*
G04 #@! TO.C,ESC2*
G36*
X114771558Y-112952287D02*
X114817668Y-112959127D01*
X114862885Y-112970453D01*
X114906775Y-112986157D01*
X114948913Y-113006087D01*
X114988896Y-113030052D01*
X115026337Y-113057820D01*
X115060876Y-113089124D01*
X115092180Y-113123663D01*
X115119948Y-113161104D01*
X115143913Y-113201087D01*
X115163843Y-113243225D01*
X115179547Y-113287115D01*
X115190873Y-113332332D01*
X115197713Y-113378442D01*
X115200000Y-113425000D01*
X115200000Y-114375000D01*
X115197713Y-114421558D01*
X115190873Y-114467668D01*
X115179547Y-114512885D01*
X115163843Y-114556775D01*
X115143913Y-114598913D01*
X115119948Y-114638896D01*
X115092180Y-114676337D01*
X115060876Y-114710876D01*
X115026337Y-114742180D01*
X114988896Y-114769948D01*
X114948913Y-114793913D01*
X114906775Y-114813843D01*
X114862885Y-114829547D01*
X114817668Y-114840873D01*
X114771558Y-114847713D01*
X114725000Y-114850000D01*
X112875000Y-114850000D01*
X112828442Y-114847713D01*
X112782332Y-114840873D01*
X112737115Y-114829547D01*
X112693225Y-114813843D01*
X112651087Y-114793913D01*
X112611104Y-114769948D01*
X112573663Y-114742180D01*
X112539124Y-114710876D01*
X112507820Y-114676337D01*
X112480052Y-114638896D01*
X112456087Y-114598913D01*
X112436157Y-114556775D01*
X112420453Y-114512885D01*
X112409127Y-114467668D01*
X112402287Y-114421558D01*
X112400000Y-114375000D01*
X112400000Y-113425000D01*
X112402287Y-113378442D01*
X112409127Y-113332332D01*
X112420453Y-113287115D01*
X112436157Y-113243225D01*
X112456087Y-113201087D01*
X112480052Y-113161104D01*
X112507820Y-113123663D01*
X112539124Y-113089124D01*
X112573663Y-113057820D01*
X112611104Y-113030052D01*
X112651087Y-113006087D01*
X112693225Y-112986157D01*
X112737115Y-112970453D01*
X112782332Y-112959127D01*
X112828442Y-112952287D01*
X112875000Y-112950000D01*
X114725000Y-112950000D01*
X114771558Y-112952287D01*
X114771558Y-112952287D01*
G37*
D12*
X113800000Y-113900000D03*
D11*
G36*
X114771558Y-110552287D02*
X114817668Y-110559127D01*
X114862885Y-110570453D01*
X114906775Y-110586157D01*
X114948913Y-110606087D01*
X114988896Y-110630052D01*
X115026337Y-110657820D01*
X115060876Y-110689124D01*
X115092180Y-110723663D01*
X115119948Y-110761104D01*
X115143913Y-110801087D01*
X115163843Y-110843225D01*
X115179547Y-110887115D01*
X115190873Y-110932332D01*
X115197713Y-110978442D01*
X115200000Y-111025000D01*
X115200000Y-111975000D01*
X115197713Y-112021558D01*
X115190873Y-112067668D01*
X115179547Y-112112885D01*
X115163843Y-112156775D01*
X115143913Y-112198913D01*
X115119948Y-112238896D01*
X115092180Y-112276337D01*
X115060876Y-112310876D01*
X115026337Y-112342180D01*
X114988896Y-112369948D01*
X114948913Y-112393913D01*
X114906775Y-112413843D01*
X114862885Y-112429547D01*
X114817668Y-112440873D01*
X114771558Y-112447713D01*
X114725000Y-112450000D01*
X112875000Y-112450000D01*
X112828442Y-112447713D01*
X112782332Y-112440873D01*
X112737115Y-112429547D01*
X112693225Y-112413843D01*
X112651087Y-112393913D01*
X112611104Y-112369948D01*
X112573663Y-112342180D01*
X112539124Y-112310876D01*
X112507820Y-112276337D01*
X112480052Y-112238896D01*
X112456087Y-112198913D01*
X112436157Y-112156775D01*
X112420453Y-112112885D01*
X112409127Y-112067668D01*
X112402287Y-112021558D01*
X112400000Y-111975000D01*
X112400000Y-111025000D01*
X112402287Y-110978442D01*
X112409127Y-110932332D01*
X112420453Y-110887115D01*
X112436157Y-110843225D01*
X112456087Y-110801087D01*
X112480052Y-110761104D01*
X112507820Y-110723663D01*
X112539124Y-110689124D01*
X112573663Y-110657820D01*
X112611104Y-110630052D01*
X112651087Y-110606087D01*
X112693225Y-110586157D01*
X112737115Y-110570453D01*
X112782332Y-110559127D01*
X112828442Y-110552287D01*
X112875000Y-110550000D01*
X114725000Y-110550000D01*
X114771558Y-110552287D01*
X114771558Y-110552287D01*
G37*
D12*
X113800000Y-111500000D03*
D11*
G36*
X87570567Y-112554695D02*
X87665213Y-112568734D01*
X87758028Y-112591983D01*
X87848116Y-112624217D01*
X87934612Y-112665127D01*
X88016681Y-112714317D01*
X88093533Y-112771315D01*
X88164429Y-112835571D01*
X88228685Y-112906467D01*
X88285683Y-112983319D01*
X88334873Y-113065388D01*
X88375783Y-113151884D01*
X88408017Y-113241972D01*
X88431266Y-113334787D01*
X88445305Y-113429433D01*
X88450000Y-113525000D01*
X88450000Y-116475000D01*
X88445305Y-116570567D01*
X88431266Y-116665213D01*
X88408017Y-116758028D01*
X88375783Y-116848116D01*
X88334873Y-116934612D01*
X88285683Y-117016681D01*
X88228685Y-117093533D01*
X88164429Y-117164429D01*
X88093533Y-117228685D01*
X88016681Y-117285683D01*
X87934612Y-117334873D01*
X87848116Y-117375783D01*
X87758028Y-117408017D01*
X87665213Y-117431266D01*
X87570567Y-117445305D01*
X87475000Y-117450000D01*
X85525000Y-117450000D01*
X85429433Y-117445305D01*
X85334787Y-117431266D01*
X85241972Y-117408017D01*
X85151884Y-117375783D01*
X85065388Y-117334873D01*
X84983319Y-117285683D01*
X84906467Y-117228685D01*
X84835571Y-117164429D01*
X84771315Y-117093533D01*
X84714317Y-117016681D01*
X84665127Y-116934612D01*
X84624217Y-116848116D01*
X84591983Y-116758028D01*
X84568734Y-116665213D01*
X84554695Y-116570567D01*
X84550000Y-116475000D01*
X84550000Y-113525000D01*
X84554695Y-113429433D01*
X84568734Y-113334787D01*
X84591983Y-113241972D01*
X84624217Y-113151884D01*
X84665127Y-113065388D01*
X84714317Y-112983319D01*
X84771315Y-112906467D01*
X84835571Y-112835571D01*
X84906467Y-112771315D01*
X84983319Y-112714317D01*
X85065388Y-112665127D01*
X85151884Y-112624217D01*
X85241972Y-112591983D01*
X85334787Y-112568734D01*
X85429433Y-112554695D01*
X85525000Y-112550000D01*
X87475000Y-112550000D01*
X87570567Y-112554695D01*
X87570567Y-112554695D01*
G37*
D13*
X86500000Y-115000000D03*
D11*
G36*
X87570567Y-118554695D02*
X87665213Y-118568734D01*
X87758028Y-118591983D01*
X87848116Y-118624217D01*
X87934612Y-118665127D01*
X88016681Y-118714317D01*
X88093533Y-118771315D01*
X88164429Y-118835571D01*
X88228685Y-118906467D01*
X88285683Y-118983319D01*
X88334873Y-119065388D01*
X88375783Y-119151884D01*
X88408017Y-119241972D01*
X88431266Y-119334787D01*
X88445305Y-119429433D01*
X88450000Y-119525000D01*
X88450000Y-122475000D01*
X88445305Y-122570567D01*
X88431266Y-122665213D01*
X88408017Y-122758028D01*
X88375783Y-122848116D01*
X88334873Y-122934612D01*
X88285683Y-123016681D01*
X88228685Y-123093533D01*
X88164429Y-123164429D01*
X88093533Y-123228685D01*
X88016681Y-123285683D01*
X87934612Y-123334873D01*
X87848116Y-123375783D01*
X87758028Y-123408017D01*
X87665213Y-123431266D01*
X87570567Y-123445305D01*
X87475000Y-123450000D01*
X85525000Y-123450000D01*
X85429433Y-123445305D01*
X85334787Y-123431266D01*
X85241972Y-123408017D01*
X85151884Y-123375783D01*
X85065388Y-123334873D01*
X84983319Y-123285683D01*
X84906467Y-123228685D01*
X84835571Y-123164429D01*
X84771315Y-123093533D01*
X84714317Y-123016681D01*
X84665127Y-122934612D01*
X84624217Y-122848116D01*
X84591983Y-122758028D01*
X84568734Y-122665213D01*
X84554695Y-122570567D01*
X84550000Y-122475000D01*
X84550000Y-119525000D01*
X84554695Y-119429433D01*
X84568734Y-119334787D01*
X84591983Y-119241972D01*
X84624217Y-119151884D01*
X84665127Y-119065388D01*
X84714317Y-118983319D01*
X84771315Y-118906467D01*
X84835571Y-118835571D01*
X84906467Y-118771315D01*
X84983319Y-118714317D01*
X85065388Y-118665127D01*
X85151884Y-118624217D01*
X85241972Y-118591983D01*
X85334787Y-118568734D01*
X85429433Y-118554695D01*
X85525000Y-118550000D01*
X87475000Y-118550000D01*
X87570567Y-118554695D01*
X87570567Y-118554695D01*
G37*
D13*
X86500000Y-121000000D03*
D11*
G36*
X87570567Y-106554695D02*
X87665213Y-106568734D01*
X87758028Y-106591983D01*
X87848116Y-106624217D01*
X87934612Y-106665127D01*
X88016681Y-106714317D01*
X88093533Y-106771315D01*
X88164429Y-106835571D01*
X88228685Y-106906467D01*
X88285683Y-106983319D01*
X88334873Y-107065388D01*
X88375783Y-107151884D01*
X88408017Y-107241972D01*
X88431266Y-107334787D01*
X88445305Y-107429433D01*
X88450000Y-107525000D01*
X88450000Y-110475000D01*
X88445305Y-110570567D01*
X88431266Y-110665213D01*
X88408017Y-110758028D01*
X88375783Y-110848116D01*
X88334873Y-110934612D01*
X88285683Y-111016681D01*
X88228685Y-111093533D01*
X88164429Y-111164429D01*
X88093533Y-111228685D01*
X88016681Y-111285683D01*
X87934612Y-111334873D01*
X87848116Y-111375783D01*
X87758028Y-111408017D01*
X87665213Y-111431266D01*
X87570567Y-111445305D01*
X87475000Y-111450000D01*
X85525000Y-111450000D01*
X85429433Y-111445305D01*
X85334787Y-111431266D01*
X85241972Y-111408017D01*
X85151884Y-111375783D01*
X85065388Y-111334873D01*
X84983319Y-111285683D01*
X84906467Y-111228685D01*
X84835571Y-111164429D01*
X84771315Y-111093533D01*
X84714317Y-111016681D01*
X84665127Y-110934612D01*
X84624217Y-110848116D01*
X84591983Y-110758028D01*
X84568734Y-110665213D01*
X84554695Y-110570567D01*
X84550000Y-110475000D01*
X84550000Y-107525000D01*
X84554695Y-107429433D01*
X84568734Y-107334787D01*
X84591983Y-107241972D01*
X84624217Y-107151884D01*
X84665127Y-107065388D01*
X84714317Y-106983319D01*
X84771315Y-106906467D01*
X84835571Y-106835571D01*
X84906467Y-106771315D01*
X84983319Y-106714317D01*
X85065388Y-106665127D01*
X85151884Y-106624217D01*
X85241972Y-106591983D01*
X85334787Y-106568734D01*
X85429433Y-106554695D01*
X85525000Y-106550000D01*
X87475000Y-106550000D01*
X87570567Y-106554695D01*
X87570567Y-106554695D01*
G37*
D13*
X86500000Y-109000000D03*
D11*
G36*
X114433315Y-105104093D02*
X114515827Y-105116333D01*
X114596742Y-105136601D01*
X114675281Y-105164702D01*
X114750687Y-105200367D01*
X114822235Y-105243251D01*
X114889234Y-105292941D01*
X114951041Y-105348959D01*
X115007059Y-105410766D01*
X115056749Y-105477765D01*
X115099633Y-105549313D01*
X115135298Y-105624719D01*
X115163399Y-105703258D01*
X115183667Y-105784173D01*
X115195907Y-105866685D01*
X115200000Y-105950000D01*
X115200000Y-108650000D01*
X115195907Y-108733315D01*
X115183667Y-108815827D01*
X115163399Y-108896742D01*
X115135298Y-108975281D01*
X115099633Y-109050687D01*
X115056749Y-109122235D01*
X115007059Y-109189234D01*
X114951041Y-109251041D01*
X114889234Y-109307059D01*
X114822235Y-109356749D01*
X114750687Y-109399633D01*
X114675281Y-109435298D01*
X114596742Y-109463399D01*
X114515827Y-109483667D01*
X114433315Y-109495907D01*
X114350000Y-109500000D01*
X112650000Y-109500000D01*
X112566685Y-109495907D01*
X112484173Y-109483667D01*
X112403258Y-109463399D01*
X112324719Y-109435298D01*
X112249313Y-109399633D01*
X112177765Y-109356749D01*
X112110766Y-109307059D01*
X112048959Y-109251041D01*
X111992941Y-109189234D01*
X111943251Y-109122235D01*
X111900367Y-109050687D01*
X111864702Y-108975281D01*
X111836601Y-108896742D01*
X111816333Y-108815827D01*
X111804093Y-108733315D01*
X111800000Y-108650000D01*
X111800000Y-105950000D01*
X111804093Y-105866685D01*
X111816333Y-105784173D01*
X111836601Y-105703258D01*
X111864702Y-105624719D01*
X111900367Y-105549313D01*
X111943251Y-105477765D01*
X111992941Y-105410766D01*
X112048959Y-105348959D01*
X112110766Y-105292941D01*
X112177765Y-105243251D01*
X112249313Y-105200367D01*
X112324719Y-105164702D01*
X112403258Y-105136601D01*
X112484173Y-105116333D01*
X112566685Y-105104093D01*
X112650000Y-105100000D01*
X114350000Y-105100000D01*
X114433315Y-105104093D01*
X114433315Y-105104093D01*
G37*
D14*
X113500000Y-107300000D03*
D11*
G36*
X114433315Y-120504093D02*
X114515827Y-120516333D01*
X114596742Y-120536601D01*
X114675281Y-120564702D01*
X114750687Y-120600367D01*
X114822235Y-120643251D01*
X114889234Y-120692941D01*
X114951041Y-120748959D01*
X115007059Y-120810766D01*
X115056749Y-120877765D01*
X115099633Y-120949313D01*
X115135298Y-121024719D01*
X115163399Y-121103258D01*
X115183667Y-121184173D01*
X115195907Y-121266685D01*
X115200000Y-121350000D01*
X115200000Y-124050000D01*
X115195907Y-124133315D01*
X115183667Y-124215827D01*
X115163399Y-124296742D01*
X115135298Y-124375281D01*
X115099633Y-124450687D01*
X115056749Y-124522235D01*
X115007059Y-124589234D01*
X114951041Y-124651041D01*
X114889234Y-124707059D01*
X114822235Y-124756749D01*
X114750687Y-124799633D01*
X114675281Y-124835298D01*
X114596742Y-124863399D01*
X114515827Y-124883667D01*
X114433315Y-124895907D01*
X114350000Y-124900000D01*
X112650000Y-124900000D01*
X112566685Y-124895907D01*
X112484173Y-124883667D01*
X112403258Y-124863399D01*
X112324719Y-124835298D01*
X112249313Y-124799633D01*
X112177765Y-124756749D01*
X112110766Y-124707059D01*
X112048959Y-124651041D01*
X111992941Y-124589234D01*
X111943251Y-124522235D01*
X111900367Y-124450687D01*
X111864702Y-124375281D01*
X111836601Y-124296742D01*
X111816333Y-124215827D01*
X111804093Y-124133315D01*
X111800000Y-124050000D01*
X111800000Y-121350000D01*
X111804093Y-121266685D01*
X111816333Y-121184173D01*
X111836601Y-121103258D01*
X111864702Y-121024719D01*
X111900367Y-120949313D01*
X111943251Y-120877765D01*
X111992941Y-120810766D01*
X112048959Y-120748959D01*
X112110766Y-120692941D01*
X112177765Y-120643251D01*
X112249313Y-120600367D01*
X112324719Y-120564702D01*
X112403258Y-120536601D01*
X112484173Y-120516333D01*
X112566685Y-120504093D01*
X112650000Y-120500000D01*
X114350000Y-120500000D01*
X114433315Y-120504093D01*
X114433315Y-120504093D01*
G37*
D14*
X113500000Y-122700000D03*
G04 #@! TD*
D11*
G04 #@! TO.C,ESC1*
G36*
X123733315Y-96804093D02*
X123815827Y-96816333D01*
X123896742Y-96836601D01*
X123975281Y-96864702D01*
X124050687Y-96900367D01*
X124122235Y-96943251D01*
X124189234Y-96992941D01*
X124251041Y-97048959D01*
X124307059Y-97110766D01*
X124356749Y-97177765D01*
X124399633Y-97249313D01*
X124435298Y-97324719D01*
X124463399Y-97403258D01*
X124483667Y-97484173D01*
X124495907Y-97566685D01*
X124500000Y-97650000D01*
X124500000Y-99350000D01*
X124495907Y-99433315D01*
X124483667Y-99515827D01*
X124463399Y-99596742D01*
X124435298Y-99675281D01*
X124399633Y-99750687D01*
X124356749Y-99822235D01*
X124307059Y-99889234D01*
X124251041Y-99951041D01*
X124189234Y-100007059D01*
X124122235Y-100056749D01*
X124050687Y-100099633D01*
X123975281Y-100135298D01*
X123896742Y-100163399D01*
X123815827Y-100183667D01*
X123733315Y-100195907D01*
X123650000Y-100200000D01*
X120950000Y-100200000D01*
X120866685Y-100195907D01*
X120784173Y-100183667D01*
X120703258Y-100163399D01*
X120624719Y-100135298D01*
X120549313Y-100099633D01*
X120477765Y-100056749D01*
X120410766Y-100007059D01*
X120348959Y-99951041D01*
X120292941Y-99889234D01*
X120243251Y-99822235D01*
X120200367Y-99750687D01*
X120164702Y-99675281D01*
X120136601Y-99596742D01*
X120116333Y-99515827D01*
X120104093Y-99433315D01*
X120100000Y-99350000D01*
X120100000Y-97650000D01*
X120104093Y-97566685D01*
X120116333Y-97484173D01*
X120136601Y-97403258D01*
X120164702Y-97324719D01*
X120200367Y-97249313D01*
X120243251Y-97177765D01*
X120292941Y-97110766D01*
X120348959Y-97048959D01*
X120410766Y-96992941D01*
X120477765Y-96943251D01*
X120549313Y-96900367D01*
X120624719Y-96864702D01*
X120703258Y-96836601D01*
X120784173Y-96816333D01*
X120866685Y-96804093D01*
X120950000Y-96800000D01*
X123650000Y-96800000D01*
X123733315Y-96804093D01*
X123733315Y-96804093D01*
G37*
D14*
X122300000Y-98500000D03*
D11*
G36*
X139133315Y-96804093D02*
X139215827Y-96816333D01*
X139296742Y-96836601D01*
X139375281Y-96864702D01*
X139450687Y-96900367D01*
X139522235Y-96943251D01*
X139589234Y-96992941D01*
X139651041Y-97048959D01*
X139707059Y-97110766D01*
X139756749Y-97177765D01*
X139799633Y-97249313D01*
X139835298Y-97324719D01*
X139863399Y-97403258D01*
X139883667Y-97484173D01*
X139895907Y-97566685D01*
X139900000Y-97650000D01*
X139900000Y-99350000D01*
X139895907Y-99433315D01*
X139883667Y-99515827D01*
X139863399Y-99596742D01*
X139835298Y-99675281D01*
X139799633Y-99750687D01*
X139756749Y-99822235D01*
X139707059Y-99889234D01*
X139651041Y-99951041D01*
X139589234Y-100007059D01*
X139522235Y-100056749D01*
X139450687Y-100099633D01*
X139375281Y-100135298D01*
X139296742Y-100163399D01*
X139215827Y-100183667D01*
X139133315Y-100195907D01*
X139050000Y-100200000D01*
X136350000Y-100200000D01*
X136266685Y-100195907D01*
X136184173Y-100183667D01*
X136103258Y-100163399D01*
X136024719Y-100135298D01*
X135949313Y-100099633D01*
X135877765Y-100056749D01*
X135810766Y-100007059D01*
X135748959Y-99951041D01*
X135692941Y-99889234D01*
X135643251Y-99822235D01*
X135600367Y-99750687D01*
X135564702Y-99675281D01*
X135536601Y-99596742D01*
X135516333Y-99515827D01*
X135504093Y-99433315D01*
X135500000Y-99350000D01*
X135500000Y-97650000D01*
X135504093Y-97566685D01*
X135516333Y-97484173D01*
X135536601Y-97403258D01*
X135564702Y-97324719D01*
X135600367Y-97249313D01*
X135643251Y-97177765D01*
X135692941Y-97110766D01*
X135748959Y-97048959D01*
X135810766Y-96992941D01*
X135877765Y-96943251D01*
X135949313Y-96900367D01*
X136024719Y-96864702D01*
X136103258Y-96836601D01*
X136184173Y-96816333D01*
X136266685Y-96804093D01*
X136350000Y-96800000D01*
X139050000Y-96800000D01*
X139133315Y-96804093D01*
X139133315Y-96804093D01*
G37*
D14*
X137700000Y-98500000D03*
D11*
G36*
X137570567Y-69554695D02*
X137665213Y-69568734D01*
X137758028Y-69591983D01*
X137848116Y-69624217D01*
X137934612Y-69665127D01*
X138016681Y-69714317D01*
X138093533Y-69771315D01*
X138164429Y-69835571D01*
X138228685Y-69906467D01*
X138285683Y-69983319D01*
X138334873Y-70065388D01*
X138375783Y-70151884D01*
X138408017Y-70241972D01*
X138431266Y-70334787D01*
X138445305Y-70429433D01*
X138450000Y-70525000D01*
X138450000Y-72475000D01*
X138445305Y-72570567D01*
X138431266Y-72665213D01*
X138408017Y-72758028D01*
X138375783Y-72848116D01*
X138334873Y-72934612D01*
X138285683Y-73016681D01*
X138228685Y-73093533D01*
X138164429Y-73164429D01*
X138093533Y-73228685D01*
X138016681Y-73285683D01*
X137934612Y-73334873D01*
X137848116Y-73375783D01*
X137758028Y-73408017D01*
X137665213Y-73431266D01*
X137570567Y-73445305D01*
X137475000Y-73450000D01*
X134525000Y-73450000D01*
X134429433Y-73445305D01*
X134334787Y-73431266D01*
X134241972Y-73408017D01*
X134151884Y-73375783D01*
X134065388Y-73334873D01*
X133983319Y-73285683D01*
X133906467Y-73228685D01*
X133835571Y-73164429D01*
X133771315Y-73093533D01*
X133714317Y-73016681D01*
X133665127Y-72934612D01*
X133624217Y-72848116D01*
X133591983Y-72758028D01*
X133568734Y-72665213D01*
X133554695Y-72570567D01*
X133550000Y-72475000D01*
X133550000Y-70525000D01*
X133554695Y-70429433D01*
X133568734Y-70334787D01*
X133591983Y-70241972D01*
X133624217Y-70151884D01*
X133665127Y-70065388D01*
X133714317Y-69983319D01*
X133771315Y-69906467D01*
X133835571Y-69835571D01*
X133906467Y-69771315D01*
X133983319Y-69714317D01*
X134065388Y-69665127D01*
X134151884Y-69624217D01*
X134241972Y-69591983D01*
X134334787Y-69568734D01*
X134429433Y-69554695D01*
X134525000Y-69550000D01*
X137475000Y-69550000D01*
X137570567Y-69554695D01*
X137570567Y-69554695D01*
G37*
D13*
X136000000Y-71500000D03*
D11*
G36*
X125570567Y-69554695D02*
X125665213Y-69568734D01*
X125758028Y-69591983D01*
X125848116Y-69624217D01*
X125934612Y-69665127D01*
X126016681Y-69714317D01*
X126093533Y-69771315D01*
X126164429Y-69835571D01*
X126228685Y-69906467D01*
X126285683Y-69983319D01*
X126334873Y-70065388D01*
X126375783Y-70151884D01*
X126408017Y-70241972D01*
X126431266Y-70334787D01*
X126445305Y-70429433D01*
X126450000Y-70525000D01*
X126450000Y-72475000D01*
X126445305Y-72570567D01*
X126431266Y-72665213D01*
X126408017Y-72758028D01*
X126375783Y-72848116D01*
X126334873Y-72934612D01*
X126285683Y-73016681D01*
X126228685Y-73093533D01*
X126164429Y-73164429D01*
X126093533Y-73228685D01*
X126016681Y-73285683D01*
X125934612Y-73334873D01*
X125848116Y-73375783D01*
X125758028Y-73408017D01*
X125665213Y-73431266D01*
X125570567Y-73445305D01*
X125475000Y-73450000D01*
X122525000Y-73450000D01*
X122429433Y-73445305D01*
X122334787Y-73431266D01*
X122241972Y-73408017D01*
X122151884Y-73375783D01*
X122065388Y-73334873D01*
X121983319Y-73285683D01*
X121906467Y-73228685D01*
X121835571Y-73164429D01*
X121771315Y-73093533D01*
X121714317Y-73016681D01*
X121665127Y-72934612D01*
X121624217Y-72848116D01*
X121591983Y-72758028D01*
X121568734Y-72665213D01*
X121554695Y-72570567D01*
X121550000Y-72475000D01*
X121550000Y-70525000D01*
X121554695Y-70429433D01*
X121568734Y-70334787D01*
X121591983Y-70241972D01*
X121624217Y-70151884D01*
X121665127Y-70065388D01*
X121714317Y-69983319D01*
X121771315Y-69906467D01*
X121835571Y-69835571D01*
X121906467Y-69771315D01*
X121983319Y-69714317D01*
X122065388Y-69665127D01*
X122151884Y-69624217D01*
X122241972Y-69591983D01*
X122334787Y-69568734D01*
X122429433Y-69554695D01*
X122525000Y-69550000D01*
X125475000Y-69550000D01*
X125570567Y-69554695D01*
X125570567Y-69554695D01*
G37*
D13*
X124000000Y-71500000D03*
D11*
G36*
X131570567Y-69554695D02*
X131665213Y-69568734D01*
X131758028Y-69591983D01*
X131848116Y-69624217D01*
X131934612Y-69665127D01*
X132016681Y-69714317D01*
X132093533Y-69771315D01*
X132164429Y-69835571D01*
X132228685Y-69906467D01*
X132285683Y-69983319D01*
X132334873Y-70065388D01*
X132375783Y-70151884D01*
X132408017Y-70241972D01*
X132431266Y-70334787D01*
X132445305Y-70429433D01*
X132450000Y-70525000D01*
X132450000Y-72475000D01*
X132445305Y-72570567D01*
X132431266Y-72665213D01*
X132408017Y-72758028D01*
X132375783Y-72848116D01*
X132334873Y-72934612D01*
X132285683Y-73016681D01*
X132228685Y-73093533D01*
X132164429Y-73164429D01*
X132093533Y-73228685D01*
X132016681Y-73285683D01*
X131934612Y-73334873D01*
X131848116Y-73375783D01*
X131758028Y-73408017D01*
X131665213Y-73431266D01*
X131570567Y-73445305D01*
X131475000Y-73450000D01*
X128525000Y-73450000D01*
X128429433Y-73445305D01*
X128334787Y-73431266D01*
X128241972Y-73408017D01*
X128151884Y-73375783D01*
X128065388Y-73334873D01*
X127983319Y-73285683D01*
X127906467Y-73228685D01*
X127835571Y-73164429D01*
X127771315Y-73093533D01*
X127714317Y-73016681D01*
X127665127Y-72934612D01*
X127624217Y-72848116D01*
X127591983Y-72758028D01*
X127568734Y-72665213D01*
X127554695Y-72570567D01*
X127550000Y-72475000D01*
X127550000Y-70525000D01*
X127554695Y-70429433D01*
X127568734Y-70334787D01*
X127591983Y-70241972D01*
X127624217Y-70151884D01*
X127665127Y-70065388D01*
X127714317Y-69983319D01*
X127771315Y-69906467D01*
X127835571Y-69835571D01*
X127906467Y-69771315D01*
X127983319Y-69714317D01*
X128065388Y-69665127D01*
X128151884Y-69624217D01*
X128241972Y-69591983D01*
X128334787Y-69568734D01*
X128429433Y-69554695D01*
X128525000Y-69550000D01*
X131475000Y-69550000D01*
X131570567Y-69554695D01*
X131570567Y-69554695D01*
G37*
D13*
X130000000Y-71500000D03*
D11*
G36*
X134021558Y-97402287D02*
X134067668Y-97409127D01*
X134112885Y-97420453D01*
X134156775Y-97436157D01*
X134198913Y-97456087D01*
X134238896Y-97480052D01*
X134276337Y-97507820D01*
X134310876Y-97539124D01*
X134342180Y-97573663D01*
X134369948Y-97611104D01*
X134393913Y-97651087D01*
X134413843Y-97693225D01*
X134429547Y-97737115D01*
X134440873Y-97782332D01*
X134447713Y-97828442D01*
X134450000Y-97875000D01*
X134450000Y-99725000D01*
X134447713Y-99771558D01*
X134440873Y-99817668D01*
X134429547Y-99862885D01*
X134413843Y-99906775D01*
X134393913Y-99948913D01*
X134369948Y-99988896D01*
X134342180Y-100026337D01*
X134310876Y-100060876D01*
X134276337Y-100092180D01*
X134238896Y-100119948D01*
X134198913Y-100143913D01*
X134156775Y-100163843D01*
X134112885Y-100179547D01*
X134067668Y-100190873D01*
X134021558Y-100197713D01*
X133975000Y-100200000D01*
X133025000Y-100200000D01*
X132978442Y-100197713D01*
X132932332Y-100190873D01*
X132887115Y-100179547D01*
X132843225Y-100163843D01*
X132801087Y-100143913D01*
X132761104Y-100119948D01*
X132723663Y-100092180D01*
X132689124Y-100060876D01*
X132657820Y-100026337D01*
X132630052Y-99988896D01*
X132606087Y-99948913D01*
X132586157Y-99906775D01*
X132570453Y-99862885D01*
X132559127Y-99817668D01*
X132552287Y-99771558D01*
X132550000Y-99725000D01*
X132550000Y-97875000D01*
X132552287Y-97828442D01*
X132559127Y-97782332D01*
X132570453Y-97737115D01*
X132586157Y-97693225D01*
X132606087Y-97651087D01*
X132630052Y-97611104D01*
X132657820Y-97573663D01*
X132689124Y-97539124D01*
X132723663Y-97507820D01*
X132761104Y-97480052D01*
X132801087Y-97456087D01*
X132843225Y-97436157D01*
X132887115Y-97420453D01*
X132932332Y-97409127D01*
X132978442Y-97402287D01*
X133025000Y-97400000D01*
X133975000Y-97400000D01*
X134021558Y-97402287D01*
X134021558Y-97402287D01*
G37*
D12*
X133500000Y-98800000D03*
D11*
G36*
X131621558Y-97402287D02*
X131667668Y-97409127D01*
X131712885Y-97420453D01*
X131756775Y-97436157D01*
X131798913Y-97456087D01*
X131838896Y-97480052D01*
X131876337Y-97507820D01*
X131910876Y-97539124D01*
X131942180Y-97573663D01*
X131969948Y-97611104D01*
X131993913Y-97651087D01*
X132013843Y-97693225D01*
X132029547Y-97737115D01*
X132040873Y-97782332D01*
X132047713Y-97828442D01*
X132050000Y-97875000D01*
X132050000Y-99725000D01*
X132047713Y-99771558D01*
X132040873Y-99817668D01*
X132029547Y-99862885D01*
X132013843Y-99906775D01*
X131993913Y-99948913D01*
X131969948Y-99988896D01*
X131942180Y-100026337D01*
X131910876Y-100060876D01*
X131876337Y-100092180D01*
X131838896Y-100119948D01*
X131798913Y-100143913D01*
X131756775Y-100163843D01*
X131712885Y-100179547D01*
X131667668Y-100190873D01*
X131621558Y-100197713D01*
X131575000Y-100200000D01*
X130625000Y-100200000D01*
X130578442Y-100197713D01*
X130532332Y-100190873D01*
X130487115Y-100179547D01*
X130443225Y-100163843D01*
X130401087Y-100143913D01*
X130361104Y-100119948D01*
X130323663Y-100092180D01*
X130289124Y-100060876D01*
X130257820Y-100026337D01*
X130230052Y-99988896D01*
X130206087Y-99948913D01*
X130186157Y-99906775D01*
X130170453Y-99862885D01*
X130159127Y-99817668D01*
X130152287Y-99771558D01*
X130150000Y-99725000D01*
X130150000Y-97875000D01*
X130152287Y-97828442D01*
X130159127Y-97782332D01*
X130170453Y-97737115D01*
X130186157Y-97693225D01*
X130206087Y-97651087D01*
X130230052Y-97611104D01*
X130257820Y-97573663D01*
X130289124Y-97539124D01*
X130323663Y-97507820D01*
X130361104Y-97480052D01*
X130401087Y-97456087D01*
X130443225Y-97436157D01*
X130487115Y-97420453D01*
X130532332Y-97409127D01*
X130578442Y-97402287D01*
X130625000Y-97400000D01*
X131575000Y-97400000D01*
X131621558Y-97402287D01*
X131621558Y-97402287D01*
G37*
D12*
X131100000Y-98800000D03*
G04 #@! TD*
M02*
