G04 #@! TF.GenerationSoftware,KiCad,Pcbnew,5.0.0-fee4fd1~66~ubuntu16.04.1*
G04 #@! TF.CreationDate,2018-09-11T21:28:54+02:00*
G04 #@! TF.ProjectId,inverted_quad_pdb,696E7665727465645F717561645F7064,rev?*
G04 #@! TF.SameCoordinates,Original*
G04 #@! TF.FileFunction,Paste,Top*
G04 #@! TF.FilePolarity,Positive*
%FSLAX46Y46*%
G04 Gerber Fmt 4.6, Leading zero omitted, Abs format (unit mm)*
G04 Created by KiCad (PCBNEW 5.0.0-fee4fd1~66~ubuntu16.04.1) date Tue Sep 11 21:28:54 2018*
%MOMM*%
%LPD*%
G01*
G04 APERTURE LIST*
%ADD10C,0.100000*%
%ADD11C,1.500000*%
%ADD12C,3.500000*%
%ADD13C,3.000000*%
G04 APERTURE END LIST*
D10*
G04 #@! TO.C,ESC4*
G36*
X147061756Y-115351806D02*
X147098159Y-115357206D01*
X147133857Y-115366147D01*
X147168506Y-115378545D01*
X147201774Y-115394280D01*
X147233339Y-115413199D01*
X147262897Y-115435121D01*
X147290165Y-115459835D01*
X147314879Y-115487103D01*
X147336801Y-115516661D01*
X147355720Y-115548226D01*
X147371455Y-115581494D01*
X147383853Y-115616143D01*
X147392794Y-115651841D01*
X147398194Y-115688244D01*
X147400000Y-115725000D01*
X147400000Y-116475000D01*
X147398194Y-116511756D01*
X147392794Y-116548159D01*
X147383853Y-116583857D01*
X147371455Y-116618506D01*
X147355720Y-116651774D01*
X147336801Y-116683339D01*
X147314879Y-116712897D01*
X147290165Y-116740165D01*
X147262897Y-116764879D01*
X147233339Y-116786801D01*
X147201774Y-116805720D01*
X147168506Y-116821455D01*
X147133857Y-116833853D01*
X147098159Y-116842794D01*
X147061756Y-116848194D01*
X147025000Y-116850000D01*
X145375000Y-116850000D01*
X145338244Y-116848194D01*
X145301841Y-116842794D01*
X145266143Y-116833853D01*
X145231494Y-116821455D01*
X145198226Y-116805720D01*
X145166661Y-116786801D01*
X145137103Y-116764879D01*
X145109835Y-116740165D01*
X145085121Y-116712897D01*
X145063199Y-116683339D01*
X145044280Y-116651774D01*
X145028545Y-116618506D01*
X145016147Y-116583857D01*
X145007206Y-116548159D01*
X145001806Y-116511756D01*
X145000000Y-116475000D01*
X145000000Y-115725000D01*
X145001806Y-115688244D01*
X145007206Y-115651841D01*
X145016147Y-115616143D01*
X145028545Y-115581494D01*
X145044280Y-115548226D01*
X145063199Y-115516661D01*
X145085121Y-115487103D01*
X145109835Y-115459835D01*
X145137103Y-115435121D01*
X145166661Y-115413199D01*
X145198226Y-115394280D01*
X145231494Y-115378545D01*
X145266143Y-115366147D01*
X145301841Y-115357206D01*
X145338244Y-115351806D01*
X145375000Y-115350000D01*
X147025000Y-115350000D01*
X147061756Y-115351806D01*
X147061756Y-115351806D01*
G37*
D11*
X146200000Y-116100000D03*
D10*
G36*
X147061756Y-117751806D02*
X147098159Y-117757206D01*
X147133857Y-117766147D01*
X147168506Y-117778545D01*
X147201774Y-117794280D01*
X147233339Y-117813199D01*
X147262897Y-117835121D01*
X147290165Y-117859835D01*
X147314879Y-117887103D01*
X147336801Y-117916661D01*
X147355720Y-117948226D01*
X147371455Y-117981494D01*
X147383853Y-118016143D01*
X147392794Y-118051841D01*
X147398194Y-118088244D01*
X147400000Y-118125000D01*
X147400000Y-118875000D01*
X147398194Y-118911756D01*
X147392794Y-118948159D01*
X147383853Y-118983857D01*
X147371455Y-119018506D01*
X147355720Y-119051774D01*
X147336801Y-119083339D01*
X147314879Y-119112897D01*
X147290165Y-119140165D01*
X147262897Y-119164879D01*
X147233339Y-119186801D01*
X147201774Y-119205720D01*
X147168506Y-119221455D01*
X147133857Y-119233853D01*
X147098159Y-119242794D01*
X147061756Y-119248194D01*
X147025000Y-119250000D01*
X145375000Y-119250000D01*
X145338244Y-119248194D01*
X145301841Y-119242794D01*
X145266143Y-119233853D01*
X145231494Y-119221455D01*
X145198226Y-119205720D01*
X145166661Y-119186801D01*
X145137103Y-119164879D01*
X145109835Y-119140165D01*
X145085121Y-119112897D01*
X145063199Y-119083339D01*
X145044280Y-119051774D01*
X145028545Y-119018506D01*
X145016147Y-118983857D01*
X145007206Y-118948159D01*
X145001806Y-118911756D01*
X145000000Y-118875000D01*
X145000000Y-118125000D01*
X145001806Y-118088244D01*
X145007206Y-118051841D01*
X145016147Y-118016143D01*
X145028545Y-117981494D01*
X145044280Y-117948226D01*
X145063199Y-117916661D01*
X145085121Y-117887103D01*
X145109835Y-117859835D01*
X145137103Y-117835121D01*
X145166661Y-117813199D01*
X145198226Y-117794280D01*
X145231494Y-117778545D01*
X145266143Y-117766147D01*
X145301841Y-117757206D01*
X145338244Y-117751806D01*
X145375000Y-117750000D01*
X147025000Y-117750000D01*
X147061756Y-117751806D01*
X147061756Y-117751806D01*
G37*
D11*
X146200000Y-118500000D03*
D10*
G36*
X174460765Y-112754213D02*
X174545704Y-112766813D01*
X174628999Y-112787677D01*
X174709848Y-112816605D01*
X174787472Y-112853319D01*
X174861124Y-112897464D01*
X174930094Y-112948616D01*
X174993718Y-113006282D01*
X175051384Y-113069906D01*
X175102536Y-113138876D01*
X175146681Y-113212528D01*
X175183395Y-113290152D01*
X175212323Y-113371001D01*
X175233187Y-113454296D01*
X175245787Y-113539235D01*
X175250000Y-113625000D01*
X175250000Y-116375000D01*
X175245787Y-116460765D01*
X175233187Y-116545704D01*
X175212323Y-116628999D01*
X175183395Y-116709848D01*
X175146681Y-116787472D01*
X175102536Y-116861124D01*
X175051384Y-116930094D01*
X174993718Y-116993718D01*
X174930094Y-117051384D01*
X174861124Y-117102536D01*
X174787472Y-117146681D01*
X174709848Y-117183395D01*
X174628999Y-117212323D01*
X174545704Y-117233187D01*
X174460765Y-117245787D01*
X174375000Y-117250000D01*
X172625000Y-117250000D01*
X172539235Y-117245787D01*
X172454296Y-117233187D01*
X172371001Y-117212323D01*
X172290152Y-117183395D01*
X172212528Y-117146681D01*
X172138876Y-117102536D01*
X172069906Y-117051384D01*
X172006282Y-116993718D01*
X171948616Y-116930094D01*
X171897464Y-116861124D01*
X171853319Y-116787472D01*
X171816605Y-116709848D01*
X171787677Y-116628999D01*
X171766813Y-116545704D01*
X171754213Y-116460765D01*
X171750000Y-116375000D01*
X171750000Y-113625000D01*
X171754213Y-113539235D01*
X171766813Y-113454296D01*
X171787677Y-113371001D01*
X171816605Y-113290152D01*
X171853319Y-113212528D01*
X171897464Y-113138876D01*
X171948616Y-113069906D01*
X172006282Y-113006282D01*
X172069906Y-112948616D01*
X172138876Y-112897464D01*
X172212528Y-112853319D01*
X172290152Y-112816605D01*
X172371001Y-112787677D01*
X172454296Y-112766813D01*
X172539235Y-112754213D01*
X172625000Y-112750000D01*
X174375000Y-112750000D01*
X174460765Y-112754213D01*
X174460765Y-112754213D01*
G37*
D12*
X173500000Y-115000000D03*
D10*
G36*
X174460765Y-106754213D02*
X174545704Y-106766813D01*
X174628999Y-106787677D01*
X174709848Y-106816605D01*
X174787472Y-106853319D01*
X174861124Y-106897464D01*
X174930094Y-106948616D01*
X174993718Y-107006282D01*
X175051384Y-107069906D01*
X175102536Y-107138876D01*
X175146681Y-107212528D01*
X175183395Y-107290152D01*
X175212323Y-107371001D01*
X175233187Y-107454296D01*
X175245787Y-107539235D01*
X175250000Y-107625000D01*
X175250000Y-110375000D01*
X175245787Y-110460765D01*
X175233187Y-110545704D01*
X175212323Y-110628999D01*
X175183395Y-110709848D01*
X175146681Y-110787472D01*
X175102536Y-110861124D01*
X175051384Y-110930094D01*
X174993718Y-110993718D01*
X174930094Y-111051384D01*
X174861124Y-111102536D01*
X174787472Y-111146681D01*
X174709848Y-111183395D01*
X174628999Y-111212323D01*
X174545704Y-111233187D01*
X174460765Y-111245787D01*
X174375000Y-111250000D01*
X172625000Y-111250000D01*
X172539235Y-111245787D01*
X172454296Y-111233187D01*
X172371001Y-111212323D01*
X172290152Y-111183395D01*
X172212528Y-111146681D01*
X172138876Y-111102536D01*
X172069906Y-111051384D01*
X172006282Y-110993718D01*
X171948616Y-110930094D01*
X171897464Y-110861124D01*
X171853319Y-110787472D01*
X171816605Y-110709848D01*
X171787677Y-110628999D01*
X171766813Y-110545704D01*
X171754213Y-110460765D01*
X171750000Y-110375000D01*
X171750000Y-107625000D01*
X171754213Y-107539235D01*
X171766813Y-107454296D01*
X171787677Y-107371001D01*
X171816605Y-107290152D01*
X171853319Y-107212528D01*
X171897464Y-107138876D01*
X171948616Y-107069906D01*
X172006282Y-107006282D01*
X172069906Y-106948616D01*
X172138876Y-106897464D01*
X172212528Y-106853319D01*
X172290152Y-106816605D01*
X172371001Y-106787677D01*
X172454296Y-106766813D01*
X172539235Y-106754213D01*
X172625000Y-106750000D01*
X174375000Y-106750000D01*
X174460765Y-106754213D01*
X174460765Y-106754213D01*
G37*
D12*
X173500000Y-109000000D03*
D10*
G36*
X174460765Y-118754213D02*
X174545704Y-118766813D01*
X174628999Y-118787677D01*
X174709848Y-118816605D01*
X174787472Y-118853319D01*
X174861124Y-118897464D01*
X174930094Y-118948616D01*
X174993718Y-119006282D01*
X175051384Y-119069906D01*
X175102536Y-119138876D01*
X175146681Y-119212528D01*
X175183395Y-119290152D01*
X175212323Y-119371001D01*
X175233187Y-119454296D01*
X175245787Y-119539235D01*
X175250000Y-119625000D01*
X175250000Y-122375000D01*
X175245787Y-122460765D01*
X175233187Y-122545704D01*
X175212323Y-122628999D01*
X175183395Y-122709848D01*
X175146681Y-122787472D01*
X175102536Y-122861124D01*
X175051384Y-122930094D01*
X174993718Y-122993718D01*
X174930094Y-123051384D01*
X174861124Y-123102536D01*
X174787472Y-123146681D01*
X174709848Y-123183395D01*
X174628999Y-123212323D01*
X174545704Y-123233187D01*
X174460765Y-123245787D01*
X174375000Y-123250000D01*
X172625000Y-123250000D01*
X172539235Y-123245787D01*
X172454296Y-123233187D01*
X172371001Y-123212323D01*
X172290152Y-123183395D01*
X172212528Y-123146681D01*
X172138876Y-123102536D01*
X172069906Y-123051384D01*
X172006282Y-122993718D01*
X171948616Y-122930094D01*
X171897464Y-122861124D01*
X171853319Y-122787472D01*
X171816605Y-122709848D01*
X171787677Y-122628999D01*
X171766813Y-122545704D01*
X171754213Y-122460765D01*
X171750000Y-122375000D01*
X171750000Y-119625000D01*
X171754213Y-119539235D01*
X171766813Y-119454296D01*
X171787677Y-119371001D01*
X171816605Y-119290152D01*
X171853319Y-119212528D01*
X171897464Y-119138876D01*
X171948616Y-119069906D01*
X172006282Y-119006282D01*
X172069906Y-118948616D01*
X172138876Y-118897464D01*
X172212528Y-118853319D01*
X172290152Y-118816605D01*
X172371001Y-118787677D01*
X172454296Y-118766813D01*
X172539235Y-118754213D01*
X172625000Y-118750000D01*
X174375000Y-118750000D01*
X174460765Y-118754213D01*
X174460765Y-118754213D01*
G37*
D12*
X173500000Y-121000000D03*
D10*
G36*
X147323513Y-120703611D02*
X147396318Y-120714411D01*
X147467714Y-120732295D01*
X147537013Y-120757090D01*
X147603548Y-120788559D01*
X147666678Y-120826398D01*
X147725795Y-120870242D01*
X147780330Y-120919670D01*
X147829758Y-120974205D01*
X147873602Y-121033322D01*
X147911441Y-121096452D01*
X147942910Y-121162987D01*
X147967705Y-121232286D01*
X147985589Y-121303682D01*
X147996389Y-121376487D01*
X148000000Y-121450000D01*
X148000000Y-123950000D01*
X147996389Y-124023513D01*
X147985589Y-124096318D01*
X147967705Y-124167714D01*
X147942910Y-124237013D01*
X147911441Y-124303548D01*
X147873602Y-124366678D01*
X147829758Y-124425795D01*
X147780330Y-124480330D01*
X147725795Y-124529758D01*
X147666678Y-124573602D01*
X147603548Y-124611441D01*
X147537013Y-124642910D01*
X147467714Y-124667705D01*
X147396318Y-124685589D01*
X147323513Y-124696389D01*
X147250000Y-124700000D01*
X145750000Y-124700000D01*
X145676487Y-124696389D01*
X145603682Y-124685589D01*
X145532286Y-124667705D01*
X145462987Y-124642910D01*
X145396452Y-124611441D01*
X145333322Y-124573602D01*
X145274205Y-124529758D01*
X145219670Y-124480330D01*
X145170242Y-124425795D01*
X145126398Y-124366678D01*
X145088559Y-124303548D01*
X145057090Y-124237013D01*
X145032295Y-124167714D01*
X145014411Y-124096318D01*
X145003611Y-124023513D01*
X145000000Y-123950000D01*
X145000000Y-121450000D01*
X145003611Y-121376487D01*
X145014411Y-121303682D01*
X145032295Y-121232286D01*
X145057090Y-121162987D01*
X145088559Y-121096452D01*
X145126398Y-121033322D01*
X145170242Y-120974205D01*
X145219670Y-120919670D01*
X145274205Y-120870242D01*
X145333322Y-120826398D01*
X145396452Y-120788559D01*
X145462987Y-120757090D01*
X145532286Y-120732295D01*
X145603682Y-120714411D01*
X145676487Y-120703611D01*
X145750000Y-120700000D01*
X147250000Y-120700000D01*
X147323513Y-120703611D01*
X147323513Y-120703611D01*
G37*
D13*
X146500000Y-122700000D03*
D10*
G36*
X147323513Y-105303611D02*
X147396318Y-105314411D01*
X147467714Y-105332295D01*
X147537013Y-105357090D01*
X147603548Y-105388559D01*
X147666678Y-105426398D01*
X147725795Y-105470242D01*
X147780330Y-105519670D01*
X147829758Y-105574205D01*
X147873602Y-105633322D01*
X147911441Y-105696452D01*
X147942910Y-105762987D01*
X147967705Y-105832286D01*
X147985589Y-105903682D01*
X147996389Y-105976487D01*
X148000000Y-106050000D01*
X148000000Y-108550000D01*
X147996389Y-108623513D01*
X147985589Y-108696318D01*
X147967705Y-108767714D01*
X147942910Y-108837013D01*
X147911441Y-108903548D01*
X147873602Y-108966678D01*
X147829758Y-109025795D01*
X147780330Y-109080330D01*
X147725795Y-109129758D01*
X147666678Y-109173602D01*
X147603548Y-109211441D01*
X147537013Y-109242910D01*
X147467714Y-109267705D01*
X147396318Y-109285589D01*
X147323513Y-109296389D01*
X147250000Y-109300000D01*
X145750000Y-109300000D01*
X145676487Y-109296389D01*
X145603682Y-109285589D01*
X145532286Y-109267705D01*
X145462987Y-109242910D01*
X145396452Y-109211441D01*
X145333322Y-109173602D01*
X145274205Y-109129758D01*
X145219670Y-109080330D01*
X145170242Y-109025795D01*
X145126398Y-108966678D01*
X145088559Y-108903548D01*
X145057090Y-108837013D01*
X145032295Y-108767714D01*
X145014411Y-108696318D01*
X145003611Y-108623513D01*
X145000000Y-108550000D01*
X145000000Y-106050000D01*
X145003611Y-105976487D01*
X145014411Y-105903682D01*
X145032295Y-105832286D01*
X145057090Y-105762987D01*
X145088559Y-105696452D01*
X145126398Y-105633322D01*
X145170242Y-105574205D01*
X145219670Y-105519670D01*
X145274205Y-105470242D01*
X145333322Y-105426398D01*
X145396452Y-105388559D01*
X145462987Y-105357090D01*
X145532286Y-105332295D01*
X145603682Y-105314411D01*
X145676487Y-105303611D01*
X145750000Y-105300000D01*
X147250000Y-105300000D01*
X147323513Y-105303611D01*
X147323513Y-105303611D01*
G37*
D13*
X146500000Y-107300000D03*
G04 #@! TD*
D10*
G04 #@! TO.C,ESC3*
G36*
X139023513Y-130003611D02*
X139096318Y-130014411D01*
X139167714Y-130032295D01*
X139237013Y-130057090D01*
X139303548Y-130088559D01*
X139366678Y-130126398D01*
X139425795Y-130170242D01*
X139480330Y-130219670D01*
X139529758Y-130274205D01*
X139573602Y-130333322D01*
X139611441Y-130396452D01*
X139642910Y-130462987D01*
X139667705Y-130532286D01*
X139685589Y-130603682D01*
X139696389Y-130676487D01*
X139700000Y-130750000D01*
X139700000Y-132250000D01*
X139696389Y-132323513D01*
X139685589Y-132396318D01*
X139667705Y-132467714D01*
X139642910Y-132537013D01*
X139611441Y-132603548D01*
X139573602Y-132666678D01*
X139529758Y-132725795D01*
X139480330Y-132780330D01*
X139425795Y-132829758D01*
X139366678Y-132873602D01*
X139303548Y-132911441D01*
X139237013Y-132942910D01*
X139167714Y-132967705D01*
X139096318Y-132985589D01*
X139023513Y-132996389D01*
X138950000Y-133000000D01*
X136450000Y-133000000D01*
X136376487Y-132996389D01*
X136303682Y-132985589D01*
X136232286Y-132967705D01*
X136162987Y-132942910D01*
X136096452Y-132911441D01*
X136033322Y-132873602D01*
X135974205Y-132829758D01*
X135919670Y-132780330D01*
X135870242Y-132725795D01*
X135826398Y-132666678D01*
X135788559Y-132603548D01*
X135757090Y-132537013D01*
X135732295Y-132467714D01*
X135714411Y-132396318D01*
X135703611Y-132323513D01*
X135700000Y-132250000D01*
X135700000Y-130750000D01*
X135703611Y-130676487D01*
X135714411Y-130603682D01*
X135732295Y-130532286D01*
X135757090Y-130462987D01*
X135788559Y-130396452D01*
X135826398Y-130333322D01*
X135870242Y-130274205D01*
X135919670Y-130219670D01*
X135974205Y-130170242D01*
X136033322Y-130126398D01*
X136096452Y-130088559D01*
X136162987Y-130057090D01*
X136232286Y-130032295D01*
X136303682Y-130014411D01*
X136376487Y-130003611D01*
X136450000Y-130000000D01*
X138950000Y-130000000D01*
X139023513Y-130003611D01*
X139023513Y-130003611D01*
G37*
D13*
X137700000Y-131500000D03*
D10*
G36*
X123623513Y-130003611D02*
X123696318Y-130014411D01*
X123767714Y-130032295D01*
X123837013Y-130057090D01*
X123903548Y-130088559D01*
X123966678Y-130126398D01*
X124025795Y-130170242D01*
X124080330Y-130219670D01*
X124129758Y-130274205D01*
X124173602Y-130333322D01*
X124211441Y-130396452D01*
X124242910Y-130462987D01*
X124267705Y-130532286D01*
X124285589Y-130603682D01*
X124296389Y-130676487D01*
X124300000Y-130750000D01*
X124300000Y-132250000D01*
X124296389Y-132323513D01*
X124285589Y-132396318D01*
X124267705Y-132467714D01*
X124242910Y-132537013D01*
X124211441Y-132603548D01*
X124173602Y-132666678D01*
X124129758Y-132725795D01*
X124080330Y-132780330D01*
X124025795Y-132829758D01*
X123966678Y-132873602D01*
X123903548Y-132911441D01*
X123837013Y-132942910D01*
X123767714Y-132967705D01*
X123696318Y-132985589D01*
X123623513Y-132996389D01*
X123550000Y-133000000D01*
X121050000Y-133000000D01*
X120976487Y-132996389D01*
X120903682Y-132985589D01*
X120832286Y-132967705D01*
X120762987Y-132942910D01*
X120696452Y-132911441D01*
X120633322Y-132873602D01*
X120574205Y-132829758D01*
X120519670Y-132780330D01*
X120470242Y-132725795D01*
X120426398Y-132666678D01*
X120388559Y-132603548D01*
X120357090Y-132537013D01*
X120332295Y-132467714D01*
X120314411Y-132396318D01*
X120303611Y-132323513D01*
X120300000Y-132250000D01*
X120300000Y-130750000D01*
X120303611Y-130676487D01*
X120314411Y-130603682D01*
X120332295Y-130532286D01*
X120357090Y-130462987D01*
X120388559Y-130396452D01*
X120426398Y-130333322D01*
X120470242Y-130274205D01*
X120519670Y-130219670D01*
X120574205Y-130170242D01*
X120633322Y-130126398D01*
X120696452Y-130088559D01*
X120762987Y-130057090D01*
X120832286Y-130032295D01*
X120903682Y-130014411D01*
X120976487Y-130003611D01*
X121050000Y-130000000D01*
X123550000Y-130000000D01*
X123623513Y-130003611D01*
X123623513Y-130003611D01*
G37*
D13*
X122300000Y-131500000D03*
D10*
G36*
X125460765Y-156754213D02*
X125545704Y-156766813D01*
X125628999Y-156787677D01*
X125709848Y-156816605D01*
X125787472Y-156853319D01*
X125861124Y-156897464D01*
X125930094Y-156948616D01*
X125993718Y-157006282D01*
X126051384Y-157069906D01*
X126102536Y-157138876D01*
X126146681Y-157212528D01*
X126183395Y-157290152D01*
X126212323Y-157371001D01*
X126233187Y-157454296D01*
X126245787Y-157539235D01*
X126250000Y-157625000D01*
X126250000Y-159375000D01*
X126245787Y-159460765D01*
X126233187Y-159545704D01*
X126212323Y-159628999D01*
X126183395Y-159709848D01*
X126146681Y-159787472D01*
X126102536Y-159861124D01*
X126051384Y-159930094D01*
X125993718Y-159993718D01*
X125930094Y-160051384D01*
X125861124Y-160102536D01*
X125787472Y-160146681D01*
X125709848Y-160183395D01*
X125628999Y-160212323D01*
X125545704Y-160233187D01*
X125460765Y-160245787D01*
X125375000Y-160250000D01*
X122625000Y-160250000D01*
X122539235Y-160245787D01*
X122454296Y-160233187D01*
X122371001Y-160212323D01*
X122290152Y-160183395D01*
X122212528Y-160146681D01*
X122138876Y-160102536D01*
X122069906Y-160051384D01*
X122006282Y-159993718D01*
X121948616Y-159930094D01*
X121897464Y-159861124D01*
X121853319Y-159787472D01*
X121816605Y-159709848D01*
X121787677Y-159628999D01*
X121766813Y-159545704D01*
X121754213Y-159460765D01*
X121750000Y-159375000D01*
X121750000Y-157625000D01*
X121754213Y-157539235D01*
X121766813Y-157454296D01*
X121787677Y-157371001D01*
X121816605Y-157290152D01*
X121853319Y-157212528D01*
X121897464Y-157138876D01*
X121948616Y-157069906D01*
X122006282Y-157006282D01*
X122069906Y-156948616D01*
X122138876Y-156897464D01*
X122212528Y-156853319D01*
X122290152Y-156816605D01*
X122371001Y-156787677D01*
X122454296Y-156766813D01*
X122539235Y-156754213D01*
X122625000Y-156750000D01*
X125375000Y-156750000D01*
X125460765Y-156754213D01*
X125460765Y-156754213D01*
G37*
D12*
X124000000Y-158500000D03*
D10*
G36*
X137460765Y-156754213D02*
X137545704Y-156766813D01*
X137628999Y-156787677D01*
X137709848Y-156816605D01*
X137787472Y-156853319D01*
X137861124Y-156897464D01*
X137930094Y-156948616D01*
X137993718Y-157006282D01*
X138051384Y-157069906D01*
X138102536Y-157138876D01*
X138146681Y-157212528D01*
X138183395Y-157290152D01*
X138212323Y-157371001D01*
X138233187Y-157454296D01*
X138245787Y-157539235D01*
X138250000Y-157625000D01*
X138250000Y-159375000D01*
X138245787Y-159460765D01*
X138233187Y-159545704D01*
X138212323Y-159628999D01*
X138183395Y-159709848D01*
X138146681Y-159787472D01*
X138102536Y-159861124D01*
X138051384Y-159930094D01*
X137993718Y-159993718D01*
X137930094Y-160051384D01*
X137861124Y-160102536D01*
X137787472Y-160146681D01*
X137709848Y-160183395D01*
X137628999Y-160212323D01*
X137545704Y-160233187D01*
X137460765Y-160245787D01*
X137375000Y-160250000D01*
X134625000Y-160250000D01*
X134539235Y-160245787D01*
X134454296Y-160233187D01*
X134371001Y-160212323D01*
X134290152Y-160183395D01*
X134212528Y-160146681D01*
X134138876Y-160102536D01*
X134069906Y-160051384D01*
X134006282Y-159993718D01*
X133948616Y-159930094D01*
X133897464Y-159861124D01*
X133853319Y-159787472D01*
X133816605Y-159709848D01*
X133787677Y-159628999D01*
X133766813Y-159545704D01*
X133754213Y-159460765D01*
X133750000Y-159375000D01*
X133750000Y-157625000D01*
X133754213Y-157539235D01*
X133766813Y-157454296D01*
X133787677Y-157371001D01*
X133816605Y-157290152D01*
X133853319Y-157212528D01*
X133897464Y-157138876D01*
X133948616Y-157069906D01*
X134006282Y-157006282D01*
X134069906Y-156948616D01*
X134138876Y-156897464D01*
X134212528Y-156853319D01*
X134290152Y-156816605D01*
X134371001Y-156787677D01*
X134454296Y-156766813D01*
X134539235Y-156754213D01*
X134625000Y-156750000D01*
X137375000Y-156750000D01*
X137460765Y-156754213D01*
X137460765Y-156754213D01*
G37*
D12*
X136000000Y-158500000D03*
D10*
G36*
X131460765Y-156754213D02*
X131545704Y-156766813D01*
X131628999Y-156787677D01*
X131709848Y-156816605D01*
X131787472Y-156853319D01*
X131861124Y-156897464D01*
X131930094Y-156948616D01*
X131993718Y-157006282D01*
X132051384Y-157069906D01*
X132102536Y-157138876D01*
X132146681Y-157212528D01*
X132183395Y-157290152D01*
X132212323Y-157371001D01*
X132233187Y-157454296D01*
X132245787Y-157539235D01*
X132250000Y-157625000D01*
X132250000Y-159375000D01*
X132245787Y-159460765D01*
X132233187Y-159545704D01*
X132212323Y-159628999D01*
X132183395Y-159709848D01*
X132146681Y-159787472D01*
X132102536Y-159861124D01*
X132051384Y-159930094D01*
X131993718Y-159993718D01*
X131930094Y-160051384D01*
X131861124Y-160102536D01*
X131787472Y-160146681D01*
X131709848Y-160183395D01*
X131628999Y-160212323D01*
X131545704Y-160233187D01*
X131460765Y-160245787D01*
X131375000Y-160250000D01*
X128625000Y-160250000D01*
X128539235Y-160245787D01*
X128454296Y-160233187D01*
X128371001Y-160212323D01*
X128290152Y-160183395D01*
X128212528Y-160146681D01*
X128138876Y-160102536D01*
X128069906Y-160051384D01*
X128006282Y-159993718D01*
X127948616Y-159930094D01*
X127897464Y-159861124D01*
X127853319Y-159787472D01*
X127816605Y-159709848D01*
X127787677Y-159628999D01*
X127766813Y-159545704D01*
X127754213Y-159460765D01*
X127750000Y-159375000D01*
X127750000Y-157625000D01*
X127754213Y-157539235D01*
X127766813Y-157454296D01*
X127787677Y-157371001D01*
X127816605Y-157290152D01*
X127853319Y-157212528D01*
X127897464Y-157138876D01*
X127948616Y-157069906D01*
X128006282Y-157006282D01*
X128069906Y-156948616D01*
X128138876Y-156897464D01*
X128212528Y-156853319D01*
X128290152Y-156816605D01*
X128371001Y-156787677D01*
X128454296Y-156766813D01*
X128539235Y-156754213D01*
X128625000Y-156750000D01*
X131375000Y-156750000D01*
X131460765Y-156754213D01*
X131460765Y-156754213D01*
G37*
D12*
X130000000Y-158500000D03*
D10*
G36*
X126911756Y-130001806D02*
X126948159Y-130007206D01*
X126983857Y-130016147D01*
X127018506Y-130028545D01*
X127051774Y-130044280D01*
X127083339Y-130063199D01*
X127112897Y-130085121D01*
X127140165Y-130109835D01*
X127164879Y-130137103D01*
X127186801Y-130166661D01*
X127205720Y-130198226D01*
X127221455Y-130231494D01*
X127233853Y-130266143D01*
X127242794Y-130301841D01*
X127248194Y-130338244D01*
X127250000Y-130375000D01*
X127250000Y-132025000D01*
X127248194Y-132061756D01*
X127242794Y-132098159D01*
X127233853Y-132133857D01*
X127221455Y-132168506D01*
X127205720Y-132201774D01*
X127186801Y-132233339D01*
X127164879Y-132262897D01*
X127140165Y-132290165D01*
X127112897Y-132314879D01*
X127083339Y-132336801D01*
X127051774Y-132355720D01*
X127018506Y-132371455D01*
X126983857Y-132383853D01*
X126948159Y-132392794D01*
X126911756Y-132398194D01*
X126875000Y-132400000D01*
X126125000Y-132400000D01*
X126088244Y-132398194D01*
X126051841Y-132392794D01*
X126016143Y-132383853D01*
X125981494Y-132371455D01*
X125948226Y-132355720D01*
X125916661Y-132336801D01*
X125887103Y-132314879D01*
X125859835Y-132290165D01*
X125835121Y-132262897D01*
X125813199Y-132233339D01*
X125794280Y-132201774D01*
X125778545Y-132168506D01*
X125766147Y-132133857D01*
X125757206Y-132098159D01*
X125751806Y-132061756D01*
X125750000Y-132025000D01*
X125750000Y-130375000D01*
X125751806Y-130338244D01*
X125757206Y-130301841D01*
X125766147Y-130266143D01*
X125778545Y-130231494D01*
X125794280Y-130198226D01*
X125813199Y-130166661D01*
X125835121Y-130137103D01*
X125859835Y-130109835D01*
X125887103Y-130085121D01*
X125916661Y-130063199D01*
X125948226Y-130044280D01*
X125981494Y-130028545D01*
X126016143Y-130016147D01*
X126051841Y-130007206D01*
X126088244Y-130001806D01*
X126125000Y-130000000D01*
X126875000Y-130000000D01*
X126911756Y-130001806D01*
X126911756Y-130001806D01*
G37*
D11*
X126500000Y-131200000D03*
D10*
G36*
X129311756Y-130001806D02*
X129348159Y-130007206D01*
X129383857Y-130016147D01*
X129418506Y-130028545D01*
X129451774Y-130044280D01*
X129483339Y-130063199D01*
X129512897Y-130085121D01*
X129540165Y-130109835D01*
X129564879Y-130137103D01*
X129586801Y-130166661D01*
X129605720Y-130198226D01*
X129621455Y-130231494D01*
X129633853Y-130266143D01*
X129642794Y-130301841D01*
X129648194Y-130338244D01*
X129650000Y-130375000D01*
X129650000Y-132025000D01*
X129648194Y-132061756D01*
X129642794Y-132098159D01*
X129633853Y-132133857D01*
X129621455Y-132168506D01*
X129605720Y-132201774D01*
X129586801Y-132233339D01*
X129564879Y-132262897D01*
X129540165Y-132290165D01*
X129512897Y-132314879D01*
X129483339Y-132336801D01*
X129451774Y-132355720D01*
X129418506Y-132371455D01*
X129383857Y-132383853D01*
X129348159Y-132392794D01*
X129311756Y-132398194D01*
X129275000Y-132400000D01*
X128525000Y-132400000D01*
X128488244Y-132398194D01*
X128451841Y-132392794D01*
X128416143Y-132383853D01*
X128381494Y-132371455D01*
X128348226Y-132355720D01*
X128316661Y-132336801D01*
X128287103Y-132314879D01*
X128259835Y-132290165D01*
X128235121Y-132262897D01*
X128213199Y-132233339D01*
X128194280Y-132201774D01*
X128178545Y-132168506D01*
X128166147Y-132133857D01*
X128157206Y-132098159D01*
X128151806Y-132061756D01*
X128150000Y-132025000D01*
X128150000Y-130375000D01*
X128151806Y-130338244D01*
X128157206Y-130301841D01*
X128166147Y-130266143D01*
X128178545Y-130231494D01*
X128194280Y-130198226D01*
X128213199Y-130166661D01*
X128235121Y-130137103D01*
X128259835Y-130109835D01*
X128287103Y-130085121D01*
X128316661Y-130063199D01*
X128348226Y-130044280D01*
X128381494Y-130028545D01*
X128416143Y-130016147D01*
X128451841Y-130007206D01*
X128488244Y-130001806D01*
X128525000Y-130000000D01*
X129275000Y-130000000D01*
X129311756Y-130001806D01*
X129311756Y-130001806D01*
G37*
D11*
X128900000Y-131200000D03*
G04 #@! TD*
D10*
G04 #@! TO.C,ESC2*
G36*
X114661756Y-113151806D02*
X114698159Y-113157206D01*
X114733857Y-113166147D01*
X114768506Y-113178545D01*
X114801774Y-113194280D01*
X114833339Y-113213199D01*
X114862897Y-113235121D01*
X114890165Y-113259835D01*
X114914879Y-113287103D01*
X114936801Y-113316661D01*
X114955720Y-113348226D01*
X114971455Y-113381494D01*
X114983853Y-113416143D01*
X114992794Y-113451841D01*
X114998194Y-113488244D01*
X115000000Y-113525000D01*
X115000000Y-114275000D01*
X114998194Y-114311756D01*
X114992794Y-114348159D01*
X114983853Y-114383857D01*
X114971455Y-114418506D01*
X114955720Y-114451774D01*
X114936801Y-114483339D01*
X114914879Y-114512897D01*
X114890165Y-114540165D01*
X114862897Y-114564879D01*
X114833339Y-114586801D01*
X114801774Y-114605720D01*
X114768506Y-114621455D01*
X114733857Y-114633853D01*
X114698159Y-114642794D01*
X114661756Y-114648194D01*
X114625000Y-114650000D01*
X112975000Y-114650000D01*
X112938244Y-114648194D01*
X112901841Y-114642794D01*
X112866143Y-114633853D01*
X112831494Y-114621455D01*
X112798226Y-114605720D01*
X112766661Y-114586801D01*
X112737103Y-114564879D01*
X112709835Y-114540165D01*
X112685121Y-114512897D01*
X112663199Y-114483339D01*
X112644280Y-114451774D01*
X112628545Y-114418506D01*
X112616147Y-114383857D01*
X112607206Y-114348159D01*
X112601806Y-114311756D01*
X112600000Y-114275000D01*
X112600000Y-113525000D01*
X112601806Y-113488244D01*
X112607206Y-113451841D01*
X112616147Y-113416143D01*
X112628545Y-113381494D01*
X112644280Y-113348226D01*
X112663199Y-113316661D01*
X112685121Y-113287103D01*
X112709835Y-113259835D01*
X112737103Y-113235121D01*
X112766661Y-113213199D01*
X112798226Y-113194280D01*
X112831494Y-113178545D01*
X112866143Y-113166147D01*
X112901841Y-113157206D01*
X112938244Y-113151806D01*
X112975000Y-113150000D01*
X114625000Y-113150000D01*
X114661756Y-113151806D01*
X114661756Y-113151806D01*
G37*
D11*
X113800000Y-113900000D03*
D10*
G36*
X114661756Y-110751806D02*
X114698159Y-110757206D01*
X114733857Y-110766147D01*
X114768506Y-110778545D01*
X114801774Y-110794280D01*
X114833339Y-110813199D01*
X114862897Y-110835121D01*
X114890165Y-110859835D01*
X114914879Y-110887103D01*
X114936801Y-110916661D01*
X114955720Y-110948226D01*
X114971455Y-110981494D01*
X114983853Y-111016143D01*
X114992794Y-111051841D01*
X114998194Y-111088244D01*
X115000000Y-111125000D01*
X115000000Y-111875000D01*
X114998194Y-111911756D01*
X114992794Y-111948159D01*
X114983853Y-111983857D01*
X114971455Y-112018506D01*
X114955720Y-112051774D01*
X114936801Y-112083339D01*
X114914879Y-112112897D01*
X114890165Y-112140165D01*
X114862897Y-112164879D01*
X114833339Y-112186801D01*
X114801774Y-112205720D01*
X114768506Y-112221455D01*
X114733857Y-112233853D01*
X114698159Y-112242794D01*
X114661756Y-112248194D01*
X114625000Y-112250000D01*
X112975000Y-112250000D01*
X112938244Y-112248194D01*
X112901841Y-112242794D01*
X112866143Y-112233853D01*
X112831494Y-112221455D01*
X112798226Y-112205720D01*
X112766661Y-112186801D01*
X112737103Y-112164879D01*
X112709835Y-112140165D01*
X112685121Y-112112897D01*
X112663199Y-112083339D01*
X112644280Y-112051774D01*
X112628545Y-112018506D01*
X112616147Y-111983857D01*
X112607206Y-111948159D01*
X112601806Y-111911756D01*
X112600000Y-111875000D01*
X112600000Y-111125000D01*
X112601806Y-111088244D01*
X112607206Y-111051841D01*
X112616147Y-111016143D01*
X112628545Y-110981494D01*
X112644280Y-110948226D01*
X112663199Y-110916661D01*
X112685121Y-110887103D01*
X112709835Y-110859835D01*
X112737103Y-110835121D01*
X112766661Y-110813199D01*
X112798226Y-110794280D01*
X112831494Y-110778545D01*
X112866143Y-110766147D01*
X112901841Y-110757206D01*
X112938244Y-110751806D01*
X112975000Y-110750000D01*
X114625000Y-110750000D01*
X114661756Y-110751806D01*
X114661756Y-110751806D01*
G37*
D11*
X113800000Y-111500000D03*
D10*
G36*
X87460765Y-112754213D02*
X87545704Y-112766813D01*
X87628999Y-112787677D01*
X87709848Y-112816605D01*
X87787472Y-112853319D01*
X87861124Y-112897464D01*
X87930094Y-112948616D01*
X87993718Y-113006282D01*
X88051384Y-113069906D01*
X88102536Y-113138876D01*
X88146681Y-113212528D01*
X88183395Y-113290152D01*
X88212323Y-113371001D01*
X88233187Y-113454296D01*
X88245787Y-113539235D01*
X88250000Y-113625000D01*
X88250000Y-116375000D01*
X88245787Y-116460765D01*
X88233187Y-116545704D01*
X88212323Y-116628999D01*
X88183395Y-116709848D01*
X88146681Y-116787472D01*
X88102536Y-116861124D01*
X88051384Y-116930094D01*
X87993718Y-116993718D01*
X87930094Y-117051384D01*
X87861124Y-117102536D01*
X87787472Y-117146681D01*
X87709848Y-117183395D01*
X87628999Y-117212323D01*
X87545704Y-117233187D01*
X87460765Y-117245787D01*
X87375000Y-117250000D01*
X85625000Y-117250000D01*
X85539235Y-117245787D01*
X85454296Y-117233187D01*
X85371001Y-117212323D01*
X85290152Y-117183395D01*
X85212528Y-117146681D01*
X85138876Y-117102536D01*
X85069906Y-117051384D01*
X85006282Y-116993718D01*
X84948616Y-116930094D01*
X84897464Y-116861124D01*
X84853319Y-116787472D01*
X84816605Y-116709848D01*
X84787677Y-116628999D01*
X84766813Y-116545704D01*
X84754213Y-116460765D01*
X84750000Y-116375000D01*
X84750000Y-113625000D01*
X84754213Y-113539235D01*
X84766813Y-113454296D01*
X84787677Y-113371001D01*
X84816605Y-113290152D01*
X84853319Y-113212528D01*
X84897464Y-113138876D01*
X84948616Y-113069906D01*
X85006282Y-113006282D01*
X85069906Y-112948616D01*
X85138876Y-112897464D01*
X85212528Y-112853319D01*
X85290152Y-112816605D01*
X85371001Y-112787677D01*
X85454296Y-112766813D01*
X85539235Y-112754213D01*
X85625000Y-112750000D01*
X87375000Y-112750000D01*
X87460765Y-112754213D01*
X87460765Y-112754213D01*
G37*
D12*
X86500000Y-115000000D03*
D10*
G36*
X87460765Y-118754213D02*
X87545704Y-118766813D01*
X87628999Y-118787677D01*
X87709848Y-118816605D01*
X87787472Y-118853319D01*
X87861124Y-118897464D01*
X87930094Y-118948616D01*
X87993718Y-119006282D01*
X88051384Y-119069906D01*
X88102536Y-119138876D01*
X88146681Y-119212528D01*
X88183395Y-119290152D01*
X88212323Y-119371001D01*
X88233187Y-119454296D01*
X88245787Y-119539235D01*
X88250000Y-119625000D01*
X88250000Y-122375000D01*
X88245787Y-122460765D01*
X88233187Y-122545704D01*
X88212323Y-122628999D01*
X88183395Y-122709848D01*
X88146681Y-122787472D01*
X88102536Y-122861124D01*
X88051384Y-122930094D01*
X87993718Y-122993718D01*
X87930094Y-123051384D01*
X87861124Y-123102536D01*
X87787472Y-123146681D01*
X87709848Y-123183395D01*
X87628999Y-123212323D01*
X87545704Y-123233187D01*
X87460765Y-123245787D01*
X87375000Y-123250000D01*
X85625000Y-123250000D01*
X85539235Y-123245787D01*
X85454296Y-123233187D01*
X85371001Y-123212323D01*
X85290152Y-123183395D01*
X85212528Y-123146681D01*
X85138876Y-123102536D01*
X85069906Y-123051384D01*
X85006282Y-122993718D01*
X84948616Y-122930094D01*
X84897464Y-122861124D01*
X84853319Y-122787472D01*
X84816605Y-122709848D01*
X84787677Y-122628999D01*
X84766813Y-122545704D01*
X84754213Y-122460765D01*
X84750000Y-122375000D01*
X84750000Y-119625000D01*
X84754213Y-119539235D01*
X84766813Y-119454296D01*
X84787677Y-119371001D01*
X84816605Y-119290152D01*
X84853319Y-119212528D01*
X84897464Y-119138876D01*
X84948616Y-119069906D01*
X85006282Y-119006282D01*
X85069906Y-118948616D01*
X85138876Y-118897464D01*
X85212528Y-118853319D01*
X85290152Y-118816605D01*
X85371001Y-118787677D01*
X85454296Y-118766813D01*
X85539235Y-118754213D01*
X85625000Y-118750000D01*
X87375000Y-118750000D01*
X87460765Y-118754213D01*
X87460765Y-118754213D01*
G37*
D12*
X86500000Y-121000000D03*
D10*
G36*
X87460765Y-106754213D02*
X87545704Y-106766813D01*
X87628999Y-106787677D01*
X87709848Y-106816605D01*
X87787472Y-106853319D01*
X87861124Y-106897464D01*
X87930094Y-106948616D01*
X87993718Y-107006282D01*
X88051384Y-107069906D01*
X88102536Y-107138876D01*
X88146681Y-107212528D01*
X88183395Y-107290152D01*
X88212323Y-107371001D01*
X88233187Y-107454296D01*
X88245787Y-107539235D01*
X88250000Y-107625000D01*
X88250000Y-110375000D01*
X88245787Y-110460765D01*
X88233187Y-110545704D01*
X88212323Y-110628999D01*
X88183395Y-110709848D01*
X88146681Y-110787472D01*
X88102536Y-110861124D01*
X88051384Y-110930094D01*
X87993718Y-110993718D01*
X87930094Y-111051384D01*
X87861124Y-111102536D01*
X87787472Y-111146681D01*
X87709848Y-111183395D01*
X87628999Y-111212323D01*
X87545704Y-111233187D01*
X87460765Y-111245787D01*
X87375000Y-111250000D01*
X85625000Y-111250000D01*
X85539235Y-111245787D01*
X85454296Y-111233187D01*
X85371001Y-111212323D01*
X85290152Y-111183395D01*
X85212528Y-111146681D01*
X85138876Y-111102536D01*
X85069906Y-111051384D01*
X85006282Y-110993718D01*
X84948616Y-110930094D01*
X84897464Y-110861124D01*
X84853319Y-110787472D01*
X84816605Y-110709848D01*
X84787677Y-110628999D01*
X84766813Y-110545704D01*
X84754213Y-110460765D01*
X84750000Y-110375000D01*
X84750000Y-107625000D01*
X84754213Y-107539235D01*
X84766813Y-107454296D01*
X84787677Y-107371001D01*
X84816605Y-107290152D01*
X84853319Y-107212528D01*
X84897464Y-107138876D01*
X84948616Y-107069906D01*
X85006282Y-107006282D01*
X85069906Y-106948616D01*
X85138876Y-106897464D01*
X85212528Y-106853319D01*
X85290152Y-106816605D01*
X85371001Y-106787677D01*
X85454296Y-106766813D01*
X85539235Y-106754213D01*
X85625000Y-106750000D01*
X87375000Y-106750000D01*
X87460765Y-106754213D01*
X87460765Y-106754213D01*
G37*
D12*
X86500000Y-109000000D03*
D10*
G36*
X114323513Y-105303611D02*
X114396318Y-105314411D01*
X114467714Y-105332295D01*
X114537013Y-105357090D01*
X114603548Y-105388559D01*
X114666678Y-105426398D01*
X114725795Y-105470242D01*
X114780330Y-105519670D01*
X114829758Y-105574205D01*
X114873602Y-105633322D01*
X114911441Y-105696452D01*
X114942910Y-105762987D01*
X114967705Y-105832286D01*
X114985589Y-105903682D01*
X114996389Y-105976487D01*
X115000000Y-106050000D01*
X115000000Y-108550000D01*
X114996389Y-108623513D01*
X114985589Y-108696318D01*
X114967705Y-108767714D01*
X114942910Y-108837013D01*
X114911441Y-108903548D01*
X114873602Y-108966678D01*
X114829758Y-109025795D01*
X114780330Y-109080330D01*
X114725795Y-109129758D01*
X114666678Y-109173602D01*
X114603548Y-109211441D01*
X114537013Y-109242910D01*
X114467714Y-109267705D01*
X114396318Y-109285589D01*
X114323513Y-109296389D01*
X114250000Y-109300000D01*
X112750000Y-109300000D01*
X112676487Y-109296389D01*
X112603682Y-109285589D01*
X112532286Y-109267705D01*
X112462987Y-109242910D01*
X112396452Y-109211441D01*
X112333322Y-109173602D01*
X112274205Y-109129758D01*
X112219670Y-109080330D01*
X112170242Y-109025795D01*
X112126398Y-108966678D01*
X112088559Y-108903548D01*
X112057090Y-108837013D01*
X112032295Y-108767714D01*
X112014411Y-108696318D01*
X112003611Y-108623513D01*
X112000000Y-108550000D01*
X112000000Y-106050000D01*
X112003611Y-105976487D01*
X112014411Y-105903682D01*
X112032295Y-105832286D01*
X112057090Y-105762987D01*
X112088559Y-105696452D01*
X112126398Y-105633322D01*
X112170242Y-105574205D01*
X112219670Y-105519670D01*
X112274205Y-105470242D01*
X112333322Y-105426398D01*
X112396452Y-105388559D01*
X112462987Y-105357090D01*
X112532286Y-105332295D01*
X112603682Y-105314411D01*
X112676487Y-105303611D01*
X112750000Y-105300000D01*
X114250000Y-105300000D01*
X114323513Y-105303611D01*
X114323513Y-105303611D01*
G37*
D13*
X113500000Y-107300000D03*
D10*
G36*
X114323513Y-120703611D02*
X114396318Y-120714411D01*
X114467714Y-120732295D01*
X114537013Y-120757090D01*
X114603548Y-120788559D01*
X114666678Y-120826398D01*
X114725795Y-120870242D01*
X114780330Y-120919670D01*
X114829758Y-120974205D01*
X114873602Y-121033322D01*
X114911441Y-121096452D01*
X114942910Y-121162987D01*
X114967705Y-121232286D01*
X114985589Y-121303682D01*
X114996389Y-121376487D01*
X115000000Y-121450000D01*
X115000000Y-123950000D01*
X114996389Y-124023513D01*
X114985589Y-124096318D01*
X114967705Y-124167714D01*
X114942910Y-124237013D01*
X114911441Y-124303548D01*
X114873602Y-124366678D01*
X114829758Y-124425795D01*
X114780330Y-124480330D01*
X114725795Y-124529758D01*
X114666678Y-124573602D01*
X114603548Y-124611441D01*
X114537013Y-124642910D01*
X114467714Y-124667705D01*
X114396318Y-124685589D01*
X114323513Y-124696389D01*
X114250000Y-124700000D01*
X112750000Y-124700000D01*
X112676487Y-124696389D01*
X112603682Y-124685589D01*
X112532286Y-124667705D01*
X112462987Y-124642910D01*
X112396452Y-124611441D01*
X112333322Y-124573602D01*
X112274205Y-124529758D01*
X112219670Y-124480330D01*
X112170242Y-124425795D01*
X112126398Y-124366678D01*
X112088559Y-124303548D01*
X112057090Y-124237013D01*
X112032295Y-124167714D01*
X112014411Y-124096318D01*
X112003611Y-124023513D01*
X112000000Y-123950000D01*
X112000000Y-121450000D01*
X112003611Y-121376487D01*
X112014411Y-121303682D01*
X112032295Y-121232286D01*
X112057090Y-121162987D01*
X112088559Y-121096452D01*
X112126398Y-121033322D01*
X112170242Y-120974205D01*
X112219670Y-120919670D01*
X112274205Y-120870242D01*
X112333322Y-120826398D01*
X112396452Y-120788559D01*
X112462987Y-120757090D01*
X112532286Y-120732295D01*
X112603682Y-120714411D01*
X112676487Y-120703611D01*
X112750000Y-120700000D01*
X114250000Y-120700000D01*
X114323513Y-120703611D01*
X114323513Y-120703611D01*
G37*
D13*
X113500000Y-122700000D03*
G04 #@! TD*
D10*
G04 #@! TO.C,ESC1*
G36*
X123623513Y-97003611D02*
X123696318Y-97014411D01*
X123767714Y-97032295D01*
X123837013Y-97057090D01*
X123903548Y-97088559D01*
X123966678Y-97126398D01*
X124025795Y-97170242D01*
X124080330Y-97219670D01*
X124129758Y-97274205D01*
X124173602Y-97333322D01*
X124211441Y-97396452D01*
X124242910Y-97462987D01*
X124267705Y-97532286D01*
X124285589Y-97603682D01*
X124296389Y-97676487D01*
X124300000Y-97750000D01*
X124300000Y-99250000D01*
X124296389Y-99323513D01*
X124285589Y-99396318D01*
X124267705Y-99467714D01*
X124242910Y-99537013D01*
X124211441Y-99603548D01*
X124173602Y-99666678D01*
X124129758Y-99725795D01*
X124080330Y-99780330D01*
X124025795Y-99829758D01*
X123966678Y-99873602D01*
X123903548Y-99911441D01*
X123837013Y-99942910D01*
X123767714Y-99967705D01*
X123696318Y-99985589D01*
X123623513Y-99996389D01*
X123550000Y-100000000D01*
X121050000Y-100000000D01*
X120976487Y-99996389D01*
X120903682Y-99985589D01*
X120832286Y-99967705D01*
X120762987Y-99942910D01*
X120696452Y-99911441D01*
X120633322Y-99873602D01*
X120574205Y-99829758D01*
X120519670Y-99780330D01*
X120470242Y-99725795D01*
X120426398Y-99666678D01*
X120388559Y-99603548D01*
X120357090Y-99537013D01*
X120332295Y-99467714D01*
X120314411Y-99396318D01*
X120303611Y-99323513D01*
X120300000Y-99250000D01*
X120300000Y-97750000D01*
X120303611Y-97676487D01*
X120314411Y-97603682D01*
X120332295Y-97532286D01*
X120357090Y-97462987D01*
X120388559Y-97396452D01*
X120426398Y-97333322D01*
X120470242Y-97274205D01*
X120519670Y-97219670D01*
X120574205Y-97170242D01*
X120633322Y-97126398D01*
X120696452Y-97088559D01*
X120762987Y-97057090D01*
X120832286Y-97032295D01*
X120903682Y-97014411D01*
X120976487Y-97003611D01*
X121050000Y-97000000D01*
X123550000Y-97000000D01*
X123623513Y-97003611D01*
X123623513Y-97003611D01*
G37*
D13*
X122300000Y-98500000D03*
D10*
G36*
X139023513Y-97003611D02*
X139096318Y-97014411D01*
X139167714Y-97032295D01*
X139237013Y-97057090D01*
X139303548Y-97088559D01*
X139366678Y-97126398D01*
X139425795Y-97170242D01*
X139480330Y-97219670D01*
X139529758Y-97274205D01*
X139573602Y-97333322D01*
X139611441Y-97396452D01*
X139642910Y-97462987D01*
X139667705Y-97532286D01*
X139685589Y-97603682D01*
X139696389Y-97676487D01*
X139700000Y-97750000D01*
X139700000Y-99250000D01*
X139696389Y-99323513D01*
X139685589Y-99396318D01*
X139667705Y-99467714D01*
X139642910Y-99537013D01*
X139611441Y-99603548D01*
X139573602Y-99666678D01*
X139529758Y-99725795D01*
X139480330Y-99780330D01*
X139425795Y-99829758D01*
X139366678Y-99873602D01*
X139303548Y-99911441D01*
X139237013Y-99942910D01*
X139167714Y-99967705D01*
X139096318Y-99985589D01*
X139023513Y-99996389D01*
X138950000Y-100000000D01*
X136450000Y-100000000D01*
X136376487Y-99996389D01*
X136303682Y-99985589D01*
X136232286Y-99967705D01*
X136162987Y-99942910D01*
X136096452Y-99911441D01*
X136033322Y-99873602D01*
X135974205Y-99829758D01*
X135919670Y-99780330D01*
X135870242Y-99725795D01*
X135826398Y-99666678D01*
X135788559Y-99603548D01*
X135757090Y-99537013D01*
X135732295Y-99467714D01*
X135714411Y-99396318D01*
X135703611Y-99323513D01*
X135700000Y-99250000D01*
X135700000Y-97750000D01*
X135703611Y-97676487D01*
X135714411Y-97603682D01*
X135732295Y-97532286D01*
X135757090Y-97462987D01*
X135788559Y-97396452D01*
X135826398Y-97333322D01*
X135870242Y-97274205D01*
X135919670Y-97219670D01*
X135974205Y-97170242D01*
X136033322Y-97126398D01*
X136096452Y-97088559D01*
X136162987Y-97057090D01*
X136232286Y-97032295D01*
X136303682Y-97014411D01*
X136376487Y-97003611D01*
X136450000Y-97000000D01*
X138950000Y-97000000D01*
X139023513Y-97003611D01*
X139023513Y-97003611D01*
G37*
D13*
X137700000Y-98500000D03*
D10*
G36*
X137460765Y-69754213D02*
X137545704Y-69766813D01*
X137628999Y-69787677D01*
X137709848Y-69816605D01*
X137787472Y-69853319D01*
X137861124Y-69897464D01*
X137930094Y-69948616D01*
X137993718Y-70006282D01*
X138051384Y-70069906D01*
X138102536Y-70138876D01*
X138146681Y-70212528D01*
X138183395Y-70290152D01*
X138212323Y-70371001D01*
X138233187Y-70454296D01*
X138245787Y-70539235D01*
X138250000Y-70625000D01*
X138250000Y-72375000D01*
X138245787Y-72460765D01*
X138233187Y-72545704D01*
X138212323Y-72628999D01*
X138183395Y-72709848D01*
X138146681Y-72787472D01*
X138102536Y-72861124D01*
X138051384Y-72930094D01*
X137993718Y-72993718D01*
X137930094Y-73051384D01*
X137861124Y-73102536D01*
X137787472Y-73146681D01*
X137709848Y-73183395D01*
X137628999Y-73212323D01*
X137545704Y-73233187D01*
X137460765Y-73245787D01*
X137375000Y-73250000D01*
X134625000Y-73250000D01*
X134539235Y-73245787D01*
X134454296Y-73233187D01*
X134371001Y-73212323D01*
X134290152Y-73183395D01*
X134212528Y-73146681D01*
X134138876Y-73102536D01*
X134069906Y-73051384D01*
X134006282Y-72993718D01*
X133948616Y-72930094D01*
X133897464Y-72861124D01*
X133853319Y-72787472D01*
X133816605Y-72709848D01*
X133787677Y-72628999D01*
X133766813Y-72545704D01*
X133754213Y-72460765D01*
X133750000Y-72375000D01*
X133750000Y-70625000D01*
X133754213Y-70539235D01*
X133766813Y-70454296D01*
X133787677Y-70371001D01*
X133816605Y-70290152D01*
X133853319Y-70212528D01*
X133897464Y-70138876D01*
X133948616Y-70069906D01*
X134006282Y-70006282D01*
X134069906Y-69948616D01*
X134138876Y-69897464D01*
X134212528Y-69853319D01*
X134290152Y-69816605D01*
X134371001Y-69787677D01*
X134454296Y-69766813D01*
X134539235Y-69754213D01*
X134625000Y-69750000D01*
X137375000Y-69750000D01*
X137460765Y-69754213D01*
X137460765Y-69754213D01*
G37*
D12*
X136000000Y-71500000D03*
D10*
G36*
X125460765Y-69754213D02*
X125545704Y-69766813D01*
X125628999Y-69787677D01*
X125709848Y-69816605D01*
X125787472Y-69853319D01*
X125861124Y-69897464D01*
X125930094Y-69948616D01*
X125993718Y-70006282D01*
X126051384Y-70069906D01*
X126102536Y-70138876D01*
X126146681Y-70212528D01*
X126183395Y-70290152D01*
X126212323Y-70371001D01*
X126233187Y-70454296D01*
X126245787Y-70539235D01*
X126250000Y-70625000D01*
X126250000Y-72375000D01*
X126245787Y-72460765D01*
X126233187Y-72545704D01*
X126212323Y-72628999D01*
X126183395Y-72709848D01*
X126146681Y-72787472D01*
X126102536Y-72861124D01*
X126051384Y-72930094D01*
X125993718Y-72993718D01*
X125930094Y-73051384D01*
X125861124Y-73102536D01*
X125787472Y-73146681D01*
X125709848Y-73183395D01*
X125628999Y-73212323D01*
X125545704Y-73233187D01*
X125460765Y-73245787D01*
X125375000Y-73250000D01*
X122625000Y-73250000D01*
X122539235Y-73245787D01*
X122454296Y-73233187D01*
X122371001Y-73212323D01*
X122290152Y-73183395D01*
X122212528Y-73146681D01*
X122138876Y-73102536D01*
X122069906Y-73051384D01*
X122006282Y-72993718D01*
X121948616Y-72930094D01*
X121897464Y-72861124D01*
X121853319Y-72787472D01*
X121816605Y-72709848D01*
X121787677Y-72628999D01*
X121766813Y-72545704D01*
X121754213Y-72460765D01*
X121750000Y-72375000D01*
X121750000Y-70625000D01*
X121754213Y-70539235D01*
X121766813Y-70454296D01*
X121787677Y-70371001D01*
X121816605Y-70290152D01*
X121853319Y-70212528D01*
X121897464Y-70138876D01*
X121948616Y-70069906D01*
X122006282Y-70006282D01*
X122069906Y-69948616D01*
X122138876Y-69897464D01*
X122212528Y-69853319D01*
X122290152Y-69816605D01*
X122371001Y-69787677D01*
X122454296Y-69766813D01*
X122539235Y-69754213D01*
X122625000Y-69750000D01*
X125375000Y-69750000D01*
X125460765Y-69754213D01*
X125460765Y-69754213D01*
G37*
D12*
X124000000Y-71500000D03*
D10*
G36*
X131460765Y-69754213D02*
X131545704Y-69766813D01*
X131628999Y-69787677D01*
X131709848Y-69816605D01*
X131787472Y-69853319D01*
X131861124Y-69897464D01*
X131930094Y-69948616D01*
X131993718Y-70006282D01*
X132051384Y-70069906D01*
X132102536Y-70138876D01*
X132146681Y-70212528D01*
X132183395Y-70290152D01*
X132212323Y-70371001D01*
X132233187Y-70454296D01*
X132245787Y-70539235D01*
X132250000Y-70625000D01*
X132250000Y-72375000D01*
X132245787Y-72460765D01*
X132233187Y-72545704D01*
X132212323Y-72628999D01*
X132183395Y-72709848D01*
X132146681Y-72787472D01*
X132102536Y-72861124D01*
X132051384Y-72930094D01*
X131993718Y-72993718D01*
X131930094Y-73051384D01*
X131861124Y-73102536D01*
X131787472Y-73146681D01*
X131709848Y-73183395D01*
X131628999Y-73212323D01*
X131545704Y-73233187D01*
X131460765Y-73245787D01*
X131375000Y-73250000D01*
X128625000Y-73250000D01*
X128539235Y-73245787D01*
X128454296Y-73233187D01*
X128371001Y-73212323D01*
X128290152Y-73183395D01*
X128212528Y-73146681D01*
X128138876Y-73102536D01*
X128069906Y-73051384D01*
X128006282Y-72993718D01*
X127948616Y-72930094D01*
X127897464Y-72861124D01*
X127853319Y-72787472D01*
X127816605Y-72709848D01*
X127787677Y-72628999D01*
X127766813Y-72545704D01*
X127754213Y-72460765D01*
X127750000Y-72375000D01*
X127750000Y-70625000D01*
X127754213Y-70539235D01*
X127766813Y-70454296D01*
X127787677Y-70371001D01*
X127816605Y-70290152D01*
X127853319Y-70212528D01*
X127897464Y-70138876D01*
X127948616Y-70069906D01*
X128006282Y-70006282D01*
X128069906Y-69948616D01*
X128138876Y-69897464D01*
X128212528Y-69853319D01*
X128290152Y-69816605D01*
X128371001Y-69787677D01*
X128454296Y-69766813D01*
X128539235Y-69754213D01*
X128625000Y-69750000D01*
X131375000Y-69750000D01*
X131460765Y-69754213D01*
X131460765Y-69754213D01*
G37*
D12*
X130000000Y-71500000D03*
D10*
G36*
X133911756Y-97601806D02*
X133948159Y-97607206D01*
X133983857Y-97616147D01*
X134018506Y-97628545D01*
X134051774Y-97644280D01*
X134083339Y-97663199D01*
X134112897Y-97685121D01*
X134140165Y-97709835D01*
X134164879Y-97737103D01*
X134186801Y-97766661D01*
X134205720Y-97798226D01*
X134221455Y-97831494D01*
X134233853Y-97866143D01*
X134242794Y-97901841D01*
X134248194Y-97938244D01*
X134250000Y-97975000D01*
X134250000Y-99625000D01*
X134248194Y-99661756D01*
X134242794Y-99698159D01*
X134233853Y-99733857D01*
X134221455Y-99768506D01*
X134205720Y-99801774D01*
X134186801Y-99833339D01*
X134164879Y-99862897D01*
X134140165Y-99890165D01*
X134112897Y-99914879D01*
X134083339Y-99936801D01*
X134051774Y-99955720D01*
X134018506Y-99971455D01*
X133983857Y-99983853D01*
X133948159Y-99992794D01*
X133911756Y-99998194D01*
X133875000Y-100000000D01*
X133125000Y-100000000D01*
X133088244Y-99998194D01*
X133051841Y-99992794D01*
X133016143Y-99983853D01*
X132981494Y-99971455D01*
X132948226Y-99955720D01*
X132916661Y-99936801D01*
X132887103Y-99914879D01*
X132859835Y-99890165D01*
X132835121Y-99862897D01*
X132813199Y-99833339D01*
X132794280Y-99801774D01*
X132778545Y-99768506D01*
X132766147Y-99733857D01*
X132757206Y-99698159D01*
X132751806Y-99661756D01*
X132750000Y-99625000D01*
X132750000Y-97975000D01*
X132751806Y-97938244D01*
X132757206Y-97901841D01*
X132766147Y-97866143D01*
X132778545Y-97831494D01*
X132794280Y-97798226D01*
X132813199Y-97766661D01*
X132835121Y-97737103D01*
X132859835Y-97709835D01*
X132887103Y-97685121D01*
X132916661Y-97663199D01*
X132948226Y-97644280D01*
X132981494Y-97628545D01*
X133016143Y-97616147D01*
X133051841Y-97607206D01*
X133088244Y-97601806D01*
X133125000Y-97600000D01*
X133875000Y-97600000D01*
X133911756Y-97601806D01*
X133911756Y-97601806D01*
G37*
D11*
X133500000Y-98800000D03*
D10*
G36*
X131511756Y-97601806D02*
X131548159Y-97607206D01*
X131583857Y-97616147D01*
X131618506Y-97628545D01*
X131651774Y-97644280D01*
X131683339Y-97663199D01*
X131712897Y-97685121D01*
X131740165Y-97709835D01*
X131764879Y-97737103D01*
X131786801Y-97766661D01*
X131805720Y-97798226D01*
X131821455Y-97831494D01*
X131833853Y-97866143D01*
X131842794Y-97901841D01*
X131848194Y-97938244D01*
X131850000Y-97975000D01*
X131850000Y-99625000D01*
X131848194Y-99661756D01*
X131842794Y-99698159D01*
X131833853Y-99733857D01*
X131821455Y-99768506D01*
X131805720Y-99801774D01*
X131786801Y-99833339D01*
X131764879Y-99862897D01*
X131740165Y-99890165D01*
X131712897Y-99914879D01*
X131683339Y-99936801D01*
X131651774Y-99955720D01*
X131618506Y-99971455D01*
X131583857Y-99983853D01*
X131548159Y-99992794D01*
X131511756Y-99998194D01*
X131475000Y-100000000D01*
X130725000Y-100000000D01*
X130688244Y-99998194D01*
X130651841Y-99992794D01*
X130616143Y-99983853D01*
X130581494Y-99971455D01*
X130548226Y-99955720D01*
X130516661Y-99936801D01*
X130487103Y-99914879D01*
X130459835Y-99890165D01*
X130435121Y-99862897D01*
X130413199Y-99833339D01*
X130394280Y-99801774D01*
X130378545Y-99768506D01*
X130366147Y-99733857D01*
X130357206Y-99698159D01*
X130351806Y-99661756D01*
X130350000Y-99625000D01*
X130350000Y-97975000D01*
X130351806Y-97938244D01*
X130357206Y-97901841D01*
X130366147Y-97866143D01*
X130378545Y-97831494D01*
X130394280Y-97798226D01*
X130413199Y-97766661D01*
X130435121Y-97737103D01*
X130459835Y-97709835D01*
X130487103Y-97685121D01*
X130516661Y-97663199D01*
X130548226Y-97644280D01*
X130581494Y-97628545D01*
X130616143Y-97616147D01*
X130651841Y-97607206D01*
X130688244Y-97601806D01*
X130725000Y-97600000D01*
X131475000Y-97600000D01*
X131511756Y-97601806D01*
X131511756Y-97601806D01*
G37*
D11*
X131100000Y-98800000D03*
G04 #@! TD*
M02*
