G04 #@! TF.GenerationSoftware,KiCad,Pcbnew,5.0.0-fee4fd1~66~ubuntu16.04.1*
G04 #@! TF.CreationDate,2018-09-11T21:28:54+02:00*
G04 #@! TF.ProjectId,inverted_quad_pdb,696E7665727465645F717561645F7064,rev?*
G04 #@! TF.SameCoordinates,Original*
G04 #@! TF.FileFunction,Copper,L1,Top,Signal*
G04 #@! TF.FilePolarity,Positive*
%FSLAX46Y46*%
G04 Gerber Fmt 4.6, Leading zero omitted, Abs format (unit mm)*
G04 Created by KiCad (PCBNEW 5.0.0-fee4fd1~66~ubuntu16.04.1) date Tue Sep 11 21:28:54 2018*
%MOMM*%
%LPD*%
G01*
G04 APERTURE LIST*
G04 #@! TA.AperFunction,Conductor*
%ADD10C,0.100000*%
G04 #@! TD*
G04 #@! TA.AperFunction,SMDPad,CuDef*
%ADD11C,1.500000*%
G04 #@! TD*
G04 #@! TA.AperFunction,SMDPad,CuDef*
%ADD12C,3.500000*%
G04 #@! TD*
G04 #@! TA.AperFunction,SMDPad,CuDef*
%ADD13C,3.000000*%
G04 #@! TD*
G04 #@! TA.AperFunction,ViaPad*
%ADD14C,3.300000*%
G04 #@! TD*
G04 #@! TA.AperFunction,ViaPad*
%ADD15C,0.800000*%
G04 #@! TD*
G04 #@! TA.AperFunction,Conductor*
%ADD16C,0.250000*%
G04 #@! TD*
G04 #@! TA.AperFunction,Conductor*
%ADD17C,0.254000*%
G04 #@! TD*
G04 APERTURE END LIST*
D10*
G04 #@! TO.N,/TLM*
G04 #@! TO.C,ESC4*
G36*
X147061756Y-115351806D02*
X147098159Y-115357206D01*
X147133857Y-115366147D01*
X147168506Y-115378545D01*
X147201774Y-115394280D01*
X147233339Y-115413199D01*
X147262897Y-115435121D01*
X147290165Y-115459835D01*
X147314879Y-115487103D01*
X147336801Y-115516661D01*
X147355720Y-115548226D01*
X147371455Y-115581494D01*
X147383853Y-115616143D01*
X147392794Y-115651841D01*
X147398194Y-115688244D01*
X147400000Y-115725000D01*
X147400000Y-116475000D01*
X147398194Y-116511756D01*
X147392794Y-116548159D01*
X147383853Y-116583857D01*
X147371455Y-116618506D01*
X147355720Y-116651774D01*
X147336801Y-116683339D01*
X147314879Y-116712897D01*
X147290165Y-116740165D01*
X147262897Y-116764879D01*
X147233339Y-116786801D01*
X147201774Y-116805720D01*
X147168506Y-116821455D01*
X147133857Y-116833853D01*
X147098159Y-116842794D01*
X147061756Y-116848194D01*
X147025000Y-116850000D01*
X145375000Y-116850000D01*
X145338244Y-116848194D01*
X145301841Y-116842794D01*
X145266143Y-116833853D01*
X145231494Y-116821455D01*
X145198226Y-116805720D01*
X145166661Y-116786801D01*
X145137103Y-116764879D01*
X145109835Y-116740165D01*
X145085121Y-116712897D01*
X145063199Y-116683339D01*
X145044280Y-116651774D01*
X145028545Y-116618506D01*
X145016147Y-116583857D01*
X145007206Y-116548159D01*
X145001806Y-116511756D01*
X145000000Y-116475000D01*
X145000000Y-115725000D01*
X145001806Y-115688244D01*
X145007206Y-115651841D01*
X145016147Y-115616143D01*
X145028545Y-115581494D01*
X145044280Y-115548226D01*
X145063199Y-115516661D01*
X145085121Y-115487103D01*
X145109835Y-115459835D01*
X145137103Y-115435121D01*
X145166661Y-115413199D01*
X145198226Y-115394280D01*
X145231494Y-115378545D01*
X145266143Y-115366147D01*
X145301841Y-115357206D01*
X145338244Y-115351806D01*
X145375000Y-115350000D01*
X147025000Y-115350000D01*
X147061756Y-115351806D01*
X147061756Y-115351806D01*
G37*
D11*
G04 #@! TD*
G04 #@! TO.P,ESC4,2*
G04 #@! TO.N,/TLM*
X146200000Y-116100000D03*
D10*
G04 #@! TO.N,/PWM4*
G04 #@! TO.C,ESC4*
G36*
X147061756Y-117751806D02*
X147098159Y-117757206D01*
X147133857Y-117766147D01*
X147168506Y-117778545D01*
X147201774Y-117794280D01*
X147233339Y-117813199D01*
X147262897Y-117835121D01*
X147290165Y-117859835D01*
X147314879Y-117887103D01*
X147336801Y-117916661D01*
X147355720Y-117948226D01*
X147371455Y-117981494D01*
X147383853Y-118016143D01*
X147392794Y-118051841D01*
X147398194Y-118088244D01*
X147400000Y-118125000D01*
X147400000Y-118875000D01*
X147398194Y-118911756D01*
X147392794Y-118948159D01*
X147383853Y-118983857D01*
X147371455Y-119018506D01*
X147355720Y-119051774D01*
X147336801Y-119083339D01*
X147314879Y-119112897D01*
X147290165Y-119140165D01*
X147262897Y-119164879D01*
X147233339Y-119186801D01*
X147201774Y-119205720D01*
X147168506Y-119221455D01*
X147133857Y-119233853D01*
X147098159Y-119242794D01*
X147061756Y-119248194D01*
X147025000Y-119250000D01*
X145375000Y-119250000D01*
X145338244Y-119248194D01*
X145301841Y-119242794D01*
X145266143Y-119233853D01*
X145231494Y-119221455D01*
X145198226Y-119205720D01*
X145166661Y-119186801D01*
X145137103Y-119164879D01*
X145109835Y-119140165D01*
X145085121Y-119112897D01*
X145063199Y-119083339D01*
X145044280Y-119051774D01*
X145028545Y-119018506D01*
X145016147Y-118983857D01*
X145007206Y-118948159D01*
X145001806Y-118911756D01*
X145000000Y-118875000D01*
X145000000Y-118125000D01*
X145001806Y-118088244D01*
X145007206Y-118051841D01*
X145016147Y-118016143D01*
X145028545Y-117981494D01*
X145044280Y-117948226D01*
X145063199Y-117916661D01*
X145085121Y-117887103D01*
X145109835Y-117859835D01*
X145137103Y-117835121D01*
X145166661Y-117813199D01*
X145198226Y-117794280D01*
X145231494Y-117778545D01*
X145266143Y-117766147D01*
X145301841Y-117757206D01*
X145338244Y-117751806D01*
X145375000Y-117750000D01*
X147025000Y-117750000D01*
X147061756Y-117751806D01*
X147061756Y-117751806D01*
G37*
D11*
G04 #@! TD*
G04 #@! TO.P,ESC4,3*
G04 #@! TO.N,/PWM4*
X146200000Y-118500000D03*
D10*
G04 #@! TO.N,Net-(ESC4-Pad6)*
G04 #@! TO.C,ESC4*
G36*
X174460765Y-112754213D02*
X174545704Y-112766813D01*
X174628999Y-112787677D01*
X174709848Y-112816605D01*
X174787472Y-112853319D01*
X174861124Y-112897464D01*
X174930094Y-112948616D01*
X174993718Y-113006282D01*
X175051384Y-113069906D01*
X175102536Y-113138876D01*
X175146681Y-113212528D01*
X175183395Y-113290152D01*
X175212323Y-113371001D01*
X175233187Y-113454296D01*
X175245787Y-113539235D01*
X175250000Y-113625000D01*
X175250000Y-116375000D01*
X175245787Y-116460765D01*
X175233187Y-116545704D01*
X175212323Y-116628999D01*
X175183395Y-116709848D01*
X175146681Y-116787472D01*
X175102536Y-116861124D01*
X175051384Y-116930094D01*
X174993718Y-116993718D01*
X174930094Y-117051384D01*
X174861124Y-117102536D01*
X174787472Y-117146681D01*
X174709848Y-117183395D01*
X174628999Y-117212323D01*
X174545704Y-117233187D01*
X174460765Y-117245787D01*
X174375000Y-117250000D01*
X172625000Y-117250000D01*
X172539235Y-117245787D01*
X172454296Y-117233187D01*
X172371001Y-117212323D01*
X172290152Y-117183395D01*
X172212528Y-117146681D01*
X172138876Y-117102536D01*
X172069906Y-117051384D01*
X172006282Y-116993718D01*
X171948616Y-116930094D01*
X171897464Y-116861124D01*
X171853319Y-116787472D01*
X171816605Y-116709848D01*
X171787677Y-116628999D01*
X171766813Y-116545704D01*
X171754213Y-116460765D01*
X171750000Y-116375000D01*
X171750000Y-113625000D01*
X171754213Y-113539235D01*
X171766813Y-113454296D01*
X171787677Y-113371001D01*
X171816605Y-113290152D01*
X171853319Y-113212528D01*
X171897464Y-113138876D01*
X171948616Y-113069906D01*
X172006282Y-113006282D01*
X172069906Y-112948616D01*
X172138876Y-112897464D01*
X172212528Y-112853319D01*
X172290152Y-112816605D01*
X172371001Y-112787677D01*
X172454296Y-112766813D01*
X172539235Y-112754213D01*
X172625000Y-112750000D01*
X174375000Y-112750000D01*
X174460765Y-112754213D01*
X174460765Y-112754213D01*
G37*
D12*
G04 #@! TD*
G04 #@! TO.P,ESC4,6*
G04 #@! TO.N,Net-(ESC4-Pad6)*
X173500000Y-115000000D03*
D10*
G04 #@! TO.N,Net-(ESC4-Pad7)*
G04 #@! TO.C,ESC4*
G36*
X174460765Y-106754213D02*
X174545704Y-106766813D01*
X174628999Y-106787677D01*
X174709848Y-106816605D01*
X174787472Y-106853319D01*
X174861124Y-106897464D01*
X174930094Y-106948616D01*
X174993718Y-107006282D01*
X175051384Y-107069906D01*
X175102536Y-107138876D01*
X175146681Y-107212528D01*
X175183395Y-107290152D01*
X175212323Y-107371001D01*
X175233187Y-107454296D01*
X175245787Y-107539235D01*
X175250000Y-107625000D01*
X175250000Y-110375000D01*
X175245787Y-110460765D01*
X175233187Y-110545704D01*
X175212323Y-110628999D01*
X175183395Y-110709848D01*
X175146681Y-110787472D01*
X175102536Y-110861124D01*
X175051384Y-110930094D01*
X174993718Y-110993718D01*
X174930094Y-111051384D01*
X174861124Y-111102536D01*
X174787472Y-111146681D01*
X174709848Y-111183395D01*
X174628999Y-111212323D01*
X174545704Y-111233187D01*
X174460765Y-111245787D01*
X174375000Y-111250000D01*
X172625000Y-111250000D01*
X172539235Y-111245787D01*
X172454296Y-111233187D01*
X172371001Y-111212323D01*
X172290152Y-111183395D01*
X172212528Y-111146681D01*
X172138876Y-111102536D01*
X172069906Y-111051384D01*
X172006282Y-110993718D01*
X171948616Y-110930094D01*
X171897464Y-110861124D01*
X171853319Y-110787472D01*
X171816605Y-110709848D01*
X171787677Y-110628999D01*
X171766813Y-110545704D01*
X171754213Y-110460765D01*
X171750000Y-110375000D01*
X171750000Y-107625000D01*
X171754213Y-107539235D01*
X171766813Y-107454296D01*
X171787677Y-107371001D01*
X171816605Y-107290152D01*
X171853319Y-107212528D01*
X171897464Y-107138876D01*
X171948616Y-107069906D01*
X172006282Y-107006282D01*
X172069906Y-106948616D01*
X172138876Y-106897464D01*
X172212528Y-106853319D01*
X172290152Y-106816605D01*
X172371001Y-106787677D01*
X172454296Y-106766813D01*
X172539235Y-106754213D01*
X172625000Y-106750000D01*
X174375000Y-106750000D01*
X174460765Y-106754213D01*
X174460765Y-106754213D01*
G37*
D12*
G04 #@! TD*
G04 #@! TO.P,ESC4,7*
G04 #@! TO.N,Net-(ESC4-Pad7)*
X173500000Y-109000000D03*
D10*
G04 #@! TO.N,Net-(ESC4-Pad5)*
G04 #@! TO.C,ESC4*
G36*
X174460765Y-118754213D02*
X174545704Y-118766813D01*
X174628999Y-118787677D01*
X174709848Y-118816605D01*
X174787472Y-118853319D01*
X174861124Y-118897464D01*
X174930094Y-118948616D01*
X174993718Y-119006282D01*
X175051384Y-119069906D01*
X175102536Y-119138876D01*
X175146681Y-119212528D01*
X175183395Y-119290152D01*
X175212323Y-119371001D01*
X175233187Y-119454296D01*
X175245787Y-119539235D01*
X175250000Y-119625000D01*
X175250000Y-122375000D01*
X175245787Y-122460765D01*
X175233187Y-122545704D01*
X175212323Y-122628999D01*
X175183395Y-122709848D01*
X175146681Y-122787472D01*
X175102536Y-122861124D01*
X175051384Y-122930094D01*
X174993718Y-122993718D01*
X174930094Y-123051384D01*
X174861124Y-123102536D01*
X174787472Y-123146681D01*
X174709848Y-123183395D01*
X174628999Y-123212323D01*
X174545704Y-123233187D01*
X174460765Y-123245787D01*
X174375000Y-123250000D01*
X172625000Y-123250000D01*
X172539235Y-123245787D01*
X172454296Y-123233187D01*
X172371001Y-123212323D01*
X172290152Y-123183395D01*
X172212528Y-123146681D01*
X172138876Y-123102536D01*
X172069906Y-123051384D01*
X172006282Y-122993718D01*
X171948616Y-122930094D01*
X171897464Y-122861124D01*
X171853319Y-122787472D01*
X171816605Y-122709848D01*
X171787677Y-122628999D01*
X171766813Y-122545704D01*
X171754213Y-122460765D01*
X171750000Y-122375000D01*
X171750000Y-119625000D01*
X171754213Y-119539235D01*
X171766813Y-119454296D01*
X171787677Y-119371001D01*
X171816605Y-119290152D01*
X171853319Y-119212528D01*
X171897464Y-119138876D01*
X171948616Y-119069906D01*
X172006282Y-119006282D01*
X172069906Y-118948616D01*
X172138876Y-118897464D01*
X172212528Y-118853319D01*
X172290152Y-118816605D01*
X172371001Y-118787677D01*
X172454296Y-118766813D01*
X172539235Y-118754213D01*
X172625000Y-118750000D01*
X174375000Y-118750000D01*
X174460765Y-118754213D01*
X174460765Y-118754213D01*
G37*
D12*
G04 #@! TD*
G04 #@! TO.P,ESC4,5*
G04 #@! TO.N,Net-(ESC4-Pad5)*
X173500000Y-121000000D03*
D10*
G04 #@! TO.N,GND*
G04 #@! TO.C,ESC4*
G36*
X147323513Y-120703611D02*
X147396318Y-120714411D01*
X147467714Y-120732295D01*
X147537013Y-120757090D01*
X147603548Y-120788559D01*
X147666678Y-120826398D01*
X147725795Y-120870242D01*
X147780330Y-120919670D01*
X147829758Y-120974205D01*
X147873602Y-121033322D01*
X147911441Y-121096452D01*
X147942910Y-121162987D01*
X147967705Y-121232286D01*
X147985589Y-121303682D01*
X147996389Y-121376487D01*
X148000000Y-121450000D01*
X148000000Y-123950000D01*
X147996389Y-124023513D01*
X147985589Y-124096318D01*
X147967705Y-124167714D01*
X147942910Y-124237013D01*
X147911441Y-124303548D01*
X147873602Y-124366678D01*
X147829758Y-124425795D01*
X147780330Y-124480330D01*
X147725795Y-124529758D01*
X147666678Y-124573602D01*
X147603548Y-124611441D01*
X147537013Y-124642910D01*
X147467714Y-124667705D01*
X147396318Y-124685589D01*
X147323513Y-124696389D01*
X147250000Y-124700000D01*
X145750000Y-124700000D01*
X145676487Y-124696389D01*
X145603682Y-124685589D01*
X145532286Y-124667705D01*
X145462987Y-124642910D01*
X145396452Y-124611441D01*
X145333322Y-124573602D01*
X145274205Y-124529758D01*
X145219670Y-124480330D01*
X145170242Y-124425795D01*
X145126398Y-124366678D01*
X145088559Y-124303548D01*
X145057090Y-124237013D01*
X145032295Y-124167714D01*
X145014411Y-124096318D01*
X145003611Y-124023513D01*
X145000000Y-123950000D01*
X145000000Y-121450000D01*
X145003611Y-121376487D01*
X145014411Y-121303682D01*
X145032295Y-121232286D01*
X145057090Y-121162987D01*
X145088559Y-121096452D01*
X145126398Y-121033322D01*
X145170242Y-120974205D01*
X145219670Y-120919670D01*
X145274205Y-120870242D01*
X145333322Y-120826398D01*
X145396452Y-120788559D01*
X145462987Y-120757090D01*
X145532286Y-120732295D01*
X145603682Y-120714411D01*
X145676487Y-120703611D01*
X145750000Y-120700000D01*
X147250000Y-120700000D01*
X147323513Y-120703611D01*
X147323513Y-120703611D01*
G37*
D13*
G04 #@! TD*
G04 #@! TO.P,ESC4,4*
G04 #@! TO.N,GND*
X146500000Y-122700000D03*
D10*
G04 #@! TO.N,+BATT*
G04 #@! TO.C,ESC4*
G36*
X147323513Y-105303611D02*
X147396318Y-105314411D01*
X147467714Y-105332295D01*
X147537013Y-105357090D01*
X147603548Y-105388559D01*
X147666678Y-105426398D01*
X147725795Y-105470242D01*
X147780330Y-105519670D01*
X147829758Y-105574205D01*
X147873602Y-105633322D01*
X147911441Y-105696452D01*
X147942910Y-105762987D01*
X147967705Y-105832286D01*
X147985589Y-105903682D01*
X147996389Y-105976487D01*
X148000000Y-106050000D01*
X148000000Y-108550000D01*
X147996389Y-108623513D01*
X147985589Y-108696318D01*
X147967705Y-108767714D01*
X147942910Y-108837013D01*
X147911441Y-108903548D01*
X147873602Y-108966678D01*
X147829758Y-109025795D01*
X147780330Y-109080330D01*
X147725795Y-109129758D01*
X147666678Y-109173602D01*
X147603548Y-109211441D01*
X147537013Y-109242910D01*
X147467714Y-109267705D01*
X147396318Y-109285589D01*
X147323513Y-109296389D01*
X147250000Y-109300000D01*
X145750000Y-109300000D01*
X145676487Y-109296389D01*
X145603682Y-109285589D01*
X145532286Y-109267705D01*
X145462987Y-109242910D01*
X145396452Y-109211441D01*
X145333322Y-109173602D01*
X145274205Y-109129758D01*
X145219670Y-109080330D01*
X145170242Y-109025795D01*
X145126398Y-108966678D01*
X145088559Y-108903548D01*
X145057090Y-108837013D01*
X145032295Y-108767714D01*
X145014411Y-108696318D01*
X145003611Y-108623513D01*
X145000000Y-108550000D01*
X145000000Y-106050000D01*
X145003611Y-105976487D01*
X145014411Y-105903682D01*
X145032295Y-105832286D01*
X145057090Y-105762987D01*
X145088559Y-105696452D01*
X145126398Y-105633322D01*
X145170242Y-105574205D01*
X145219670Y-105519670D01*
X145274205Y-105470242D01*
X145333322Y-105426398D01*
X145396452Y-105388559D01*
X145462987Y-105357090D01*
X145532286Y-105332295D01*
X145603682Y-105314411D01*
X145676487Y-105303611D01*
X145750000Y-105300000D01*
X147250000Y-105300000D01*
X147323513Y-105303611D01*
X147323513Y-105303611D01*
G37*
D13*
G04 #@! TD*
G04 #@! TO.P,ESC4,1*
G04 #@! TO.N,+BATT*
X146500000Y-107300000D03*
D10*
G04 #@! TO.N,+BATT*
G04 #@! TO.C,ESC3*
G36*
X139023513Y-130003611D02*
X139096318Y-130014411D01*
X139167714Y-130032295D01*
X139237013Y-130057090D01*
X139303548Y-130088559D01*
X139366678Y-130126398D01*
X139425795Y-130170242D01*
X139480330Y-130219670D01*
X139529758Y-130274205D01*
X139573602Y-130333322D01*
X139611441Y-130396452D01*
X139642910Y-130462987D01*
X139667705Y-130532286D01*
X139685589Y-130603682D01*
X139696389Y-130676487D01*
X139700000Y-130750000D01*
X139700000Y-132250000D01*
X139696389Y-132323513D01*
X139685589Y-132396318D01*
X139667705Y-132467714D01*
X139642910Y-132537013D01*
X139611441Y-132603548D01*
X139573602Y-132666678D01*
X139529758Y-132725795D01*
X139480330Y-132780330D01*
X139425795Y-132829758D01*
X139366678Y-132873602D01*
X139303548Y-132911441D01*
X139237013Y-132942910D01*
X139167714Y-132967705D01*
X139096318Y-132985589D01*
X139023513Y-132996389D01*
X138950000Y-133000000D01*
X136450000Y-133000000D01*
X136376487Y-132996389D01*
X136303682Y-132985589D01*
X136232286Y-132967705D01*
X136162987Y-132942910D01*
X136096452Y-132911441D01*
X136033322Y-132873602D01*
X135974205Y-132829758D01*
X135919670Y-132780330D01*
X135870242Y-132725795D01*
X135826398Y-132666678D01*
X135788559Y-132603548D01*
X135757090Y-132537013D01*
X135732295Y-132467714D01*
X135714411Y-132396318D01*
X135703611Y-132323513D01*
X135700000Y-132250000D01*
X135700000Y-130750000D01*
X135703611Y-130676487D01*
X135714411Y-130603682D01*
X135732295Y-130532286D01*
X135757090Y-130462987D01*
X135788559Y-130396452D01*
X135826398Y-130333322D01*
X135870242Y-130274205D01*
X135919670Y-130219670D01*
X135974205Y-130170242D01*
X136033322Y-130126398D01*
X136096452Y-130088559D01*
X136162987Y-130057090D01*
X136232286Y-130032295D01*
X136303682Y-130014411D01*
X136376487Y-130003611D01*
X136450000Y-130000000D01*
X138950000Y-130000000D01*
X139023513Y-130003611D01*
X139023513Y-130003611D01*
G37*
D13*
G04 #@! TD*
G04 #@! TO.P,ESC3,1*
G04 #@! TO.N,+BATT*
X137700000Y-131500000D03*
D10*
G04 #@! TO.N,GND*
G04 #@! TO.C,ESC3*
G36*
X123623513Y-130003611D02*
X123696318Y-130014411D01*
X123767714Y-130032295D01*
X123837013Y-130057090D01*
X123903548Y-130088559D01*
X123966678Y-130126398D01*
X124025795Y-130170242D01*
X124080330Y-130219670D01*
X124129758Y-130274205D01*
X124173602Y-130333322D01*
X124211441Y-130396452D01*
X124242910Y-130462987D01*
X124267705Y-130532286D01*
X124285589Y-130603682D01*
X124296389Y-130676487D01*
X124300000Y-130750000D01*
X124300000Y-132250000D01*
X124296389Y-132323513D01*
X124285589Y-132396318D01*
X124267705Y-132467714D01*
X124242910Y-132537013D01*
X124211441Y-132603548D01*
X124173602Y-132666678D01*
X124129758Y-132725795D01*
X124080330Y-132780330D01*
X124025795Y-132829758D01*
X123966678Y-132873602D01*
X123903548Y-132911441D01*
X123837013Y-132942910D01*
X123767714Y-132967705D01*
X123696318Y-132985589D01*
X123623513Y-132996389D01*
X123550000Y-133000000D01*
X121050000Y-133000000D01*
X120976487Y-132996389D01*
X120903682Y-132985589D01*
X120832286Y-132967705D01*
X120762987Y-132942910D01*
X120696452Y-132911441D01*
X120633322Y-132873602D01*
X120574205Y-132829758D01*
X120519670Y-132780330D01*
X120470242Y-132725795D01*
X120426398Y-132666678D01*
X120388559Y-132603548D01*
X120357090Y-132537013D01*
X120332295Y-132467714D01*
X120314411Y-132396318D01*
X120303611Y-132323513D01*
X120300000Y-132250000D01*
X120300000Y-130750000D01*
X120303611Y-130676487D01*
X120314411Y-130603682D01*
X120332295Y-130532286D01*
X120357090Y-130462987D01*
X120388559Y-130396452D01*
X120426398Y-130333322D01*
X120470242Y-130274205D01*
X120519670Y-130219670D01*
X120574205Y-130170242D01*
X120633322Y-130126398D01*
X120696452Y-130088559D01*
X120762987Y-130057090D01*
X120832286Y-130032295D01*
X120903682Y-130014411D01*
X120976487Y-130003611D01*
X121050000Y-130000000D01*
X123550000Y-130000000D01*
X123623513Y-130003611D01*
X123623513Y-130003611D01*
G37*
D13*
G04 #@! TD*
G04 #@! TO.P,ESC3,4*
G04 #@! TO.N,GND*
X122300000Y-131500000D03*
D10*
G04 #@! TO.N,Net-(ESC3-Pad5)*
G04 #@! TO.C,ESC3*
G36*
X125460765Y-156754213D02*
X125545704Y-156766813D01*
X125628999Y-156787677D01*
X125709848Y-156816605D01*
X125787472Y-156853319D01*
X125861124Y-156897464D01*
X125930094Y-156948616D01*
X125993718Y-157006282D01*
X126051384Y-157069906D01*
X126102536Y-157138876D01*
X126146681Y-157212528D01*
X126183395Y-157290152D01*
X126212323Y-157371001D01*
X126233187Y-157454296D01*
X126245787Y-157539235D01*
X126250000Y-157625000D01*
X126250000Y-159375000D01*
X126245787Y-159460765D01*
X126233187Y-159545704D01*
X126212323Y-159628999D01*
X126183395Y-159709848D01*
X126146681Y-159787472D01*
X126102536Y-159861124D01*
X126051384Y-159930094D01*
X125993718Y-159993718D01*
X125930094Y-160051384D01*
X125861124Y-160102536D01*
X125787472Y-160146681D01*
X125709848Y-160183395D01*
X125628999Y-160212323D01*
X125545704Y-160233187D01*
X125460765Y-160245787D01*
X125375000Y-160250000D01*
X122625000Y-160250000D01*
X122539235Y-160245787D01*
X122454296Y-160233187D01*
X122371001Y-160212323D01*
X122290152Y-160183395D01*
X122212528Y-160146681D01*
X122138876Y-160102536D01*
X122069906Y-160051384D01*
X122006282Y-159993718D01*
X121948616Y-159930094D01*
X121897464Y-159861124D01*
X121853319Y-159787472D01*
X121816605Y-159709848D01*
X121787677Y-159628999D01*
X121766813Y-159545704D01*
X121754213Y-159460765D01*
X121750000Y-159375000D01*
X121750000Y-157625000D01*
X121754213Y-157539235D01*
X121766813Y-157454296D01*
X121787677Y-157371001D01*
X121816605Y-157290152D01*
X121853319Y-157212528D01*
X121897464Y-157138876D01*
X121948616Y-157069906D01*
X122006282Y-157006282D01*
X122069906Y-156948616D01*
X122138876Y-156897464D01*
X122212528Y-156853319D01*
X122290152Y-156816605D01*
X122371001Y-156787677D01*
X122454296Y-156766813D01*
X122539235Y-156754213D01*
X122625000Y-156750000D01*
X125375000Y-156750000D01*
X125460765Y-156754213D01*
X125460765Y-156754213D01*
G37*
D12*
G04 #@! TD*
G04 #@! TO.P,ESC3,5*
G04 #@! TO.N,Net-(ESC3-Pad5)*
X124000000Y-158500000D03*
D10*
G04 #@! TO.N,Net-(ESC3-Pad7)*
G04 #@! TO.C,ESC3*
G36*
X137460765Y-156754213D02*
X137545704Y-156766813D01*
X137628999Y-156787677D01*
X137709848Y-156816605D01*
X137787472Y-156853319D01*
X137861124Y-156897464D01*
X137930094Y-156948616D01*
X137993718Y-157006282D01*
X138051384Y-157069906D01*
X138102536Y-157138876D01*
X138146681Y-157212528D01*
X138183395Y-157290152D01*
X138212323Y-157371001D01*
X138233187Y-157454296D01*
X138245787Y-157539235D01*
X138250000Y-157625000D01*
X138250000Y-159375000D01*
X138245787Y-159460765D01*
X138233187Y-159545704D01*
X138212323Y-159628999D01*
X138183395Y-159709848D01*
X138146681Y-159787472D01*
X138102536Y-159861124D01*
X138051384Y-159930094D01*
X137993718Y-159993718D01*
X137930094Y-160051384D01*
X137861124Y-160102536D01*
X137787472Y-160146681D01*
X137709848Y-160183395D01*
X137628999Y-160212323D01*
X137545704Y-160233187D01*
X137460765Y-160245787D01*
X137375000Y-160250000D01*
X134625000Y-160250000D01*
X134539235Y-160245787D01*
X134454296Y-160233187D01*
X134371001Y-160212323D01*
X134290152Y-160183395D01*
X134212528Y-160146681D01*
X134138876Y-160102536D01*
X134069906Y-160051384D01*
X134006282Y-159993718D01*
X133948616Y-159930094D01*
X133897464Y-159861124D01*
X133853319Y-159787472D01*
X133816605Y-159709848D01*
X133787677Y-159628999D01*
X133766813Y-159545704D01*
X133754213Y-159460765D01*
X133750000Y-159375000D01*
X133750000Y-157625000D01*
X133754213Y-157539235D01*
X133766813Y-157454296D01*
X133787677Y-157371001D01*
X133816605Y-157290152D01*
X133853319Y-157212528D01*
X133897464Y-157138876D01*
X133948616Y-157069906D01*
X134006282Y-157006282D01*
X134069906Y-156948616D01*
X134138876Y-156897464D01*
X134212528Y-156853319D01*
X134290152Y-156816605D01*
X134371001Y-156787677D01*
X134454296Y-156766813D01*
X134539235Y-156754213D01*
X134625000Y-156750000D01*
X137375000Y-156750000D01*
X137460765Y-156754213D01*
X137460765Y-156754213D01*
G37*
D12*
G04 #@! TD*
G04 #@! TO.P,ESC3,7*
G04 #@! TO.N,Net-(ESC3-Pad7)*
X136000000Y-158500000D03*
D10*
G04 #@! TO.N,Net-(ESC3-Pad6)*
G04 #@! TO.C,ESC3*
G36*
X131460765Y-156754213D02*
X131545704Y-156766813D01*
X131628999Y-156787677D01*
X131709848Y-156816605D01*
X131787472Y-156853319D01*
X131861124Y-156897464D01*
X131930094Y-156948616D01*
X131993718Y-157006282D01*
X132051384Y-157069906D01*
X132102536Y-157138876D01*
X132146681Y-157212528D01*
X132183395Y-157290152D01*
X132212323Y-157371001D01*
X132233187Y-157454296D01*
X132245787Y-157539235D01*
X132250000Y-157625000D01*
X132250000Y-159375000D01*
X132245787Y-159460765D01*
X132233187Y-159545704D01*
X132212323Y-159628999D01*
X132183395Y-159709848D01*
X132146681Y-159787472D01*
X132102536Y-159861124D01*
X132051384Y-159930094D01*
X131993718Y-159993718D01*
X131930094Y-160051384D01*
X131861124Y-160102536D01*
X131787472Y-160146681D01*
X131709848Y-160183395D01*
X131628999Y-160212323D01*
X131545704Y-160233187D01*
X131460765Y-160245787D01*
X131375000Y-160250000D01*
X128625000Y-160250000D01*
X128539235Y-160245787D01*
X128454296Y-160233187D01*
X128371001Y-160212323D01*
X128290152Y-160183395D01*
X128212528Y-160146681D01*
X128138876Y-160102536D01*
X128069906Y-160051384D01*
X128006282Y-159993718D01*
X127948616Y-159930094D01*
X127897464Y-159861124D01*
X127853319Y-159787472D01*
X127816605Y-159709848D01*
X127787677Y-159628999D01*
X127766813Y-159545704D01*
X127754213Y-159460765D01*
X127750000Y-159375000D01*
X127750000Y-157625000D01*
X127754213Y-157539235D01*
X127766813Y-157454296D01*
X127787677Y-157371001D01*
X127816605Y-157290152D01*
X127853319Y-157212528D01*
X127897464Y-157138876D01*
X127948616Y-157069906D01*
X128006282Y-157006282D01*
X128069906Y-156948616D01*
X128138876Y-156897464D01*
X128212528Y-156853319D01*
X128290152Y-156816605D01*
X128371001Y-156787677D01*
X128454296Y-156766813D01*
X128539235Y-156754213D01*
X128625000Y-156750000D01*
X131375000Y-156750000D01*
X131460765Y-156754213D01*
X131460765Y-156754213D01*
G37*
D12*
G04 #@! TD*
G04 #@! TO.P,ESC3,6*
G04 #@! TO.N,Net-(ESC3-Pad6)*
X130000000Y-158500000D03*
D10*
G04 #@! TO.N,/PWM3*
G04 #@! TO.C,ESC3*
G36*
X126911756Y-130001806D02*
X126948159Y-130007206D01*
X126983857Y-130016147D01*
X127018506Y-130028545D01*
X127051774Y-130044280D01*
X127083339Y-130063199D01*
X127112897Y-130085121D01*
X127140165Y-130109835D01*
X127164879Y-130137103D01*
X127186801Y-130166661D01*
X127205720Y-130198226D01*
X127221455Y-130231494D01*
X127233853Y-130266143D01*
X127242794Y-130301841D01*
X127248194Y-130338244D01*
X127250000Y-130375000D01*
X127250000Y-132025000D01*
X127248194Y-132061756D01*
X127242794Y-132098159D01*
X127233853Y-132133857D01*
X127221455Y-132168506D01*
X127205720Y-132201774D01*
X127186801Y-132233339D01*
X127164879Y-132262897D01*
X127140165Y-132290165D01*
X127112897Y-132314879D01*
X127083339Y-132336801D01*
X127051774Y-132355720D01*
X127018506Y-132371455D01*
X126983857Y-132383853D01*
X126948159Y-132392794D01*
X126911756Y-132398194D01*
X126875000Y-132400000D01*
X126125000Y-132400000D01*
X126088244Y-132398194D01*
X126051841Y-132392794D01*
X126016143Y-132383853D01*
X125981494Y-132371455D01*
X125948226Y-132355720D01*
X125916661Y-132336801D01*
X125887103Y-132314879D01*
X125859835Y-132290165D01*
X125835121Y-132262897D01*
X125813199Y-132233339D01*
X125794280Y-132201774D01*
X125778545Y-132168506D01*
X125766147Y-132133857D01*
X125757206Y-132098159D01*
X125751806Y-132061756D01*
X125750000Y-132025000D01*
X125750000Y-130375000D01*
X125751806Y-130338244D01*
X125757206Y-130301841D01*
X125766147Y-130266143D01*
X125778545Y-130231494D01*
X125794280Y-130198226D01*
X125813199Y-130166661D01*
X125835121Y-130137103D01*
X125859835Y-130109835D01*
X125887103Y-130085121D01*
X125916661Y-130063199D01*
X125948226Y-130044280D01*
X125981494Y-130028545D01*
X126016143Y-130016147D01*
X126051841Y-130007206D01*
X126088244Y-130001806D01*
X126125000Y-130000000D01*
X126875000Y-130000000D01*
X126911756Y-130001806D01*
X126911756Y-130001806D01*
G37*
D11*
G04 #@! TD*
G04 #@! TO.P,ESC3,3*
G04 #@! TO.N,/PWM3*
X126500000Y-131200000D03*
D10*
G04 #@! TO.N,/TLM*
G04 #@! TO.C,ESC3*
G36*
X129311756Y-130001806D02*
X129348159Y-130007206D01*
X129383857Y-130016147D01*
X129418506Y-130028545D01*
X129451774Y-130044280D01*
X129483339Y-130063199D01*
X129512897Y-130085121D01*
X129540165Y-130109835D01*
X129564879Y-130137103D01*
X129586801Y-130166661D01*
X129605720Y-130198226D01*
X129621455Y-130231494D01*
X129633853Y-130266143D01*
X129642794Y-130301841D01*
X129648194Y-130338244D01*
X129650000Y-130375000D01*
X129650000Y-132025000D01*
X129648194Y-132061756D01*
X129642794Y-132098159D01*
X129633853Y-132133857D01*
X129621455Y-132168506D01*
X129605720Y-132201774D01*
X129586801Y-132233339D01*
X129564879Y-132262897D01*
X129540165Y-132290165D01*
X129512897Y-132314879D01*
X129483339Y-132336801D01*
X129451774Y-132355720D01*
X129418506Y-132371455D01*
X129383857Y-132383853D01*
X129348159Y-132392794D01*
X129311756Y-132398194D01*
X129275000Y-132400000D01*
X128525000Y-132400000D01*
X128488244Y-132398194D01*
X128451841Y-132392794D01*
X128416143Y-132383853D01*
X128381494Y-132371455D01*
X128348226Y-132355720D01*
X128316661Y-132336801D01*
X128287103Y-132314879D01*
X128259835Y-132290165D01*
X128235121Y-132262897D01*
X128213199Y-132233339D01*
X128194280Y-132201774D01*
X128178545Y-132168506D01*
X128166147Y-132133857D01*
X128157206Y-132098159D01*
X128151806Y-132061756D01*
X128150000Y-132025000D01*
X128150000Y-130375000D01*
X128151806Y-130338244D01*
X128157206Y-130301841D01*
X128166147Y-130266143D01*
X128178545Y-130231494D01*
X128194280Y-130198226D01*
X128213199Y-130166661D01*
X128235121Y-130137103D01*
X128259835Y-130109835D01*
X128287103Y-130085121D01*
X128316661Y-130063199D01*
X128348226Y-130044280D01*
X128381494Y-130028545D01*
X128416143Y-130016147D01*
X128451841Y-130007206D01*
X128488244Y-130001806D01*
X128525000Y-130000000D01*
X129275000Y-130000000D01*
X129311756Y-130001806D01*
X129311756Y-130001806D01*
G37*
D11*
G04 #@! TD*
G04 #@! TO.P,ESC3,2*
G04 #@! TO.N,/TLM*
X128900000Y-131200000D03*
D10*
G04 #@! TO.N,/TLM*
G04 #@! TO.C,ESC2*
G36*
X114661756Y-113151806D02*
X114698159Y-113157206D01*
X114733857Y-113166147D01*
X114768506Y-113178545D01*
X114801774Y-113194280D01*
X114833339Y-113213199D01*
X114862897Y-113235121D01*
X114890165Y-113259835D01*
X114914879Y-113287103D01*
X114936801Y-113316661D01*
X114955720Y-113348226D01*
X114971455Y-113381494D01*
X114983853Y-113416143D01*
X114992794Y-113451841D01*
X114998194Y-113488244D01*
X115000000Y-113525000D01*
X115000000Y-114275000D01*
X114998194Y-114311756D01*
X114992794Y-114348159D01*
X114983853Y-114383857D01*
X114971455Y-114418506D01*
X114955720Y-114451774D01*
X114936801Y-114483339D01*
X114914879Y-114512897D01*
X114890165Y-114540165D01*
X114862897Y-114564879D01*
X114833339Y-114586801D01*
X114801774Y-114605720D01*
X114768506Y-114621455D01*
X114733857Y-114633853D01*
X114698159Y-114642794D01*
X114661756Y-114648194D01*
X114625000Y-114650000D01*
X112975000Y-114650000D01*
X112938244Y-114648194D01*
X112901841Y-114642794D01*
X112866143Y-114633853D01*
X112831494Y-114621455D01*
X112798226Y-114605720D01*
X112766661Y-114586801D01*
X112737103Y-114564879D01*
X112709835Y-114540165D01*
X112685121Y-114512897D01*
X112663199Y-114483339D01*
X112644280Y-114451774D01*
X112628545Y-114418506D01*
X112616147Y-114383857D01*
X112607206Y-114348159D01*
X112601806Y-114311756D01*
X112600000Y-114275000D01*
X112600000Y-113525000D01*
X112601806Y-113488244D01*
X112607206Y-113451841D01*
X112616147Y-113416143D01*
X112628545Y-113381494D01*
X112644280Y-113348226D01*
X112663199Y-113316661D01*
X112685121Y-113287103D01*
X112709835Y-113259835D01*
X112737103Y-113235121D01*
X112766661Y-113213199D01*
X112798226Y-113194280D01*
X112831494Y-113178545D01*
X112866143Y-113166147D01*
X112901841Y-113157206D01*
X112938244Y-113151806D01*
X112975000Y-113150000D01*
X114625000Y-113150000D01*
X114661756Y-113151806D01*
X114661756Y-113151806D01*
G37*
D11*
G04 #@! TD*
G04 #@! TO.P,ESC2,2*
G04 #@! TO.N,/TLM*
X113800000Y-113900000D03*
D10*
G04 #@! TO.N,/PWM2*
G04 #@! TO.C,ESC2*
G36*
X114661756Y-110751806D02*
X114698159Y-110757206D01*
X114733857Y-110766147D01*
X114768506Y-110778545D01*
X114801774Y-110794280D01*
X114833339Y-110813199D01*
X114862897Y-110835121D01*
X114890165Y-110859835D01*
X114914879Y-110887103D01*
X114936801Y-110916661D01*
X114955720Y-110948226D01*
X114971455Y-110981494D01*
X114983853Y-111016143D01*
X114992794Y-111051841D01*
X114998194Y-111088244D01*
X115000000Y-111125000D01*
X115000000Y-111875000D01*
X114998194Y-111911756D01*
X114992794Y-111948159D01*
X114983853Y-111983857D01*
X114971455Y-112018506D01*
X114955720Y-112051774D01*
X114936801Y-112083339D01*
X114914879Y-112112897D01*
X114890165Y-112140165D01*
X114862897Y-112164879D01*
X114833339Y-112186801D01*
X114801774Y-112205720D01*
X114768506Y-112221455D01*
X114733857Y-112233853D01*
X114698159Y-112242794D01*
X114661756Y-112248194D01*
X114625000Y-112250000D01*
X112975000Y-112250000D01*
X112938244Y-112248194D01*
X112901841Y-112242794D01*
X112866143Y-112233853D01*
X112831494Y-112221455D01*
X112798226Y-112205720D01*
X112766661Y-112186801D01*
X112737103Y-112164879D01*
X112709835Y-112140165D01*
X112685121Y-112112897D01*
X112663199Y-112083339D01*
X112644280Y-112051774D01*
X112628545Y-112018506D01*
X112616147Y-111983857D01*
X112607206Y-111948159D01*
X112601806Y-111911756D01*
X112600000Y-111875000D01*
X112600000Y-111125000D01*
X112601806Y-111088244D01*
X112607206Y-111051841D01*
X112616147Y-111016143D01*
X112628545Y-110981494D01*
X112644280Y-110948226D01*
X112663199Y-110916661D01*
X112685121Y-110887103D01*
X112709835Y-110859835D01*
X112737103Y-110835121D01*
X112766661Y-110813199D01*
X112798226Y-110794280D01*
X112831494Y-110778545D01*
X112866143Y-110766147D01*
X112901841Y-110757206D01*
X112938244Y-110751806D01*
X112975000Y-110750000D01*
X114625000Y-110750000D01*
X114661756Y-110751806D01*
X114661756Y-110751806D01*
G37*
D11*
G04 #@! TD*
G04 #@! TO.P,ESC2,3*
G04 #@! TO.N,/PWM2*
X113800000Y-111500000D03*
D10*
G04 #@! TO.N,Net-(ESC2-Pad6)*
G04 #@! TO.C,ESC2*
G36*
X87460765Y-112754213D02*
X87545704Y-112766813D01*
X87628999Y-112787677D01*
X87709848Y-112816605D01*
X87787472Y-112853319D01*
X87861124Y-112897464D01*
X87930094Y-112948616D01*
X87993718Y-113006282D01*
X88051384Y-113069906D01*
X88102536Y-113138876D01*
X88146681Y-113212528D01*
X88183395Y-113290152D01*
X88212323Y-113371001D01*
X88233187Y-113454296D01*
X88245787Y-113539235D01*
X88250000Y-113625000D01*
X88250000Y-116375000D01*
X88245787Y-116460765D01*
X88233187Y-116545704D01*
X88212323Y-116628999D01*
X88183395Y-116709848D01*
X88146681Y-116787472D01*
X88102536Y-116861124D01*
X88051384Y-116930094D01*
X87993718Y-116993718D01*
X87930094Y-117051384D01*
X87861124Y-117102536D01*
X87787472Y-117146681D01*
X87709848Y-117183395D01*
X87628999Y-117212323D01*
X87545704Y-117233187D01*
X87460765Y-117245787D01*
X87375000Y-117250000D01*
X85625000Y-117250000D01*
X85539235Y-117245787D01*
X85454296Y-117233187D01*
X85371001Y-117212323D01*
X85290152Y-117183395D01*
X85212528Y-117146681D01*
X85138876Y-117102536D01*
X85069906Y-117051384D01*
X85006282Y-116993718D01*
X84948616Y-116930094D01*
X84897464Y-116861124D01*
X84853319Y-116787472D01*
X84816605Y-116709848D01*
X84787677Y-116628999D01*
X84766813Y-116545704D01*
X84754213Y-116460765D01*
X84750000Y-116375000D01*
X84750000Y-113625000D01*
X84754213Y-113539235D01*
X84766813Y-113454296D01*
X84787677Y-113371001D01*
X84816605Y-113290152D01*
X84853319Y-113212528D01*
X84897464Y-113138876D01*
X84948616Y-113069906D01*
X85006282Y-113006282D01*
X85069906Y-112948616D01*
X85138876Y-112897464D01*
X85212528Y-112853319D01*
X85290152Y-112816605D01*
X85371001Y-112787677D01*
X85454296Y-112766813D01*
X85539235Y-112754213D01*
X85625000Y-112750000D01*
X87375000Y-112750000D01*
X87460765Y-112754213D01*
X87460765Y-112754213D01*
G37*
D12*
G04 #@! TD*
G04 #@! TO.P,ESC2,6*
G04 #@! TO.N,Net-(ESC2-Pad6)*
X86500000Y-115000000D03*
D10*
G04 #@! TO.N,Net-(ESC2-Pad7)*
G04 #@! TO.C,ESC2*
G36*
X87460765Y-118754213D02*
X87545704Y-118766813D01*
X87628999Y-118787677D01*
X87709848Y-118816605D01*
X87787472Y-118853319D01*
X87861124Y-118897464D01*
X87930094Y-118948616D01*
X87993718Y-119006282D01*
X88051384Y-119069906D01*
X88102536Y-119138876D01*
X88146681Y-119212528D01*
X88183395Y-119290152D01*
X88212323Y-119371001D01*
X88233187Y-119454296D01*
X88245787Y-119539235D01*
X88250000Y-119625000D01*
X88250000Y-122375000D01*
X88245787Y-122460765D01*
X88233187Y-122545704D01*
X88212323Y-122628999D01*
X88183395Y-122709848D01*
X88146681Y-122787472D01*
X88102536Y-122861124D01*
X88051384Y-122930094D01*
X87993718Y-122993718D01*
X87930094Y-123051384D01*
X87861124Y-123102536D01*
X87787472Y-123146681D01*
X87709848Y-123183395D01*
X87628999Y-123212323D01*
X87545704Y-123233187D01*
X87460765Y-123245787D01*
X87375000Y-123250000D01*
X85625000Y-123250000D01*
X85539235Y-123245787D01*
X85454296Y-123233187D01*
X85371001Y-123212323D01*
X85290152Y-123183395D01*
X85212528Y-123146681D01*
X85138876Y-123102536D01*
X85069906Y-123051384D01*
X85006282Y-122993718D01*
X84948616Y-122930094D01*
X84897464Y-122861124D01*
X84853319Y-122787472D01*
X84816605Y-122709848D01*
X84787677Y-122628999D01*
X84766813Y-122545704D01*
X84754213Y-122460765D01*
X84750000Y-122375000D01*
X84750000Y-119625000D01*
X84754213Y-119539235D01*
X84766813Y-119454296D01*
X84787677Y-119371001D01*
X84816605Y-119290152D01*
X84853319Y-119212528D01*
X84897464Y-119138876D01*
X84948616Y-119069906D01*
X85006282Y-119006282D01*
X85069906Y-118948616D01*
X85138876Y-118897464D01*
X85212528Y-118853319D01*
X85290152Y-118816605D01*
X85371001Y-118787677D01*
X85454296Y-118766813D01*
X85539235Y-118754213D01*
X85625000Y-118750000D01*
X87375000Y-118750000D01*
X87460765Y-118754213D01*
X87460765Y-118754213D01*
G37*
D12*
G04 #@! TD*
G04 #@! TO.P,ESC2,7*
G04 #@! TO.N,Net-(ESC2-Pad7)*
X86500000Y-121000000D03*
D10*
G04 #@! TO.N,Net-(ESC2-Pad5)*
G04 #@! TO.C,ESC2*
G36*
X87460765Y-106754213D02*
X87545704Y-106766813D01*
X87628999Y-106787677D01*
X87709848Y-106816605D01*
X87787472Y-106853319D01*
X87861124Y-106897464D01*
X87930094Y-106948616D01*
X87993718Y-107006282D01*
X88051384Y-107069906D01*
X88102536Y-107138876D01*
X88146681Y-107212528D01*
X88183395Y-107290152D01*
X88212323Y-107371001D01*
X88233187Y-107454296D01*
X88245787Y-107539235D01*
X88250000Y-107625000D01*
X88250000Y-110375000D01*
X88245787Y-110460765D01*
X88233187Y-110545704D01*
X88212323Y-110628999D01*
X88183395Y-110709848D01*
X88146681Y-110787472D01*
X88102536Y-110861124D01*
X88051384Y-110930094D01*
X87993718Y-110993718D01*
X87930094Y-111051384D01*
X87861124Y-111102536D01*
X87787472Y-111146681D01*
X87709848Y-111183395D01*
X87628999Y-111212323D01*
X87545704Y-111233187D01*
X87460765Y-111245787D01*
X87375000Y-111250000D01*
X85625000Y-111250000D01*
X85539235Y-111245787D01*
X85454296Y-111233187D01*
X85371001Y-111212323D01*
X85290152Y-111183395D01*
X85212528Y-111146681D01*
X85138876Y-111102536D01*
X85069906Y-111051384D01*
X85006282Y-110993718D01*
X84948616Y-110930094D01*
X84897464Y-110861124D01*
X84853319Y-110787472D01*
X84816605Y-110709848D01*
X84787677Y-110628999D01*
X84766813Y-110545704D01*
X84754213Y-110460765D01*
X84750000Y-110375000D01*
X84750000Y-107625000D01*
X84754213Y-107539235D01*
X84766813Y-107454296D01*
X84787677Y-107371001D01*
X84816605Y-107290152D01*
X84853319Y-107212528D01*
X84897464Y-107138876D01*
X84948616Y-107069906D01*
X85006282Y-107006282D01*
X85069906Y-106948616D01*
X85138876Y-106897464D01*
X85212528Y-106853319D01*
X85290152Y-106816605D01*
X85371001Y-106787677D01*
X85454296Y-106766813D01*
X85539235Y-106754213D01*
X85625000Y-106750000D01*
X87375000Y-106750000D01*
X87460765Y-106754213D01*
X87460765Y-106754213D01*
G37*
D12*
G04 #@! TD*
G04 #@! TO.P,ESC2,5*
G04 #@! TO.N,Net-(ESC2-Pad5)*
X86500000Y-109000000D03*
D10*
G04 #@! TO.N,GND*
G04 #@! TO.C,ESC2*
G36*
X114323513Y-105303611D02*
X114396318Y-105314411D01*
X114467714Y-105332295D01*
X114537013Y-105357090D01*
X114603548Y-105388559D01*
X114666678Y-105426398D01*
X114725795Y-105470242D01*
X114780330Y-105519670D01*
X114829758Y-105574205D01*
X114873602Y-105633322D01*
X114911441Y-105696452D01*
X114942910Y-105762987D01*
X114967705Y-105832286D01*
X114985589Y-105903682D01*
X114996389Y-105976487D01*
X115000000Y-106050000D01*
X115000000Y-108550000D01*
X114996389Y-108623513D01*
X114985589Y-108696318D01*
X114967705Y-108767714D01*
X114942910Y-108837013D01*
X114911441Y-108903548D01*
X114873602Y-108966678D01*
X114829758Y-109025795D01*
X114780330Y-109080330D01*
X114725795Y-109129758D01*
X114666678Y-109173602D01*
X114603548Y-109211441D01*
X114537013Y-109242910D01*
X114467714Y-109267705D01*
X114396318Y-109285589D01*
X114323513Y-109296389D01*
X114250000Y-109300000D01*
X112750000Y-109300000D01*
X112676487Y-109296389D01*
X112603682Y-109285589D01*
X112532286Y-109267705D01*
X112462987Y-109242910D01*
X112396452Y-109211441D01*
X112333322Y-109173602D01*
X112274205Y-109129758D01*
X112219670Y-109080330D01*
X112170242Y-109025795D01*
X112126398Y-108966678D01*
X112088559Y-108903548D01*
X112057090Y-108837013D01*
X112032295Y-108767714D01*
X112014411Y-108696318D01*
X112003611Y-108623513D01*
X112000000Y-108550000D01*
X112000000Y-106050000D01*
X112003611Y-105976487D01*
X112014411Y-105903682D01*
X112032295Y-105832286D01*
X112057090Y-105762987D01*
X112088559Y-105696452D01*
X112126398Y-105633322D01*
X112170242Y-105574205D01*
X112219670Y-105519670D01*
X112274205Y-105470242D01*
X112333322Y-105426398D01*
X112396452Y-105388559D01*
X112462987Y-105357090D01*
X112532286Y-105332295D01*
X112603682Y-105314411D01*
X112676487Y-105303611D01*
X112750000Y-105300000D01*
X114250000Y-105300000D01*
X114323513Y-105303611D01*
X114323513Y-105303611D01*
G37*
D13*
G04 #@! TD*
G04 #@! TO.P,ESC2,4*
G04 #@! TO.N,GND*
X113500000Y-107300000D03*
D10*
G04 #@! TO.N,+BATT*
G04 #@! TO.C,ESC2*
G36*
X114323513Y-120703611D02*
X114396318Y-120714411D01*
X114467714Y-120732295D01*
X114537013Y-120757090D01*
X114603548Y-120788559D01*
X114666678Y-120826398D01*
X114725795Y-120870242D01*
X114780330Y-120919670D01*
X114829758Y-120974205D01*
X114873602Y-121033322D01*
X114911441Y-121096452D01*
X114942910Y-121162987D01*
X114967705Y-121232286D01*
X114985589Y-121303682D01*
X114996389Y-121376487D01*
X115000000Y-121450000D01*
X115000000Y-123950000D01*
X114996389Y-124023513D01*
X114985589Y-124096318D01*
X114967705Y-124167714D01*
X114942910Y-124237013D01*
X114911441Y-124303548D01*
X114873602Y-124366678D01*
X114829758Y-124425795D01*
X114780330Y-124480330D01*
X114725795Y-124529758D01*
X114666678Y-124573602D01*
X114603548Y-124611441D01*
X114537013Y-124642910D01*
X114467714Y-124667705D01*
X114396318Y-124685589D01*
X114323513Y-124696389D01*
X114250000Y-124700000D01*
X112750000Y-124700000D01*
X112676487Y-124696389D01*
X112603682Y-124685589D01*
X112532286Y-124667705D01*
X112462987Y-124642910D01*
X112396452Y-124611441D01*
X112333322Y-124573602D01*
X112274205Y-124529758D01*
X112219670Y-124480330D01*
X112170242Y-124425795D01*
X112126398Y-124366678D01*
X112088559Y-124303548D01*
X112057090Y-124237013D01*
X112032295Y-124167714D01*
X112014411Y-124096318D01*
X112003611Y-124023513D01*
X112000000Y-123950000D01*
X112000000Y-121450000D01*
X112003611Y-121376487D01*
X112014411Y-121303682D01*
X112032295Y-121232286D01*
X112057090Y-121162987D01*
X112088559Y-121096452D01*
X112126398Y-121033322D01*
X112170242Y-120974205D01*
X112219670Y-120919670D01*
X112274205Y-120870242D01*
X112333322Y-120826398D01*
X112396452Y-120788559D01*
X112462987Y-120757090D01*
X112532286Y-120732295D01*
X112603682Y-120714411D01*
X112676487Y-120703611D01*
X112750000Y-120700000D01*
X114250000Y-120700000D01*
X114323513Y-120703611D01*
X114323513Y-120703611D01*
G37*
D13*
G04 #@! TD*
G04 #@! TO.P,ESC2,1*
G04 #@! TO.N,+BATT*
X113500000Y-122700000D03*
D10*
G04 #@! TO.N,+BATT*
G04 #@! TO.C,ESC1*
G36*
X123623513Y-97003611D02*
X123696318Y-97014411D01*
X123767714Y-97032295D01*
X123837013Y-97057090D01*
X123903548Y-97088559D01*
X123966678Y-97126398D01*
X124025795Y-97170242D01*
X124080330Y-97219670D01*
X124129758Y-97274205D01*
X124173602Y-97333322D01*
X124211441Y-97396452D01*
X124242910Y-97462987D01*
X124267705Y-97532286D01*
X124285589Y-97603682D01*
X124296389Y-97676487D01*
X124300000Y-97750000D01*
X124300000Y-99250000D01*
X124296389Y-99323513D01*
X124285589Y-99396318D01*
X124267705Y-99467714D01*
X124242910Y-99537013D01*
X124211441Y-99603548D01*
X124173602Y-99666678D01*
X124129758Y-99725795D01*
X124080330Y-99780330D01*
X124025795Y-99829758D01*
X123966678Y-99873602D01*
X123903548Y-99911441D01*
X123837013Y-99942910D01*
X123767714Y-99967705D01*
X123696318Y-99985589D01*
X123623513Y-99996389D01*
X123550000Y-100000000D01*
X121050000Y-100000000D01*
X120976487Y-99996389D01*
X120903682Y-99985589D01*
X120832286Y-99967705D01*
X120762987Y-99942910D01*
X120696452Y-99911441D01*
X120633322Y-99873602D01*
X120574205Y-99829758D01*
X120519670Y-99780330D01*
X120470242Y-99725795D01*
X120426398Y-99666678D01*
X120388559Y-99603548D01*
X120357090Y-99537013D01*
X120332295Y-99467714D01*
X120314411Y-99396318D01*
X120303611Y-99323513D01*
X120300000Y-99250000D01*
X120300000Y-97750000D01*
X120303611Y-97676487D01*
X120314411Y-97603682D01*
X120332295Y-97532286D01*
X120357090Y-97462987D01*
X120388559Y-97396452D01*
X120426398Y-97333322D01*
X120470242Y-97274205D01*
X120519670Y-97219670D01*
X120574205Y-97170242D01*
X120633322Y-97126398D01*
X120696452Y-97088559D01*
X120762987Y-97057090D01*
X120832286Y-97032295D01*
X120903682Y-97014411D01*
X120976487Y-97003611D01*
X121050000Y-97000000D01*
X123550000Y-97000000D01*
X123623513Y-97003611D01*
X123623513Y-97003611D01*
G37*
D13*
G04 #@! TD*
G04 #@! TO.P,ESC1,1*
G04 #@! TO.N,+BATT*
X122300000Y-98500000D03*
D10*
G04 #@! TO.N,GND*
G04 #@! TO.C,ESC1*
G36*
X139023513Y-97003611D02*
X139096318Y-97014411D01*
X139167714Y-97032295D01*
X139237013Y-97057090D01*
X139303548Y-97088559D01*
X139366678Y-97126398D01*
X139425795Y-97170242D01*
X139480330Y-97219670D01*
X139529758Y-97274205D01*
X139573602Y-97333322D01*
X139611441Y-97396452D01*
X139642910Y-97462987D01*
X139667705Y-97532286D01*
X139685589Y-97603682D01*
X139696389Y-97676487D01*
X139700000Y-97750000D01*
X139700000Y-99250000D01*
X139696389Y-99323513D01*
X139685589Y-99396318D01*
X139667705Y-99467714D01*
X139642910Y-99537013D01*
X139611441Y-99603548D01*
X139573602Y-99666678D01*
X139529758Y-99725795D01*
X139480330Y-99780330D01*
X139425795Y-99829758D01*
X139366678Y-99873602D01*
X139303548Y-99911441D01*
X139237013Y-99942910D01*
X139167714Y-99967705D01*
X139096318Y-99985589D01*
X139023513Y-99996389D01*
X138950000Y-100000000D01*
X136450000Y-100000000D01*
X136376487Y-99996389D01*
X136303682Y-99985589D01*
X136232286Y-99967705D01*
X136162987Y-99942910D01*
X136096452Y-99911441D01*
X136033322Y-99873602D01*
X135974205Y-99829758D01*
X135919670Y-99780330D01*
X135870242Y-99725795D01*
X135826398Y-99666678D01*
X135788559Y-99603548D01*
X135757090Y-99537013D01*
X135732295Y-99467714D01*
X135714411Y-99396318D01*
X135703611Y-99323513D01*
X135700000Y-99250000D01*
X135700000Y-97750000D01*
X135703611Y-97676487D01*
X135714411Y-97603682D01*
X135732295Y-97532286D01*
X135757090Y-97462987D01*
X135788559Y-97396452D01*
X135826398Y-97333322D01*
X135870242Y-97274205D01*
X135919670Y-97219670D01*
X135974205Y-97170242D01*
X136033322Y-97126398D01*
X136096452Y-97088559D01*
X136162987Y-97057090D01*
X136232286Y-97032295D01*
X136303682Y-97014411D01*
X136376487Y-97003611D01*
X136450000Y-97000000D01*
X138950000Y-97000000D01*
X139023513Y-97003611D01*
X139023513Y-97003611D01*
G37*
D13*
G04 #@! TD*
G04 #@! TO.P,ESC1,4*
G04 #@! TO.N,GND*
X137700000Y-98500000D03*
D10*
G04 #@! TO.N,Net-(ESC1-Pad5)*
G04 #@! TO.C,ESC1*
G36*
X137460765Y-69754213D02*
X137545704Y-69766813D01*
X137628999Y-69787677D01*
X137709848Y-69816605D01*
X137787472Y-69853319D01*
X137861124Y-69897464D01*
X137930094Y-69948616D01*
X137993718Y-70006282D01*
X138051384Y-70069906D01*
X138102536Y-70138876D01*
X138146681Y-70212528D01*
X138183395Y-70290152D01*
X138212323Y-70371001D01*
X138233187Y-70454296D01*
X138245787Y-70539235D01*
X138250000Y-70625000D01*
X138250000Y-72375000D01*
X138245787Y-72460765D01*
X138233187Y-72545704D01*
X138212323Y-72628999D01*
X138183395Y-72709848D01*
X138146681Y-72787472D01*
X138102536Y-72861124D01*
X138051384Y-72930094D01*
X137993718Y-72993718D01*
X137930094Y-73051384D01*
X137861124Y-73102536D01*
X137787472Y-73146681D01*
X137709848Y-73183395D01*
X137628999Y-73212323D01*
X137545704Y-73233187D01*
X137460765Y-73245787D01*
X137375000Y-73250000D01*
X134625000Y-73250000D01*
X134539235Y-73245787D01*
X134454296Y-73233187D01*
X134371001Y-73212323D01*
X134290152Y-73183395D01*
X134212528Y-73146681D01*
X134138876Y-73102536D01*
X134069906Y-73051384D01*
X134006282Y-72993718D01*
X133948616Y-72930094D01*
X133897464Y-72861124D01*
X133853319Y-72787472D01*
X133816605Y-72709848D01*
X133787677Y-72628999D01*
X133766813Y-72545704D01*
X133754213Y-72460765D01*
X133750000Y-72375000D01*
X133750000Y-70625000D01*
X133754213Y-70539235D01*
X133766813Y-70454296D01*
X133787677Y-70371001D01*
X133816605Y-70290152D01*
X133853319Y-70212528D01*
X133897464Y-70138876D01*
X133948616Y-70069906D01*
X134006282Y-70006282D01*
X134069906Y-69948616D01*
X134138876Y-69897464D01*
X134212528Y-69853319D01*
X134290152Y-69816605D01*
X134371001Y-69787677D01*
X134454296Y-69766813D01*
X134539235Y-69754213D01*
X134625000Y-69750000D01*
X137375000Y-69750000D01*
X137460765Y-69754213D01*
X137460765Y-69754213D01*
G37*
D12*
G04 #@! TD*
G04 #@! TO.P,ESC1,5*
G04 #@! TO.N,Net-(ESC1-Pad5)*
X136000000Y-71500000D03*
D10*
G04 #@! TO.N,Net-(ESC1-Pad7)*
G04 #@! TO.C,ESC1*
G36*
X125460765Y-69754213D02*
X125545704Y-69766813D01*
X125628999Y-69787677D01*
X125709848Y-69816605D01*
X125787472Y-69853319D01*
X125861124Y-69897464D01*
X125930094Y-69948616D01*
X125993718Y-70006282D01*
X126051384Y-70069906D01*
X126102536Y-70138876D01*
X126146681Y-70212528D01*
X126183395Y-70290152D01*
X126212323Y-70371001D01*
X126233187Y-70454296D01*
X126245787Y-70539235D01*
X126250000Y-70625000D01*
X126250000Y-72375000D01*
X126245787Y-72460765D01*
X126233187Y-72545704D01*
X126212323Y-72628999D01*
X126183395Y-72709848D01*
X126146681Y-72787472D01*
X126102536Y-72861124D01*
X126051384Y-72930094D01*
X125993718Y-72993718D01*
X125930094Y-73051384D01*
X125861124Y-73102536D01*
X125787472Y-73146681D01*
X125709848Y-73183395D01*
X125628999Y-73212323D01*
X125545704Y-73233187D01*
X125460765Y-73245787D01*
X125375000Y-73250000D01*
X122625000Y-73250000D01*
X122539235Y-73245787D01*
X122454296Y-73233187D01*
X122371001Y-73212323D01*
X122290152Y-73183395D01*
X122212528Y-73146681D01*
X122138876Y-73102536D01*
X122069906Y-73051384D01*
X122006282Y-72993718D01*
X121948616Y-72930094D01*
X121897464Y-72861124D01*
X121853319Y-72787472D01*
X121816605Y-72709848D01*
X121787677Y-72628999D01*
X121766813Y-72545704D01*
X121754213Y-72460765D01*
X121750000Y-72375000D01*
X121750000Y-70625000D01*
X121754213Y-70539235D01*
X121766813Y-70454296D01*
X121787677Y-70371001D01*
X121816605Y-70290152D01*
X121853319Y-70212528D01*
X121897464Y-70138876D01*
X121948616Y-70069906D01*
X122006282Y-70006282D01*
X122069906Y-69948616D01*
X122138876Y-69897464D01*
X122212528Y-69853319D01*
X122290152Y-69816605D01*
X122371001Y-69787677D01*
X122454296Y-69766813D01*
X122539235Y-69754213D01*
X122625000Y-69750000D01*
X125375000Y-69750000D01*
X125460765Y-69754213D01*
X125460765Y-69754213D01*
G37*
D12*
G04 #@! TD*
G04 #@! TO.P,ESC1,7*
G04 #@! TO.N,Net-(ESC1-Pad7)*
X124000000Y-71500000D03*
D10*
G04 #@! TO.N,Net-(ESC1-Pad6)*
G04 #@! TO.C,ESC1*
G36*
X131460765Y-69754213D02*
X131545704Y-69766813D01*
X131628999Y-69787677D01*
X131709848Y-69816605D01*
X131787472Y-69853319D01*
X131861124Y-69897464D01*
X131930094Y-69948616D01*
X131993718Y-70006282D01*
X132051384Y-70069906D01*
X132102536Y-70138876D01*
X132146681Y-70212528D01*
X132183395Y-70290152D01*
X132212323Y-70371001D01*
X132233187Y-70454296D01*
X132245787Y-70539235D01*
X132250000Y-70625000D01*
X132250000Y-72375000D01*
X132245787Y-72460765D01*
X132233187Y-72545704D01*
X132212323Y-72628999D01*
X132183395Y-72709848D01*
X132146681Y-72787472D01*
X132102536Y-72861124D01*
X132051384Y-72930094D01*
X131993718Y-72993718D01*
X131930094Y-73051384D01*
X131861124Y-73102536D01*
X131787472Y-73146681D01*
X131709848Y-73183395D01*
X131628999Y-73212323D01*
X131545704Y-73233187D01*
X131460765Y-73245787D01*
X131375000Y-73250000D01*
X128625000Y-73250000D01*
X128539235Y-73245787D01*
X128454296Y-73233187D01*
X128371001Y-73212323D01*
X128290152Y-73183395D01*
X128212528Y-73146681D01*
X128138876Y-73102536D01*
X128069906Y-73051384D01*
X128006282Y-72993718D01*
X127948616Y-72930094D01*
X127897464Y-72861124D01*
X127853319Y-72787472D01*
X127816605Y-72709848D01*
X127787677Y-72628999D01*
X127766813Y-72545704D01*
X127754213Y-72460765D01*
X127750000Y-72375000D01*
X127750000Y-70625000D01*
X127754213Y-70539235D01*
X127766813Y-70454296D01*
X127787677Y-70371001D01*
X127816605Y-70290152D01*
X127853319Y-70212528D01*
X127897464Y-70138876D01*
X127948616Y-70069906D01*
X128006282Y-70006282D01*
X128069906Y-69948616D01*
X128138876Y-69897464D01*
X128212528Y-69853319D01*
X128290152Y-69816605D01*
X128371001Y-69787677D01*
X128454296Y-69766813D01*
X128539235Y-69754213D01*
X128625000Y-69750000D01*
X131375000Y-69750000D01*
X131460765Y-69754213D01*
X131460765Y-69754213D01*
G37*
D12*
G04 #@! TD*
G04 #@! TO.P,ESC1,6*
G04 #@! TO.N,Net-(ESC1-Pad6)*
X130000000Y-71500000D03*
D10*
G04 #@! TO.N,/PWM1*
G04 #@! TO.C,ESC1*
G36*
X133911756Y-97601806D02*
X133948159Y-97607206D01*
X133983857Y-97616147D01*
X134018506Y-97628545D01*
X134051774Y-97644280D01*
X134083339Y-97663199D01*
X134112897Y-97685121D01*
X134140165Y-97709835D01*
X134164879Y-97737103D01*
X134186801Y-97766661D01*
X134205720Y-97798226D01*
X134221455Y-97831494D01*
X134233853Y-97866143D01*
X134242794Y-97901841D01*
X134248194Y-97938244D01*
X134250000Y-97975000D01*
X134250000Y-99625000D01*
X134248194Y-99661756D01*
X134242794Y-99698159D01*
X134233853Y-99733857D01*
X134221455Y-99768506D01*
X134205720Y-99801774D01*
X134186801Y-99833339D01*
X134164879Y-99862897D01*
X134140165Y-99890165D01*
X134112897Y-99914879D01*
X134083339Y-99936801D01*
X134051774Y-99955720D01*
X134018506Y-99971455D01*
X133983857Y-99983853D01*
X133948159Y-99992794D01*
X133911756Y-99998194D01*
X133875000Y-100000000D01*
X133125000Y-100000000D01*
X133088244Y-99998194D01*
X133051841Y-99992794D01*
X133016143Y-99983853D01*
X132981494Y-99971455D01*
X132948226Y-99955720D01*
X132916661Y-99936801D01*
X132887103Y-99914879D01*
X132859835Y-99890165D01*
X132835121Y-99862897D01*
X132813199Y-99833339D01*
X132794280Y-99801774D01*
X132778545Y-99768506D01*
X132766147Y-99733857D01*
X132757206Y-99698159D01*
X132751806Y-99661756D01*
X132750000Y-99625000D01*
X132750000Y-97975000D01*
X132751806Y-97938244D01*
X132757206Y-97901841D01*
X132766147Y-97866143D01*
X132778545Y-97831494D01*
X132794280Y-97798226D01*
X132813199Y-97766661D01*
X132835121Y-97737103D01*
X132859835Y-97709835D01*
X132887103Y-97685121D01*
X132916661Y-97663199D01*
X132948226Y-97644280D01*
X132981494Y-97628545D01*
X133016143Y-97616147D01*
X133051841Y-97607206D01*
X133088244Y-97601806D01*
X133125000Y-97600000D01*
X133875000Y-97600000D01*
X133911756Y-97601806D01*
X133911756Y-97601806D01*
G37*
D11*
G04 #@! TD*
G04 #@! TO.P,ESC1,3*
G04 #@! TO.N,/PWM1*
X133500000Y-98800000D03*
D10*
G04 #@! TO.N,/TLM*
G04 #@! TO.C,ESC1*
G36*
X131511756Y-97601806D02*
X131548159Y-97607206D01*
X131583857Y-97616147D01*
X131618506Y-97628545D01*
X131651774Y-97644280D01*
X131683339Y-97663199D01*
X131712897Y-97685121D01*
X131740165Y-97709835D01*
X131764879Y-97737103D01*
X131786801Y-97766661D01*
X131805720Y-97798226D01*
X131821455Y-97831494D01*
X131833853Y-97866143D01*
X131842794Y-97901841D01*
X131848194Y-97938244D01*
X131850000Y-97975000D01*
X131850000Y-99625000D01*
X131848194Y-99661756D01*
X131842794Y-99698159D01*
X131833853Y-99733857D01*
X131821455Y-99768506D01*
X131805720Y-99801774D01*
X131786801Y-99833339D01*
X131764879Y-99862897D01*
X131740165Y-99890165D01*
X131712897Y-99914879D01*
X131683339Y-99936801D01*
X131651774Y-99955720D01*
X131618506Y-99971455D01*
X131583857Y-99983853D01*
X131548159Y-99992794D01*
X131511756Y-99998194D01*
X131475000Y-100000000D01*
X130725000Y-100000000D01*
X130688244Y-99998194D01*
X130651841Y-99992794D01*
X130616143Y-99983853D01*
X130581494Y-99971455D01*
X130548226Y-99955720D01*
X130516661Y-99936801D01*
X130487103Y-99914879D01*
X130459835Y-99890165D01*
X130435121Y-99862897D01*
X130413199Y-99833339D01*
X130394280Y-99801774D01*
X130378545Y-99768506D01*
X130366147Y-99733857D01*
X130357206Y-99698159D01*
X130351806Y-99661756D01*
X130350000Y-99625000D01*
X130350000Y-97975000D01*
X130351806Y-97938244D01*
X130357206Y-97901841D01*
X130366147Y-97866143D01*
X130378545Y-97831494D01*
X130394280Y-97798226D01*
X130413199Y-97766661D01*
X130435121Y-97737103D01*
X130459835Y-97709835D01*
X130487103Y-97685121D01*
X130516661Y-97663199D01*
X130548226Y-97644280D01*
X130581494Y-97628545D01*
X130616143Y-97616147D01*
X130651841Y-97607206D01*
X130688244Y-97601806D01*
X130725000Y-97600000D01*
X131475000Y-97600000D01*
X131511756Y-97601806D01*
X131511756Y-97601806D01*
G37*
D11*
G04 #@! TD*
G04 #@! TO.P,ESC1,2*
G04 #@! TO.N,/TLM*
X131100000Y-98800000D03*
D14*
G04 #@! TO.N,*
X120000000Y-105000000D03*
X140000000Y-125000000D03*
D15*
G04 #@! TO.N,GND*
X120300000Y-130500000D03*
X123300000Y-130500000D03*
X124300000Y-130500000D03*
X112500000Y-105300000D03*
X113500000Y-106300000D03*
X114500000Y-105300000D03*
X113500000Y-105300000D03*
X112500000Y-108300000D03*
X114500000Y-108300000D03*
X112500000Y-106300000D03*
X113500000Y-108300000D03*
X114500000Y-106300000D03*
X113500000Y-107300000D03*
X114500000Y-109300000D03*
X112500000Y-107300000D03*
X113500000Y-109300000D03*
X114500000Y-107300000D03*
X112500000Y-109300000D03*
X139700000Y-97500000D03*
X138700000Y-98500000D03*
X139700000Y-99500000D03*
X139700000Y-98500000D03*
X136700000Y-97500000D03*
X136700000Y-99500000D03*
X138700000Y-97500000D03*
X136700000Y-98500000D03*
X138700000Y-99500000D03*
X137700000Y-98500000D03*
X135700000Y-99500000D03*
X137700000Y-97500000D03*
X135700000Y-98500000D03*
X137700000Y-99500000D03*
X135700000Y-97500000D03*
X145500000Y-120700000D03*
X146500000Y-121700000D03*
X147500000Y-120700000D03*
X146500000Y-120700000D03*
X145500000Y-123700000D03*
X147500000Y-123700000D03*
X145500000Y-121700000D03*
X146500000Y-123700000D03*
X147500000Y-121700000D03*
X146500000Y-122700000D03*
X147500000Y-124700000D03*
X145500000Y-122700000D03*
X146500000Y-124700000D03*
X147500000Y-122700000D03*
X145500000Y-124700000D03*
X124300000Y-131500000D03*
X124300000Y-132500000D03*
X123300000Y-132500000D03*
X122300000Y-132500000D03*
X121300000Y-132500000D03*
X120300000Y-132500000D03*
X120300000Y-131500000D03*
X121300000Y-131500000D03*
X122300000Y-131500000D03*
X123300000Y-131500000D03*
X122300000Y-130500000D03*
X121300000Y-130500000D03*
X115500000Y-105300000D03*
X115500000Y-106300000D03*
X115500000Y-107300000D03*
X115500000Y-108300000D03*
X115500000Y-109300000D03*
X120300000Y-129500000D03*
X121300000Y-129500000D03*
X122300000Y-129500000D03*
X123300000Y-129500000D03*
X124300000Y-129500000D03*
X144500000Y-120700000D03*
X144500000Y-121700000D03*
X144500000Y-122700000D03*
X144500000Y-123700000D03*
X144500000Y-124700000D03*
X135700000Y-100500000D03*
X136700000Y-100500000D03*
X137700000Y-100500000D03*
X138700000Y-100500000D03*
X139700000Y-100500000D03*
X124300000Y-128500000D03*
X123300000Y-128500000D03*
X122300000Y-128500000D03*
X121300000Y-128500000D03*
X120300000Y-128500000D03*
X143500000Y-124700000D03*
X143500000Y-123700000D03*
X143500000Y-122700000D03*
X143500000Y-121700000D03*
X143500000Y-120700000D03*
X139700000Y-101500000D03*
X138700000Y-101500000D03*
X137700000Y-101500000D03*
X136700000Y-101500000D03*
X135700000Y-101500000D03*
X116500000Y-109300000D03*
X116500000Y-108300000D03*
X116500000Y-107300000D03*
X116500000Y-106300000D03*
X116500000Y-105300000D03*
G04 #@! TO.N,/TLM*
X119000000Y-126000000D03*
X141000000Y-104500000D03*
X133000000Y-129500000D03*
X115500000Y-117500000D03*
X142500000Y-112500000D03*
X140000000Y-128000000D03*
G04 #@! TD*
D16*
G04 #@! TO.N,/TLM*
X115500000Y-115000000D02*
X115500000Y-116934315D01*
X115500000Y-116934315D02*
X115500000Y-117500000D01*
X113800000Y-113900000D02*
X114400000Y-113900000D01*
X114400000Y-113900000D02*
X115500000Y-115000000D01*
X120500000Y-127500000D02*
X119000000Y-126000000D01*
X128900000Y-127500000D02*
X120500000Y-127500000D01*
X133000000Y-129500000D02*
X130900000Y-129500000D01*
X130900000Y-129500000D02*
X130500000Y-129100000D01*
X130500000Y-129100000D02*
X128900000Y-127500000D01*
X128650000Y-130950000D02*
X130500000Y-129100000D01*
X128900000Y-131200000D02*
X128650000Y-130950000D01*
X142600000Y-116100000D02*
X146200000Y-116100000D01*
X142500000Y-116000000D02*
X142600000Y-116100000D01*
X131100000Y-100600000D02*
X131100000Y-98800000D01*
X133000000Y-102500000D02*
X131100000Y-100600000D01*
X141000000Y-104500000D02*
X139000000Y-102500000D01*
X139000000Y-102500000D02*
X133000000Y-102500000D01*
X141000000Y-128000000D02*
X140000000Y-128000000D01*
X142500000Y-112500000D02*
X142500000Y-126500000D01*
X142500000Y-126500000D02*
X141000000Y-128000000D01*
G04 #@! TD*
D17*
G04 #@! TO.N,+BATT*
G36*
X120222972Y-97168805D02*
X120500000Y-97223909D01*
X120569925Y-97210000D01*
X124205909Y-97210000D01*
X124448509Y-97452601D01*
X124488119Y-97511881D01*
X124547398Y-97551490D01*
X124547399Y-97551491D01*
X124722971Y-97668805D01*
X125000000Y-97723909D01*
X125069926Y-97710000D01*
X129755272Y-97710000D01*
X129702560Y-97975000D01*
X129702560Y-99625000D01*
X129780389Y-100016271D01*
X129873000Y-100154873D01*
X129873000Y-100500000D01*
X129882667Y-100548601D01*
X129910197Y-100589803D01*
X131910197Y-102589803D01*
X131951399Y-102617333D01*
X132000000Y-102627000D01*
X132052198Y-102627000D01*
X132409670Y-102984472D01*
X132452071Y-103047929D01*
X132515527Y-103090329D01*
X132703462Y-103215904D01*
X132751605Y-103225480D01*
X132925148Y-103260000D01*
X132925152Y-103260000D01*
X133000000Y-103274888D01*
X133074848Y-103260000D01*
X138685199Y-103260000D01*
X139965000Y-104539802D01*
X139965000Y-104705874D01*
X140122569Y-105086280D01*
X140413720Y-105377431D01*
X140794126Y-105535000D01*
X141205874Y-105535000D01*
X141586280Y-105377431D01*
X141877431Y-105086280D01*
X142035000Y-104705874D01*
X142035000Y-104294126D01*
X141877431Y-103913720D01*
X141586280Y-103622569D01*
X141205874Y-103465000D01*
X141039802Y-103465000D01*
X140209801Y-102635000D01*
X142500000Y-102635000D01*
X142540219Y-102627000D01*
X143587553Y-102627000D01*
X143929090Y-102968537D01*
X143970095Y-103029905D01*
X144213217Y-103192354D01*
X144427612Y-103235000D01*
X144427615Y-103235000D01*
X144499999Y-103249398D01*
X144572383Y-103235000D01*
X147873000Y-103235000D01*
X147873000Y-105160406D01*
X147831195Y-105222972D01*
X147776091Y-105500000D01*
X147790001Y-105569930D01*
X147790000Y-109205909D01*
X147547401Y-109448509D01*
X147488120Y-109488119D01*
X147331197Y-109722971D01*
X147331196Y-109722972D01*
X147276091Y-110000000D01*
X147290001Y-110069929D01*
X147290001Y-114755272D01*
X147025000Y-114702560D01*
X145375000Y-114702560D01*
X144983729Y-114780389D01*
X144652026Y-115002026D01*
X144430389Y-115333729D01*
X144429142Y-115340000D01*
X143260000Y-115340000D01*
X143260000Y-113203711D01*
X143377431Y-113086280D01*
X143535000Y-112705874D01*
X143535000Y-112294126D01*
X143377431Y-111913720D01*
X143086280Y-111622569D01*
X142705874Y-111465000D01*
X142294126Y-111465000D01*
X141913720Y-111622569D01*
X141622569Y-111913720D01*
X141465000Y-112294126D01*
X141465000Y-112705874D01*
X141622569Y-113086280D01*
X141740000Y-113203711D01*
X141740000Y-115925152D01*
X141725112Y-116000000D01*
X141740000Y-116074848D01*
X141740001Y-123508522D01*
X141294349Y-123062870D01*
X140454515Y-122715000D01*
X139545485Y-122715000D01*
X138705651Y-123062870D01*
X138062870Y-123705651D01*
X137715000Y-124545485D01*
X137715000Y-125454515D01*
X138062870Y-126294349D01*
X138705651Y-126937130D01*
X139337457Y-127198832D01*
X139122569Y-127413720D01*
X138965000Y-127794126D01*
X138965000Y-128205874D01*
X139122569Y-128586280D01*
X139413720Y-128877431D01*
X139794126Y-129035000D01*
X140205874Y-129035000D01*
X140586280Y-128877431D01*
X140703711Y-128760000D01*
X140925153Y-128760000D01*
X141000000Y-128774888D01*
X141074847Y-128760000D01*
X141074852Y-128760000D01*
X141296537Y-128715904D01*
X141547929Y-128547929D01*
X141590331Y-128484470D01*
X142399808Y-127674994D01*
X142413336Y-127743004D01*
X142550987Y-127949013D01*
X142756996Y-128086664D01*
X142854496Y-128106058D01*
X142031465Y-128929089D01*
X141970095Y-128970095D01*
X141807646Y-129213218D01*
X141765000Y-129427613D01*
X141765000Y-129427616D01*
X141750602Y-129500000D01*
X141765000Y-129572384D01*
X141765000Y-132873000D01*
X139839594Y-132873000D01*
X139777028Y-132831195D01*
X139569926Y-132790000D01*
X139569925Y-132790000D01*
X139500000Y-132776091D01*
X139430074Y-132790000D01*
X135794091Y-132790000D01*
X135551493Y-132547403D01*
X135511881Y-132488119D01*
X135277028Y-132331195D01*
X135069926Y-132290000D01*
X135069924Y-132290000D01*
X135000000Y-132276091D01*
X134930076Y-132290000D01*
X130627000Y-132290000D01*
X130627000Y-130220586D01*
X130825148Y-130260000D01*
X130825152Y-130260000D01*
X130899999Y-130274888D01*
X130974846Y-130260000D01*
X132296289Y-130260000D01*
X132413720Y-130377431D01*
X132794126Y-130535000D01*
X133205874Y-130535000D01*
X133586280Y-130377431D01*
X133877431Y-130086280D01*
X134035000Y-129705874D01*
X134035000Y-129294126D01*
X133877431Y-128913720D01*
X133586280Y-128622569D01*
X133205874Y-128465000D01*
X132794126Y-128465000D01*
X132413720Y-128622569D01*
X132296289Y-128740000D01*
X131214801Y-128740000D01*
X131090331Y-128615529D01*
X131090328Y-128615526D01*
X131047929Y-128552071D01*
X130984473Y-128509671D01*
X129490331Y-127015530D01*
X129447929Y-126952071D01*
X129196537Y-126784096D01*
X128974852Y-126740000D01*
X128974847Y-126740000D01*
X128900000Y-126725112D01*
X128825153Y-126740000D01*
X120814803Y-126740000D01*
X120035000Y-125960198D01*
X120035000Y-125794126D01*
X119877431Y-125413720D01*
X119586280Y-125122569D01*
X119205874Y-124965000D01*
X118794126Y-124965000D01*
X118413720Y-125122569D01*
X118122569Y-125413720D01*
X117965000Y-125794126D01*
X117965000Y-126205874D01*
X118122569Y-126586280D01*
X118413720Y-126877431D01*
X118794126Y-127035000D01*
X118960198Y-127035000D01*
X119290198Y-127365000D01*
X117500000Y-127365000D01*
X117256996Y-127413336D01*
X117050987Y-127550987D01*
X116913336Y-127756996D01*
X116893942Y-127854496D01*
X116070911Y-127031465D01*
X116029905Y-126970095D01*
X115786783Y-126807646D01*
X115572388Y-126765000D01*
X115572384Y-126765000D01*
X115500000Y-126750602D01*
X115427616Y-126765000D01*
X112127000Y-126765000D01*
X112127000Y-124839594D01*
X112168805Y-124777028D01*
X112210000Y-124569926D01*
X112210000Y-124569925D01*
X112223909Y-124500000D01*
X112210000Y-124430074D01*
X112210000Y-120794091D01*
X112452601Y-120551491D01*
X112511881Y-120511881D01*
X112551491Y-120452601D01*
X112668805Y-120277029D01*
X112723909Y-120000000D01*
X112710000Y-119930074D01*
X112710000Y-115244728D01*
X112975000Y-115297440D01*
X114625000Y-115297440D01*
X114706439Y-115281241D01*
X114740000Y-115314802D01*
X114740001Y-116796288D01*
X114622569Y-116913720D01*
X114465000Y-117294126D01*
X114465000Y-117705874D01*
X114622569Y-118086280D01*
X114913720Y-118377431D01*
X115294126Y-118535000D01*
X115705874Y-118535000D01*
X116086280Y-118377431D01*
X116377431Y-118086280D01*
X116535000Y-117705874D01*
X116535000Y-117294126D01*
X116377431Y-116913720D01*
X116260000Y-116796289D01*
X116260000Y-115074847D01*
X116274888Y-115000000D01*
X116260000Y-114925153D01*
X116260000Y-114925148D01*
X116215904Y-114703463D01*
X116047929Y-114452071D01*
X115984473Y-114409671D01*
X115647440Y-114072638D01*
X115647440Y-113525000D01*
X115569611Y-113133729D01*
X115347974Y-112802026D01*
X115195281Y-112700000D01*
X115347974Y-112597974D01*
X115569611Y-112266271D01*
X115647440Y-111875000D01*
X115647440Y-111125000D01*
X115569611Y-110733729D01*
X115503642Y-110635000D01*
X117000000Y-110635000D01*
X117040219Y-110627000D01*
X117500000Y-110627000D01*
X117548601Y-110617333D01*
X117589803Y-110589803D01*
X117617333Y-110548601D01*
X117627000Y-110500000D01*
X117627000Y-110040219D01*
X117635000Y-110000000D01*
X117635000Y-104545485D01*
X117715000Y-104545485D01*
X117715000Y-105454515D01*
X118062870Y-106294349D01*
X118705651Y-106937130D01*
X119545485Y-107285000D01*
X120454515Y-107285000D01*
X121294349Y-106937130D01*
X121937130Y-106294349D01*
X122285000Y-105454515D01*
X122285000Y-104545485D01*
X121937130Y-103705651D01*
X121294349Y-103062870D01*
X120454515Y-102715000D01*
X119545485Y-102715000D01*
X118705651Y-103062870D01*
X118062870Y-103705651D01*
X117715000Y-104545485D01*
X117635000Y-104545485D01*
X117635000Y-102500000D01*
X117627000Y-102459781D01*
X117627000Y-101412447D01*
X117968538Y-101070909D01*
X118029905Y-101029905D01*
X118192354Y-100786783D01*
X118235000Y-100572388D01*
X118235000Y-100572385D01*
X118249398Y-100500001D01*
X118235000Y-100427617D01*
X118235000Y-97127000D01*
X120160406Y-97127000D01*
X120222972Y-97168805D01*
X120222972Y-97168805D01*
G37*
X120222972Y-97168805D02*
X120500000Y-97223909D01*
X120569925Y-97210000D01*
X124205909Y-97210000D01*
X124448509Y-97452601D01*
X124488119Y-97511881D01*
X124547398Y-97551490D01*
X124547399Y-97551491D01*
X124722971Y-97668805D01*
X125000000Y-97723909D01*
X125069926Y-97710000D01*
X129755272Y-97710000D01*
X129702560Y-97975000D01*
X129702560Y-99625000D01*
X129780389Y-100016271D01*
X129873000Y-100154873D01*
X129873000Y-100500000D01*
X129882667Y-100548601D01*
X129910197Y-100589803D01*
X131910197Y-102589803D01*
X131951399Y-102617333D01*
X132000000Y-102627000D01*
X132052198Y-102627000D01*
X132409670Y-102984472D01*
X132452071Y-103047929D01*
X132515527Y-103090329D01*
X132703462Y-103215904D01*
X132751605Y-103225480D01*
X132925148Y-103260000D01*
X132925152Y-103260000D01*
X133000000Y-103274888D01*
X133074848Y-103260000D01*
X138685199Y-103260000D01*
X139965000Y-104539802D01*
X139965000Y-104705874D01*
X140122569Y-105086280D01*
X140413720Y-105377431D01*
X140794126Y-105535000D01*
X141205874Y-105535000D01*
X141586280Y-105377431D01*
X141877431Y-105086280D01*
X142035000Y-104705874D01*
X142035000Y-104294126D01*
X141877431Y-103913720D01*
X141586280Y-103622569D01*
X141205874Y-103465000D01*
X141039802Y-103465000D01*
X140209801Y-102635000D01*
X142500000Y-102635000D01*
X142540219Y-102627000D01*
X143587553Y-102627000D01*
X143929090Y-102968537D01*
X143970095Y-103029905D01*
X144213217Y-103192354D01*
X144427612Y-103235000D01*
X144427615Y-103235000D01*
X144499999Y-103249398D01*
X144572383Y-103235000D01*
X147873000Y-103235000D01*
X147873000Y-105160406D01*
X147831195Y-105222972D01*
X147776091Y-105500000D01*
X147790001Y-105569930D01*
X147790000Y-109205909D01*
X147547401Y-109448509D01*
X147488120Y-109488119D01*
X147331197Y-109722971D01*
X147331196Y-109722972D01*
X147276091Y-110000000D01*
X147290001Y-110069929D01*
X147290001Y-114755272D01*
X147025000Y-114702560D01*
X145375000Y-114702560D01*
X144983729Y-114780389D01*
X144652026Y-115002026D01*
X144430389Y-115333729D01*
X144429142Y-115340000D01*
X143260000Y-115340000D01*
X143260000Y-113203711D01*
X143377431Y-113086280D01*
X143535000Y-112705874D01*
X143535000Y-112294126D01*
X143377431Y-111913720D01*
X143086280Y-111622569D01*
X142705874Y-111465000D01*
X142294126Y-111465000D01*
X141913720Y-111622569D01*
X141622569Y-111913720D01*
X141465000Y-112294126D01*
X141465000Y-112705874D01*
X141622569Y-113086280D01*
X141740000Y-113203711D01*
X141740000Y-115925152D01*
X141725112Y-116000000D01*
X141740000Y-116074848D01*
X141740001Y-123508522D01*
X141294349Y-123062870D01*
X140454515Y-122715000D01*
X139545485Y-122715000D01*
X138705651Y-123062870D01*
X138062870Y-123705651D01*
X137715000Y-124545485D01*
X137715000Y-125454515D01*
X138062870Y-126294349D01*
X138705651Y-126937130D01*
X139337457Y-127198832D01*
X139122569Y-127413720D01*
X138965000Y-127794126D01*
X138965000Y-128205874D01*
X139122569Y-128586280D01*
X139413720Y-128877431D01*
X139794126Y-129035000D01*
X140205874Y-129035000D01*
X140586280Y-128877431D01*
X140703711Y-128760000D01*
X140925153Y-128760000D01*
X141000000Y-128774888D01*
X141074847Y-128760000D01*
X141074852Y-128760000D01*
X141296537Y-128715904D01*
X141547929Y-128547929D01*
X141590331Y-128484470D01*
X142399808Y-127674994D01*
X142413336Y-127743004D01*
X142550987Y-127949013D01*
X142756996Y-128086664D01*
X142854496Y-128106058D01*
X142031465Y-128929089D01*
X141970095Y-128970095D01*
X141807646Y-129213218D01*
X141765000Y-129427613D01*
X141765000Y-129427616D01*
X141750602Y-129500000D01*
X141765000Y-129572384D01*
X141765000Y-132873000D01*
X139839594Y-132873000D01*
X139777028Y-132831195D01*
X139569926Y-132790000D01*
X139569925Y-132790000D01*
X139500000Y-132776091D01*
X139430074Y-132790000D01*
X135794091Y-132790000D01*
X135551493Y-132547403D01*
X135511881Y-132488119D01*
X135277028Y-132331195D01*
X135069926Y-132290000D01*
X135069924Y-132290000D01*
X135000000Y-132276091D01*
X134930076Y-132290000D01*
X130627000Y-132290000D01*
X130627000Y-130220586D01*
X130825148Y-130260000D01*
X130825152Y-130260000D01*
X130899999Y-130274888D01*
X130974846Y-130260000D01*
X132296289Y-130260000D01*
X132413720Y-130377431D01*
X132794126Y-130535000D01*
X133205874Y-130535000D01*
X133586280Y-130377431D01*
X133877431Y-130086280D01*
X134035000Y-129705874D01*
X134035000Y-129294126D01*
X133877431Y-128913720D01*
X133586280Y-128622569D01*
X133205874Y-128465000D01*
X132794126Y-128465000D01*
X132413720Y-128622569D01*
X132296289Y-128740000D01*
X131214801Y-128740000D01*
X131090331Y-128615529D01*
X131090328Y-128615526D01*
X131047929Y-128552071D01*
X130984473Y-128509671D01*
X129490331Y-127015530D01*
X129447929Y-126952071D01*
X129196537Y-126784096D01*
X128974852Y-126740000D01*
X128974847Y-126740000D01*
X128900000Y-126725112D01*
X128825153Y-126740000D01*
X120814803Y-126740000D01*
X120035000Y-125960198D01*
X120035000Y-125794126D01*
X119877431Y-125413720D01*
X119586280Y-125122569D01*
X119205874Y-124965000D01*
X118794126Y-124965000D01*
X118413720Y-125122569D01*
X118122569Y-125413720D01*
X117965000Y-125794126D01*
X117965000Y-126205874D01*
X118122569Y-126586280D01*
X118413720Y-126877431D01*
X118794126Y-127035000D01*
X118960198Y-127035000D01*
X119290198Y-127365000D01*
X117500000Y-127365000D01*
X117256996Y-127413336D01*
X117050987Y-127550987D01*
X116913336Y-127756996D01*
X116893942Y-127854496D01*
X116070911Y-127031465D01*
X116029905Y-126970095D01*
X115786783Y-126807646D01*
X115572388Y-126765000D01*
X115572384Y-126765000D01*
X115500000Y-126750602D01*
X115427616Y-126765000D01*
X112127000Y-126765000D01*
X112127000Y-124839594D01*
X112168805Y-124777028D01*
X112210000Y-124569926D01*
X112210000Y-124569925D01*
X112223909Y-124500000D01*
X112210000Y-124430074D01*
X112210000Y-120794091D01*
X112452601Y-120551491D01*
X112511881Y-120511881D01*
X112551491Y-120452601D01*
X112668805Y-120277029D01*
X112723909Y-120000000D01*
X112710000Y-119930074D01*
X112710000Y-115244728D01*
X112975000Y-115297440D01*
X114625000Y-115297440D01*
X114706439Y-115281241D01*
X114740000Y-115314802D01*
X114740001Y-116796288D01*
X114622569Y-116913720D01*
X114465000Y-117294126D01*
X114465000Y-117705874D01*
X114622569Y-118086280D01*
X114913720Y-118377431D01*
X115294126Y-118535000D01*
X115705874Y-118535000D01*
X116086280Y-118377431D01*
X116377431Y-118086280D01*
X116535000Y-117705874D01*
X116535000Y-117294126D01*
X116377431Y-116913720D01*
X116260000Y-116796289D01*
X116260000Y-115074847D01*
X116274888Y-115000000D01*
X116260000Y-114925153D01*
X116260000Y-114925148D01*
X116215904Y-114703463D01*
X116047929Y-114452071D01*
X115984473Y-114409671D01*
X115647440Y-114072638D01*
X115647440Y-113525000D01*
X115569611Y-113133729D01*
X115347974Y-112802026D01*
X115195281Y-112700000D01*
X115347974Y-112597974D01*
X115569611Y-112266271D01*
X115647440Y-111875000D01*
X115647440Y-111125000D01*
X115569611Y-110733729D01*
X115503642Y-110635000D01*
X117000000Y-110635000D01*
X117040219Y-110627000D01*
X117500000Y-110627000D01*
X117548601Y-110617333D01*
X117589803Y-110589803D01*
X117617333Y-110548601D01*
X117627000Y-110500000D01*
X117627000Y-110040219D01*
X117635000Y-110000000D01*
X117635000Y-104545485D01*
X117715000Y-104545485D01*
X117715000Y-105454515D01*
X118062870Y-106294349D01*
X118705651Y-106937130D01*
X119545485Y-107285000D01*
X120454515Y-107285000D01*
X121294349Y-106937130D01*
X121937130Y-106294349D01*
X122285000Y-105454515D01*
X122285000Y-104545485D01*
X121937130Y-103705651D01*
X121294349Y-103062870D01*
X120454515Y-102715000D01*
X119545485Y-102715000D01*
X118705651Y-103062870D01*
X118062870Y-103705651D01*
X117715000Y-104545485D01*
X117635000Y-104545485D01*
X117635000Y-102500000D01*
X117627000Y-102459781D01*
X117627000Y-101412447D01*
X117968538Y-101070909D01*
X118029905Y-101029905D01*
X118192354Y-100786783D01*
X118235000Y-100572388D01*
X118235000Y-100572385D01*
X118249398Y-100500001D01*
X118235000Y-100427617D01*
X118235000Y-97127000D01*
X120160406Y-97127000D01*
X120222972Y-97168805D01*
G04 #@! TO.N,GND*
G36*
X141765001Y-100427611D02*
X141750602Y-100500000D01*
X141807646Y-100786782D01*
X141807647Y-100786783D01*
X141970096Y-101029905D01*
X142031463Y-101070909D01*
X142373000Y-101412446D01*
X142373000Y-101873000D01*
X139429591Y-101873000D01*
X139296537Y-101784096D01*
X139074852Y-101740000D01*
X139074847Y-101740000D01*
X139000000Y-101725112D01*
X138925153Y-101740000D01*
X135127000Y-101740000D01*
X135127000Y-97698647D01*
X135277028Y-97668805D01*
X135511881Y-97511881D01*
X135551493Y-97452597D01*
X135794091Y-97210000D01*
X139430075Y-97210000D01*
X139500000Y-97223909D01*
X139777028Y-97168805D01*
X140011881Y-97011881D01*
X140168805Y-96777028D01*
X140198647Y-96627000D01*
X141765001Y-96627000D01*
X141765001Y-100427611D01*
X141765001Y-100427611D01*
G37*
X141765001Y-100427611D02*
X141750602Y-100500000D01*
X141807646Y-100786782D01*
X141807647Y-100786783D01*
X141970096Y-101029905D01*
X142031463Y-101070909D01*
X142373000Y-101412446D01*
X142373000Y-101873000D01*
X139429591Y-101873000D01*
X139296537Y-101784096D01*
X139074852Y-101740000D01*
X139074847Y-101740000D01*
X139000000Y-101725112D01*
X138925153Y-101740000D01*
X135127000Y-101740000D01*
X135127000Y-97698647D01*
X135277028Y-97668805D01*
X135511881Y-97511881D01*
X135551493Y-97452597D01*
X135794091Y-97210000D01*
X139430075Y-97210000D01*
X139500000Y-97223909D01*
X139777028Y-97168805D01*
X140011881Y-97011881D01*
X140168805Y-96777028D01*
X140198647Y-96627000D01*
X141765001Y-96627000D01*
X141765001Y-100427611D01*
G36*
X147331195Y-120277027D02*
X147488119Y-120511880D01*
X147547401Y-120551491D01*
X147790001Y-120794092D01*
X147790000Y-124430074D01*
X147776091Y-124500000D01*
X147831195Y-124777028D01*
X147988119Y-125011881D01*
X148222972Y-125168805D01*
X148373000Y-125198647D01*
X148373000Y-126765000D01*
X144572383Y-126765000D01*
X144499999Y-126750602D01*
X144427615Y-126765000D01*
X144427612Y-126765000D01*
X144213217Y-126807646D01*
X143970095Y-126970095D01*
X143929091Y-127031462D01*
X143587553Y-127373000D01*
X143127000Y-127373000D01*
X143127000Y-126929592D01*
X143215903Y-126796538D01*
X143215904Y-126796537D01*
X143260000Y-126574852D01*
X143260000Y-126574848D01*
X143274888Y-126500001D01*
X143260000Y-126425154D01*
X143260000Y-120127000D01*
X147301353Y-120127000D01*
X147331195Y-120277027D01*
X147331195Y-120277027D01*
G37*
X147331195Y-120277027D02*
X147488119Y-120511880D01*
X147547401Y-120551491D01*
X147790001Y-120794092D01*
X147790000Y-124430074D01*
X147776091Y-124500000D01*
X147831195Y-124777028D01*
X147988119Y-125011881D01*
X148222972Y-125168805D01*
X148373000Y-125198647D01*
X148373000Y-126765000D01*
X144572383Y-126765000D01*
X144499999Y-126750602D01*
X144427615Y-126765000D01*
X144427612Y-126765000D01*
X144213217Y-126807646D01*
X143970095Y-126970095D01*
X143929091Y-127031462D01*
X143587553Y-127373000D01*
X143127000Y-127373000D01*
X143127000Y-126929592D01*
X143215903Y-126796538D01*
X143215904Y-126796537D01*
X143260000Y-126574852D01*
X143260000Y-126574848D01*
X143274888Y-126500001D01*
X143260000Y-126425154D01*
X143260000Y-120127000D01*
X147301353Y-120127000D01*
X147331195Y-120277027D01*
G36*
X120140902Y-128174102D02*
X120203463Y-128215904D01*
X120425148Y-128260000D01*
X120425152Y-128260000D01*
X120499999Y-128274888D01*
X120574846Y-128260000D01*
X124873000Y-128260000D01*
X124873000Y-132301353D01*
X124722971Y-132331195D01*
X124547399Y-132448509D01*
X124488119Y-132488119D01*
X124448509Y-132547399D01*
X124205909Y-132790000D01*
X120569926Y-132790000D01*
X120500000Y-132776091D01*
X120430075Y-132790000D01*
X120430074Y-132790000D01*
X120222972Y-132831195D01*
X119988119Y-132988119D01*
X119831195Y-133222972D01*
X119801353Y-133373000D01*
X118235000Y-133373000D01*
X118235000Y-129572383D01*
X118249398Y-129499999D01*
X118235000Y-129427613D01*
X118235000Y-129427612D01*
X118192354Y-129213217D01*
X118029905Y-128970095D01*
X117968537Y-128929090D01*
X117627000Y-128587553D01*
X117627000Y-128127000D01*
X120070408Y-128127000D01*
X120140902Y-128174102D01*
X120140902Y-128174102D01*
G37*
X120140902Y-128174102D02*
X120203463Y-128215904D01*
X120425148Y-128260000D01*
X120425152Y-128260000D01*
X120499999Y-128274888D01*
X120574846Y-128260000D01*
X124873000Y-128260000D01*
X124873000Y-132301353D01*
X124722971Y-132331195D01*
X124547399Y-132448509D01*
X124488119Y-132488119D01*
X124448509Y-132547399D01*
X124205909Y-132790000D01*
X120569926Y-132790000D01*
X120500000Y-132776091D01*
X120430075Y-132790000D01*
X120430074Y-132790000D01*
X120222972Y-132831195D01*
X119988119Y-132988119D01*
X119831195Y-133222972D01*
X119801353Y-133373000D01*
X118235000Y-133373000D01*
X118235000Y-129572383D01*
X118249398Y-129499999D01*
X118235000Y-129427613D01*
X118235000Y-129427612D01*
X118192354Y-129213217D01*
X118029905Y-128970095D01*
X117968537Y-128929090D01*
X117627000Y-128587553D01*
X117627000Y-128127000D01*
X120070408Y-128127000D01*
X120140902Y-128174102D01*
G36*
X116873000Y-109873000D02*
X112698647Y-109873000D01*
X112668805Y-109722971D01*
X112551491Y-109547399D01*
X112551488Y-109547396D01*
X112511880Y-109488119D01*
X112452603Y-109448511D01*
X112210000Y-109205909D01*
X112210000Y-105569926D01*
X112223909Y-105500000D01*
X112168805Y-105222972D01*
X112011881Y-104988119D01*
X111777028Y-104831195D01*
X111627000Y-104801353D01*
X111627000Y-103235000D01*
X115427616Y-103235000D01*
X115500000Y-103249398D01*
X115572384Y-103235000D01*
X115572388Y-103235000D01*
X115786783Y-103192354D01*
X116029905Y-103029905D01*
X116070911Y-102968535D01*
X116412446Y-102627000D01*
X116873000Y-102627000D01*
X116873000Y-109873000D01*
X116873000Y-109873000D01*
G37*
X116873000Y-109873000D02*
X112698647Y-109873000D01*
X112668805Y-109722971D01*
X112551491Y-109547399D01*
X112551488Y-109547396D01*
X112511880Y-109488119D01*
X112452603Y-109448511D01*
X112210000Y-109205909D01*
X112210000Y-105569926D01*
X112223909Y-105500000D01*
X112168805Y-105222972D01*
X112011881Y-104988119D01*
X111777028Y-104831195D01*
X111627000Y-104801353D01*
X111627000Y-103235000D01*
X115427616Y-103235000D01*
X115500000Y-103249398D01*
X115572384Y-103235000D01*
X115572388Y-103235000D01*
X115786783Y-103192354D01*
X116029905Y-103029905D01*
X116070911Y-102968535D01*
X116412446Y-102627000D01*
X116873000Y-102627000D01*
X116873000Y-109873000D01*
G04 #@! TD*
M02*
